<svg width="1363" height="297" viewBox="0 0 1363 297" fill="none" xmlns="http://www.w3.org/2000/svg">
<path d="M0 15C0 6.71573 6.71573 0 15 0H37V297H15C6.71573 297 0 290.284 0 282V15Z" fill="#601BDE"/>
<path d="M37 0H1066V297H37V0Z" fill="#F0F0F0"/>
<path d="M105.691 53.7832L98.7305 75H93.123L102.633 49.4062H106.201L105.691 53.7832ZM111.475 75L104.496 53.7832L103.934 49.4062H107.537L117.1 75H111.475ZM111.158 65.4727V69.6035H97.6406V65.4727H111.158ZM119.156 48H124.219V70.6406L123.709 75H119.156V48ZM136.26 65.2969V65.666C136.26 67.084 136.107 68.3848 135.803 69.5684C135.51 70.752 135.053 71.7773 134.432 72.6445C133.811 73.5 133.037 74.168 132.111 74.6484C131.197 75.1172 130.119 75.3516 128.877 75.3516C127.717 75.3516 126.709 75.1172 125.854 74.6484C125.01 74.1797 124.301 73.5176 123.727 72.6621C123.152 71.8066 122.689 70.8047 122.338 69.6562C121.986 68.5078 121.723 67.2539 121.547 65.8945V65.0859C121.723 63.7266 121.986 62.4727 122.338 61.3242C122.689 60.1758 123.152 59.1738 123.727 58.3184C124.301 57.4629 125.01 56.8008 125.854 56.332C126.697 55.8633 127.693 55.6289 128.842 55.6289C130.096 55.6289 131.186 55.8691 132.111 56.3496C133.049 56.8184 133.822 57.4863 134.432 58.3535C135.053 59.209 135.51 60.2285 135.803 61.4121C136.107 62.584 136.26 63.8789 136.26 65.2969ZM131.197 65.666V65.2969C131.197 64.5234 131.139 63.7969 131.021 63.1172C130.916 62.4258 130.729 61.8223 130.459 61.3066C130.189 60.7793 129.82 60.3633 129.352 60.0586C128.895 59.7539 128.303 59.6016 127.576 59.6016C126.885 59.6016 126.299 59.7188 125.818 59.9531C125.338 60.1875 124.939 60.5156 124.623 60.9375C124.318 61.3594 124.09 61.8633 123.938 62.4492C123.785 63.0234 123.691 63.6562 123.656 64.3477V66.6504C123.691 67.5762 123.844 68.3965 124.113 69.1113C124.395 69.8145 124.816 70.3711 125.379 70.7812C125.953 71.1797 126.697 71.3789 127.611 71.3789C128.326 71.3789 128.918 71.2383 129.387 70.957C129.855 70.6758 130.219 70.2773 130.477 69.7617C130.746 69.2461 130.934 68.6426 131.039 67.9512C131.145 67.248 131.197 66.4863 131.197 65.666ZM150.639 70.8516V48H155.736V75H151.148L150.639 70.8516ZM138.615 65.7188V65.3496C138.615 63.8965 138.779 62.5781 139.107 61.3945C139.436 60.1992 139.916 59.1738 140.549 58.3184C141.182 57.4629 141.961 56.8008 142.887 56.332C143.812 55.8633 144.867 55.6289 146.051 55.6289C147.164 55.6289 148.137 55.8633 148.969 56.332C149.812 56.8008 150.527 57.4688 151.113 58.3359C151.711 59.1914 152.191 60.2051 152.555 61.377C152.918 62.5371 153.182 63.8086 153.346 65.1914V66C153.182 67.3242 152.918 68.5547 152.555 69.6914C152.191 70.8281 151.711 71.8242 151.113 72.6797C150.527 73.5234 149.812 74.1797 148.969 74.6484C148.125 75.1172 147.141 75.3516 146.016 75.3516C144.832 75.3516 143.777 75.1113 142.852 74.6309C141.938 74.1504 141.164 73.4766 140.531 72.6094C139.91 71.7422 139.436 70.7227 139.107 69.5508C138.779 68.3789 138.615 67.1016 138.615 65.7188ZM143.678 65.3496V65.7188C143.678 66.5039 143.736 67.2363 143.854 67.916C143.982 68.5957 144.188 69.1992 144.469 69.7266C144.762 70.2422 145.137 70.6465 145.594 70.9395C146.062 71.2207 146.631 71.3613 147.299 71.3613C148.166 71.3613 148.881 71.168 149.443 70.7812C150.006 70.3828 150.434 69.8379 150.727 69.1465C151.031 68.4551 151.207 67.6582 151.254 66.7559V64.4531C151.219 63.7148 151.113 63.0527 150.938 62.4668C150.773 61.8691 150.527 61.3594 150.199 60.9375C149.883 60.5156 149.484 60.1875 149.004 59.9531C148.535 59.7188 147.979 59.6016 147.334 59.6016C146.678 59.6016 146.115 59.7539 145.646 60.0586C145.178 60.3516 144.797 60.7559 144.504 61.2715C144.223 61.7871 144.012 62.3965 143.871 63.0996C143.742 63.791 143.678 64.541 143.678 65.3496ZM170.941 70.4473V55.9805H176.004V75H171.24L170.941 70.4473ZM171.504 66.5449L172.998 66.5098C172.998 67.7754 172.852 68.9531 172.559 70.043C172.266 71.1211 171.826 72.0586 171.24 72.8555C170.654 73.6406 169.916 74.2559 169.025 74.7012C168.135 75.1348 167.086 75.3516 165.879 75.3516C164.953 75.3516 164.098 75.2227 163.312 74.9648C162.539 74.6953 161.871 74.2793 161.309 73.7168C160.758 73.1426 160.324 72.4102 160.008 71.5195C159.703 70.6172 159.551 69.5332 159.551 68.2676V55.9805H164.613V68.3027C164.613 68.8652 164.678 69.3398 164.807 69.7266C164.947 70.1133 165.141 70.4297 165.387 70.6758C165.633 70.9219 165.92 71.0977 166.248 71.2031C166.588 71.3086 166.963 71.3613 167.373 71.3613C168.416 71.3613 169.236 71.1504 169.834 70.7285C170.443 70.3066 170.871 69.7324 171.117 69.0059C171.375 68.2676 171.504 67.4473 171.504 66.5449ZM185.215 48V75H180.135V48H185.215ZM194.742 48V75H189.662V48H194.742ZM209.191 70.7109V62.2383C209.191 61.6289 209.092 61.1074 208.893 60.6738C208.693 60.2285 208.383 59.8828 207.961 59.6367C207.551 59.3906 207.018 59.2676 206.361 59.2676C205.799 59.2676 205.312 59.3672 204.902 59.5664C204.492 59.7539 204.176 60.0293 203.953 60.3926C203.73 60.7441 203.619 61.1602 203.619 61.6406H198.557C198.557 60.832 198.744 60.0645 199.119 59.3379C199.494 58.6113 200.039 57.9727 200.754 57.4219C201.469 56.8594 202.318 56.4199 203.303 56.1035C204.299 55.7871 205.412 55.6289 206.643 55.6289C208.119 55.6289 209.432 55.875 210.58 56.3672C211.729 56.8594 212.631 57.5977 213.287 58.582C213.955 59.5664 214.289 60.7969 214.289 62.2734V70.4121C214.289 71.4551 214.354 72.3105 214.482 72.9785C214.611 73.6348 214.799 74.209 215.045 74.7012V75H209.93C209.684 74.4844 209.496 73.8398 209.367 73.0664C209.25 72.2812 209.191 71.4961 209.191 70.7109ZM209.859 63.416L209.895 66.2812H207.064C206.396 66.2812 205.816 66.3574 205.324 66.5098C204.832 66.6621 204.428 66.8789 204.111 67.1602C203.795 67.4297 203.561 67.7461 203.408 68.1094C203.268 68.4727 203.197 68.8711 203.197 69.3047C203.197 69.7383 203.297 70.1309 203.496 70.4824C203.695 70.8223 203.982 71.0918 204.357 71.291C204.732 71.4785 205.172 71.5723 205.676 71.5723C206.438 71.5723 207.1 71.4199 207.662 71.1152C208.225 70.8105 208.658 70.4355 208.963 69.9902C209.279 69.5449 209.443 69.123 209.455 68.7246L210.791 70.8691C210.604 71.3496 210.346 71.8477 210.018 72.3633C209.701 72.8789 209.297 73.3652 208.805 73.8223C208.312 74.2676 207.721 74.6367 207.029 74.9297C206.338 75.2109 205.518 75.3516 204.568 75.3516C203.361 75.3516 202.266 75.1113 201.281 74.6309C200.309 74.1387 199.535 73.4648 198.961 72.6094C198.398 71.7422 198.117 70.7578 198.117 69.6562C198.117 68.6602 198.305 67.7754 198.68 67.002C199.055 66.2285 199.605 65.5781 200.332 65.0508C201.07 64.5117 201.99 64.1074 203.092 63.8379C204.193 63.5566 205.471 63.416 206.924 63.416H209.859ZM223.131 48V75H218.068V48H223.131ZM222.41 64.8223H221.021C221.033 63.498 221.209 62.2793 221.549 61.166C221.889 60.041 222.375 59.0684 223.008 58.248C223.641 57.416 224.396 56.7715 225.275 56.3145C226.166 55.8574 227.15 55.6289 228.229 55.6289C229.166 55.6289 230.016 55.7637 230.777 56.0332C231.551 56.291 232.213 56.7129 232.764 57.2988C233.326 57.873 233.76 58.6289 234.064 59.5664C234.369 60.5039 234.521 61.6406 234.521 62.9766V75H229.424V62.9414C229.424 62.0977 229.301 61.4355 229.055 60.9551C228.82 60.4629 228.475 60.1172 228.018 59.918C227.572 59.707 227.021 59.6016 226.365 59.6016C225.639 59.6016 225.018 59.7363 224.502 60.0059C223.998 60.2754 223.594 60.6504 223.289 61.1309C222.984 61.5996 222.762 62.1504 222.621 62.7832C222.48 63.416 222.41 64.0957 222.41 64.8223ZM266.162 70.8867V75H248.021V70.8867H266.162ZM265.898 52.3418L250.359 75H246.65V71.9766L262.312 49.4062H265.898V52.3418ZM264.088 49.4062V53.5371H246.668V49.4062H264.088ZM277.57 75.3516C276.094 75.3516 274.77 75.1172 273.598 74.6484C272.426 74.168 271.43 73.5059 270.609 72.6621C269.801 71.8184 269.18 70.8398 268.746 69.7266C268.312 68.6016 268.096 67.4062 268.096 66.1406V65.4375C268.096 63.9961 268.301 62.6777 268.711 61.4824C269.121 60.2871 269.707 59.25 270.469 58.3711C271.242 57.4922 272.18 56.8184 273.281 56.3496C274.383 55.8691 275.625 55.6289 277.008 55.6289C278.355 55.6289 279.551 55.8516 280.594 56.2969C281.637 56.7422 282.51 57.375 283.213 58.1953C283.928 59.0156 284.467 60 284.83 61.1484C285.193 62.2852 285.375 63.5508 285.375 64.9453V67.0547H270.258V63.6797H280.4V63.293C280.4 62.5898 280.271 61.9629 280.014 61.4121C279.768 60.8496 279.393 60.4043 278.889 60.0762C278.385 59.748 277.74 59.584 276.955 59.584C276.287 59.584 275.713 59.7305 275.232 60.0234C274.752 60.3164 274.359 60.7266 274.055 61.2539C273.762 61.7812 273.539 62.4023 273.387 63.1172C273.246 63.8203 273.176 64.5938 273.176 65.4375V66.1406C273.176 66.9023 273.281 67.6055 273.492 68.25C273.715 68.8945 274.025 69.4512 274.424 69.9199C274.834 70.3887 275.326 70.752 275.9 71.0098C276.486 71.2676 277.148 71.3965 277.887 71.3965C278.801 71.3965 279.65 71.2207 280.436 70.8691C281.232 70.5059 281.918 69.9609 282.492 69.2344L284.953 71.9062C284.555 72.4805 284.01 73.0312 283.318 73.5586C282.639 74.0859 281.818 74.5195 280.857 74.8594C279.896 75.1875 278.801 75.3516 277.57 75.3516ZM293.602 55.9805V75H288.521V55.9805H293.602ZM288.205 51.0234C288.205 50.2852 288.463 49.6758 288.979 49.1953C289.494 48.7148 290.186 48.4746 291.053 48.4746C291.908 48.4746 292.594 48.7148 293.109 49.1953C293.637 49.6758 293.9 50.2852 293.9 51.0234C293.9 51.7617 293.637 52.3711 293.109 52.8516C292.594 53.332 291.908 53.5723 291.053 53.5723C290.186 53.5723 289.494 53.332 288.979 52.8516C288.463 52.3711 288.205 51.7617 288.205 51.0234ZM309.018 70.8516V48H314.115V75H309.527L309.018 70.8516ZM296.994 65.7188V65.3496C296.994 63.8965 297.158 62.5781 297.486 61.3945C297.814 60.1992 298.295 59.1738 298.928 58.3184C299.561 57.4629 300.34 56.8008 301.266 56.332C302.191 55.8633 303.246 55.6289 304.43 55.6289C305.543 55.6289 306.516 55.8633 307.348 56.332C308.191 56.8008 308.906 57.4688 309.492 58.3359C310.09 59.1914 310.57 60.2051 310.934 61.377C311.297 62.5371 311.561 63.8086 311.725 65.1914V66C311.561 67.3242 311.297 68.5547 310.934 69.6914C310.57 70.8281 310.09 71.8242 309.492 72.6797C308.906 73.5234 308.191 74.1797 307.348 74.6484C306.504 75.1172 305.52 75.3516 304.395 75.3516C303.211 75.3516 302.156 75.1113 301.23 74.6309C300.316 74.1504 299.543 73.4766 298.91 72.6094C298.289 71.7422 297.814 70.7227 297.486 69.5508C297.158 68.3789 296.994 67.1016 296.994 65.7188ZM302.057 65.3496V65.7188C302.057 66.5039 302.115 67.2363 302.232 67.916C302.361 68.5957 302.566 69.1992 302.848 69.7266C303.141 70.2422 303.516 70.6465 303.973 70.9395C304.441 71.2207 305.01 71.3613 305.678 71.3613C306.545 71.3613 307.26 71.168 307.822 70.7812C308.385 70.3828 308.812 69.8379 309.105 69.1465C309.41 68.4551 309.586 67.6582 309.633 66.7559V64.4531C309.598 63.7148 309.492 63.0527 309.316 62.4668C309.152 61.8691 308.906 61.3594 308.578 60.9375C308.262 60.5156 307.863 60.1875 307.383 59.9531C306.914 59.7188 306.357 59.6016 305.713 59.6016C305.057 59.6016 304.494 59.7539 304.025 60.0586C303.557 60.3516 303.176 60.7559 302.883 61.2715C302.602 61.7871 302.391 62.3965 302.25 63.0996C302.121 63.791 302.057 64.541 302.057 65.3496ZM328.336 70.7109V62.2383C328.336 61.6289 328.236 61.1074 328.037 60.6738C327.838 60.2285 327.527 59.8828 327.105 59.6367C326.695 59.3906 326.162 59.2676 325.506 59.2676C324.943 59.2676 324.457 59.3672 324.047 59.5664C323.637 59.7539 323.32 60.0293 323.098 60.3926C322.875 60.7441 322.764 61.1602 322.764 61.6406H317.701C317.701 60.832 317.889 60.0645 318.264 59.3379C318.639 58.6113 319.184 57.9727 319.898 57.4219C320.613 56.8594 321.463 56.4199 322.447 56.1035C323.443 55.7871 324.557 55.6289 325.787 55.6289C327.264 55.6289 328.576 55.875 329.725 56.3672C330.873 56.8594 331.775 57.5977 332.432 58.582C333.1 59.5664 333.434 60.7969 333.434 62.2734V70.4121C333.434 71.4551 333.498 72.3105 333.627 72.9785C333.756 73.6348 333.943 74.209 334.189 74.7012V75H329.074C328.828 74.4844 328.641 73.8398 328.512 73.0664C328.395 72.2812 328.336 71.4961 328.336 70.7109ZM329.004 63.416L329.039 66.2812H326.209C325.541 66.2812 324.961 66.3574 324.469 66.5098C323.977 66.6621 323.572 66.8789 323.256 67.1602C322.939 67.4297 322.705 67.7461 322.553 68.1094C322.412 68.4727 322.342 68.8711 322.342 69.3047C322.342 69.7383 322.441 70.1309 322.641 70.4824C322.84 70.8223 323.127 71.0918 323.502 71.291C323.877 71.4785 324.316 71.5723 324.82 71.5723C325.582 71.5723 326.244 71.4199 326.807 71.1152C327.369 70.8105 327.803 70.4355 328.107 69.9902C328.424 69.5449 328.588 69.123 328.6 68.7246L329.936 70.8691C329.748 71.3496 329.49 71.8477 329.162 72.3633C328.846 72.8789 328.441 73.3652 327.949 73.8223C327.457 74.2676 326.865 74.6367 326.174 74.9297C325.482 75.2109 324.662 75.3516 323.713 75.3516C322.506 75.3516 321.41 75.1113 320.426 74.6309C319.453 74.1387 318.68 73.4648 318.105 72.6094C317.543 71.7422 317.262 70.7578 317.262 69.6562C317.262 68.6602 317.449 67.7754 317.824 67.002C318.199 66.2285 318.75 65.5781 319.477 65.0508C320.215 64.5117 321.135 64.1074 322.236 63.8379C323.338 63.5566 324.615 63.416 326.068 63.416H329.004ZM342.293 60.041V75H337.23V55.9805H341.977L342.293 60.041ZM341.555 64.8223H340.184C340.184 63.416 340.365 62.1504 340.729 61.0254C341.092 59.8887 341.602 58.9219 342.258 58.125C342.914 57.3164 343.693 56.7012 344.596 56.2793C345.51 55.8457 346.529 55.6289 347.654 55.6289C348.545 55.6289 349.359 55.7578 350.098 56.0156C350.836 56.2734 351.469 56.6836 351.996 57.2461C352.535 57.8086 352.945 58.5527 353.227 59.4785C353.52 60.4043 353.666 61.5352 353.666 62.8711V75H348.568V62.8535C348.568 62.0098 348.451 61.3535 348.217 60.8848C347.982 60.416 347.637 60.0879 347.18 59.9004C346.734 59.7012 346.184 59.6016 345.527 59.6016C344.848 59.6016 344.256 59.7363 343.752 60.0059C343.26 60.2754 342.85 60.6504 342.521 61.1309C342.205 61.5996 341.965 62.1504 341.801 62.7832C341.637 63.416 341.555 64.0957 341.555 64.8223Z" fill="#888888"/>
<path d="M116.543 129.418C116.543 128.798 116.452 128.242 116.27 127.75C116.087 127.24 115.75 126.766 115.258 126.328C114.766 125.891 114.055 125.453 113.125 125.016C112.214 124.56 111.01 124.086 109.516 123.594C107.766 123.01 106.079 122.354 104.457 121.625C102.835 120.878 101.385 120.012 100.109 119.027C98.8333 118.025 97.8216 116.858 97.0742 115.527C96.3268 114.178 95.9531 112.611 95.9531 110.824C95.9531 109.111 96.3359 107.57 97.1016 106.203C97.8672 104.818 98.9336 103.642 100.301 102.676C101.686 101.691 103.309 100.944 105.168 100.434C107.027 99.9049 109.06 99.6406 111.266 99.6406C114.182 99.6406 116.753 100.151 118.977 101.172C121.219 102.174 122.969 103.605 124.227 105.465C125.503 107.306 126.141 109.484 126.141 112H116.598C116.598 110.997 116.388 110.113 115.969 109.348C115.568 108.582 114.957 107.98 114.137 107.543C113.316 107.105 112.286 106.887 111.047 106.887C109.844 106.887 108.832 107.069 108.012 107.434C107.191 107.798 106.572 108.29 106.152 108.91C105.733 109.512 105.523 110.177 105.523 110.906C105.523 111.508 105.688 112.055 106.016 112.547C106.362 113.021 106.845 113.467 107.465 113.887C108.103 114.306 108.868 114.707 109.762 115.09C110.673 115.473 111.694 115.846 112.824 116.211C114.939 116.885 116.816 117.642 118.457 118.48C120.116 119.301 121.51 120.24 122.641 121.297C123.789 122.336 124.655 123.521 125.238 124.852C125.84 126.182 126.141 127.686 126.141 129.363C126.141 131.15 125.794 132.736 125.102 134.121C124.409 135.507 123.415 136.682 122.121 137.648C120.827 138.596 119.277 139.316 117.473 139.809C115.668 140.301 113.654 140.547 111.43 140.547C109.388 140.547 107.374 140.292 105.387 139.781C103.418 139.253 101.632 138.451 100.027 137.375C98.4232 136.281 97.138 134.887 96.1719 133.191C95.224 131.478 94.75 129.445 94.75 127.094H104.375C104.375 128.26 104.53 129.245 104.84 130.047C105.15 130.849 105.605 131.496 106.207 131.988C106.809 132.462 107.547 132.809 108.422 133.027C109.297 133.228 110.299 133.328 111.43 133.328C112.651 133.328 113.635 133.155 114.383 132.809C115.13 132.444 115.677 131.97 116.023 131.387C116.37 130.785 116.543 130.129 116.543 129.418ZM129.504 125.508V124.934C129.504 122.764 129.814 120.768 130.434 118.945C131.053 117.104 131.965 115.509 133.168 114.16C134.371 112.811 135.857 111.763 137.625 111.016C139.393 110.25 141.435 109.867 143.75 109.867C146.083 109.867 148.134 110.25 149.902 111.016C151.689 111.763 153.184 112.811 154.387 114.16C155.59 115.509 156.501 117.104 157.121 118.945C157.741 120.768 158.051 122.764 158.051 124.934V125.508C158.051 127.659 157.741 129.655 157.121 131.496C156.501 133.319 155.59 134.914 154.387 136.281C153.184 137.63 151.698 138.678 149.93 139.426C148.161 140.173 146.12 140.547 143.805 140.547C141.49 140.547 139.439 140.173 137.652 139.426C135.866 138.678 134.371 137.63 133.168 136.281C131.965 134.914 131.053 133.319 130.434 131.496C129.814 129.655 129.504 127.659 129.504 125.508ZM138.719 124.934V125.508C138.719 126.62 138.801 127.659 138.965 128.625C139.129 129.591 139.402 130.439 139.785 131.168C140.168 131.879 140.688 132.435 141.344 132.836C142 133.237 142.82 133.438 143.805 133.438C144.771 133.438 145.573 133.237 146.211 132.836C146.867 132.435 147.387 131.879 147.77 131.168C148.152 130.439 148.426 129.591 148.59 128.625C148.754 127.659 148.836 126.62 148.836 125.508V124.934C148.836 123.858 148.754 122.846 148.59 121.898C148.426 120.932 148.152 120.085 147.77 119.355C147.387 118.608 146.867 118.025 146.211 117.605C145.555 117.186 144.734 116.977 143.75 116.977C142.784 116.977 141.973 117.186 141.316 117.605C140.678 118.025 140.168 118.608 139.785 119.355C139.402 120.085 139.129 120.932 138.965 121.898C138.801 122.846 138.719 123.858 138.719 124.934ZM179.434 132.809V110.414H188.676V140H180.035L179.434 132.809ZM180.309 126.793L182.715 126.738C182.715 128.725 182.478 130.566 182.004 132.262C181.53 133.939 180.828 135.397 179.898 136.637C178.987 137.876 177.857 138.842 176.508 139.535C175.177 140.21 173.637 140.547 171.887 140.547C170.428 140.547 169.089 140.346 167.867 139.945C166.664 139.526 165.625 138.879 164.75 138.004C163.875 137.111 163.191 135.971 162.699 134.586C162.225 133.182 161.988 131.505 161.988 129.555V110.414H171.203V129.609C171.203 130.266 171.285 130.831 171.449 131.305C171.613 131.779 171.85 132.18 172.16 132.508C172.47 132.818 172.853 133.055 173.309 133.219C173.783 133.365 174.32 133.438 174.922 133.438C176.307 133.438 177.392 133.146 178.176 132.562C178.96 131.979 179.507 131.186 179.816 130.184C180.145 129.181 180.309 128.051 180.309 126.793ZM203.059 117.742V140H193.844V110.414H202.457L203.059 117.742ZM211.809 110.195L211.645 118.754C211.28 118.717 210.788 118.672 210.168 118.617C209.548 118.562 209.029 118.535 208.609 118.535C207.534 118.535 206.604 118.663 205.82 118.918C205.055 119.155 204.417 119.52 203.906 120.012C203.414 120.486 203.049 121.087 202.812 121.816C202.594 122.546 202.493 123.393 202.512 124.359L200.844 123.266C200.844 121.279 201.035 119.474 201.418 117.852C201.819 116.211 202.384 114.798 203.113 113.613C203.842 112.41 204.727 111.49 205.766 110.852C206.805 110.195 207.971 109.867 209.266 109.867C209.721 109.867 210.168 109.895 210.605 109.949C211.061 110.004 211.462 110.086 211.809 110.195ZM226.93 133.438C227.786 133.438 228.516 133.283 229.117 132.973C229.737 132.645 230.202 132.189 230.512 131.605C230.84 131.004 230.995 130.284 230.977 129.445H239.645C239.663 131.669 239.116 133.62 238.004 135.297C236.91 136.956 235.415 138.25 233.52 139.18C231.642 140.091 229.518 140.547 227.148 140.547C224.833 140.547 222.81 140.173 221.078 139.426C219.346 138.66 217.897 137.603 216.73 136.254C215.582 134.887 214.716 133.292 214.133 131.469C213.568 129.646 213.285 127.668 213.285 125.535V124.906C213.285 122.773 213.568 120.796 214.133 118.973C214.716 117.132 215.582 115.536 216.73 114.188C217.897 112.82 219.337 111.763 221.051 111.016C222.783 110.25 224.797 109.867 227.094 109.867C229.555 109.867 231.724 110.332 233.602 111.262C235.497 112.191 236.983 113.54 238.059 115.309C239.134 117.077 239.663 119.219 239.645 121.734H230.977C230.995 120.841 230.858 120.039 230.566 119.328C230.275 118.617 229.819 118.052 229.199 117.633C228.598 117.195 227.823 116.977 226.875 116.977C225.927 116.977 225.161 117.186 224.578 117.605C223.995 118.025 223.548 118.608 223.238 119.355C222.947 120.085 222.746 120.923 222.637 121.871C222.546 122.819 222.5 123.831 222.5 124.906V125.535C222.5 126.629 222.546 127.659 222.637 128.625C222.746 129.573 222.956 130.411 223.266 131.141C223.576 131.852 224.022 132.417 224.605 132.836C225.189 133.237 225.964 133.438 226.93 133.438ZM257.91 140.547C255.504 140.547 253.353 140.173 251.457 139.426C249.561 138.66 247.957 137.612 246.645 136.281C245.35 134.951 244.357 133.419 243.664 131.688C242.99 129.956 242.652 128.124 242.652 126.191V125.152C242.652 122.983 242.953 120.978 243.555 119.137C244.156 117.277 245.049 115.655 246.234 114.27C247.419 112.884 248.905 111.809 250.691 111.043C252.478 110.259 254.556 109.867 256.926 109.867C259.022 109.867 260.9 110.204 262.559 110.879C264.217 111.553 265.621 112.52 266.77 113.777C267.936 115.035 268.82 116.557 269.422 118.344C270.042 120.13 270.352 122.135 270.352 124.359V128.105H246.18V122.336H261.355V121.625C261.374 120.641 261.201 119.802 260.836 119.109C260.49 118.417 259.979 117.888 259.305 117.523C258.63 117.159 257.81 116.977 256.844 116.977C255.841 116.977 255.012 117.195 254.355 117.633C253.717 118.07 253.216 118.672 252.852 119.438C252.505 120.185 252.259 121.051 252.113 122.035C251.967 123.02 251.895 124.059 251.895 125.152V126.191C251.895 127.285 252.04 128.279 252.332 129.172C252.642 130.065 253.079 130.831 253.645 131.469C254.228 132.089 254.921 132.572 255.723 132.918C256.543 133.264 257.473 133.438 258.512 133.438C259.77 133.438 261.009 133.201 262.23 132.727C263.452 132.253 264.5 131.469 265.375 130.375L269.559 135.352C268.957 136.208 268.1 137.038 266.988 137.84C265.895 138.642 264.582 139.298 263.051 139.809C261.52 140.301 259.806 140.547 257.91 140.547Z" fill="black"/>
<rect x="93" y="178" width="917" height="77" rx="10" fill="#D3D3D3"/>
<rect x="111" y="196" width="131" height="41" rx="3" fill="#424242"/>
<rect x="111" y="196" width="131" height="41" rx="3" stroke="#424242" stroke-width="4"/>
<path d="M140.359 210.203V223H137.274V210.203H140.359ZM144.209 210.203V212.585H133.513V210.203H144.209ZM147.575 221.884L150.036 213.49H153.218L149.395 224.415C149.312 224.655 149.204 224.913 149.069 225.188C148.935 225.47 148.75 225.736 148.516 225.988C148.281 226.24 147.979 226.445 147.61 226.604C147.247 226.762 146.796 226.841 146.257 226.841C145.97 226.841 145.759 226.826 145.624 226.797C145.495 226.773 145.296 226.729 145.026 226.665V224.547C145.103 224.547 145.167 224.547 145.22 224.547C145.278 224.547 145.343 224.547 145.413 224.547C145.729 224.547 145.981 224.515 146.169 224.45C146.362 224.386 146.509 224.292 146.608 224.169C146.714 224.046 146.796 223.896 146.854 223.721L147.575 221.884ZM146.951 213.49L148.823 220.144L149.148 223.281H147.162L143.778 213.49H146.951ZM156.979 215.318V226.656H154.018V213.49H156.777L156.979 215.318ZM162.815 218.131V218.315C162.815 219.007 162.736 219.648 162.578 220.24C162.42 220.832 162.186 221.348 161.875 221.787C161.564 222.227 161.178 222.569 160.715 222.815C160.258 223.056 159.728 223.176 159.124 223.176C158.556 223.176 158.066 223.05 157.656 222.798C157.246 222.546 156.903 222.197 156.628 221.752C156.353 221.307 156.13 220.797 155.96 220.223C155.79 219.648 155.655 219.042 155.556 218.403V218.166C155.655 217.48 155.79 216.845 155.96 216.259C156.13 215.667 156.353 215.151 156.628 214.712C156.903 214.272 157.243 213.93 157.647 213.684C158.058 213.438 158.547 213.314 159.115 213.314C159.719 213.314 160.249 213.429 160.706 213.657C161.169 213.886 161.556 214.214 161.866 214.642C162.183 215.063 162.42 215.57 162.578 216.162C162.736 216.754 162.815 217.41 162.815 218.131ZM159.854 218.315V218.131C159.854 217.762 159.827 217.425 159.774 217.12C159.722 216.81 159.637 216.54 159.52 216.312C159.408 216.083 159.259 215.907 159.071 215.784C158.884 215.661 158.652 215.6 158.377 215.6C158.061 215.6 157.794 215.649 157.577 215.749C157.366 215.843 157.196 215.989 157.067 216.188C156.944 216.382 156.856 216.625 156.804 216.918C156.757 217.205 156.736 217.542 156.742 217.929V218.649C156.73 219.095 156.774 219.487 156.874 219.827C156.974 220.161 157.146 220.422 157.393 220.609C157.639 220.797 157.973 220.891 158.395 220.891C158.676 220.891 158.91 220.826 159.098 220.697C159.285 220.562 159.435 220.378 159.546 220.144C159.657 219.903 159.736 219.628 159.783 219.317C159.83 219.007 159.854 218.673 159.854 218.315ZM168.739 223.176C167.966 223.176 167.274 223.056 166.665 222.815C166.056 222.569 165.54 222.232 165.118 221.805C164.702 221.377 164.383 220.885 164.16 220.328C163.943 219.771 163.835 219.183 163.835 218.562V218.228C163.835 217.53 163.932 216.886 164.125 216.294C164.318 215.696 164.605 215.175 164.986 214.729C165.367 214.284 165.845 213.938 166.419 213.692C166.993 213.44 167.661 213.314 168.423 213.314C169.097 213.314 169.7 213.423 170.233 213.64C170.767 213.856 171.218 214.167 171.587 214.571C171.962 214.976 172.246 215.465 172.439 216.039C172.639 216.613 172.738 217.258 172.738 217.973V219.177H164.969V217.322H169.847V217.094C169.853 216.777 169.797 216.508 169.68 216.285C169.568 216.062 169.404 215.893 169.188 215.775C168.971 215.658 168.707 215.6 168.396 215.6C168.074 215.6 167.808 215.67 167.597 215.811C167.392 215.951 167.23 216.145 167.113 216.391C167.002 216.631 166.923 216.909 166.876 217.226C166.829 217.542 166.806 217.876 166.806 218.228V218.562C166.806 218.913 166.853 219.232 166.946 219.52C167.046 219.807 167.187 220.053 167.368 220.258C167.556 220.457 167.778 220.612 168.036 220.724C168.3 220.835 168.599 220.891 168.933 220.891C169.337 220.891 169.735 220.814 170.128 220.662C170.521 220.51 170.857 220.258 171.139 219.906L172.483 221.506C172.29 221.781 172.015 222.048 171.657 222.306C171.306 222.563 170.884 222.774 170.392 222.938C169.899 223.097 169.349 223.176 168.739 223.176ZM178.926 220.328C178.926 220.164 178.87 220.023 178.759 219.906C178.653 219.783 178.466 219.672 178.196 219.572C177.927 219.467 177.549 219.361 177.062 219.256C176.6 219.156 176.163 219.024 175.753 218.86C175.349 218.696 174.994 218.497 174.689 218.263C174.385 218.028 174.145 217.75 173.969 217.428C173.799 217.105 173.714 216.736 173.714 216.32C173.714 215.916 173.799 215.535 173.969 215.178C174.145 214.814 174.399 214.495 174.733 214.22C175.073 213.938 175.486 213.719 175.973 213.561C176.459 213.396 177.013 213.314 177.634 213.314C178.489 213.314 179.228 213.446 179.849 213.71C180.47 213.968 180.947 214.331 181.281 214.8C181.621 215.263 181.791 215.799 181.791 216.408H178.829C178.829 216.168 178.788 215.963 178.706 215.793C178.63 215.623 178.504 215.494 178.328 215.406C178.152 215.312 177.918 215.266 177.625 215.266C177.42 215.266 177.232 215.304 177.062 215.38C176.898 215.456 176.767 215.562 176.667 215.696C176.567 215.831 176.518 215.989 176.518 216.171C176.518 216.3 176.547 216.417 176.605 216.522C176.67 216.622 176.767 216.716 176.896 216.804C177.024 216.886 177.188 216.962 177.388 217.032C177.587 217.097 177.827 217.155 178.108 217.208C178.747 217.325 179.345 217.492 179.901 217.709C180.458 217.926 180.909 218.233 181.255 218.632C181.606 219.03 181.782 219.566 181.782 220.24C181.782 220.662 181.686 221.052 181.492 221.409C181.299 221.761 181.021 222.071 180.657 222.341C180.294 222.604 179.857 222.81 179.348 222.956C178.838 223.103 178.264 223.176 177.625 223.176C176.717 223.176 175.949 223.015 175.322 222.692C174.695 222.364 174.221 221.954 173.898 221.462C173.582 220.964 173.424 220.46 173.424 219.95H176.184C176.195 220.243 176.266 220.483 176.395 220.671C176.529 220.858 176.708 220.996 176.931 221.084C177.153 221.172 177.411 221.216 177.704 221.216C177.974 221.216 178.196 221.178 178.372 221.102C178.554 221.025 178.691 220.923 178.785 220.794C178.879 220.659 178.926 220.504 178.926 220.328ZM187.188 220.891C187.463 220.891 187.697 220.841 187.891 220.741C188.09 220.636 188.239 220.489 188.339 220.302C188.444 220.108 188.494 219.877 188.488 219.607H191.274C191.28 220.322 191.104 220.949 190.747 221.488C190.396 222.021 189.915 222.438 189.306 222.736C188.702 223.029 188.02 223.176 187.258 223.176C186.514 223.176 185.863 223.056 185.307 222.815C184.75 222.569 184.284 222.229 183.909 221.796C183.54 221.356 183.262 220.844 183.074 220.258C182.893 219.672 182.802 219.036 182.802 218.351V218.148C182.802 217.463 182.893 216.827 183.074 216.241C183.262 215.649 183.54 215.137 183.909 214.703C184.284 214.264 184.747 213.924 185.298 213.684C185.854 213.438 186.502 213.314 187.24 213.314C188.031 213.314 188.729 213.464 189.332 213.763C189.941 214.062 190.419 214.495 190.765 215.063C191.11 215.632 191.28 216.32 191.274 217.129H188.488C188.494 216.842 188.45 216.584 188.356 216.355C188.263 216.127 188.116 215.945 187.917 215.811C187.724 215.67 187.475 215.6 187.17 215.6C186.865 215.6 186.619 215.667 186.432 215.802C186.244 215.937 186.101 216.124 186.001 216.364C185.907 216.599 185.843 216.868 185.808 217.173C185.778 217.478 185.764 217.803 185.764 218.148V218.351C185.764 218.702 185.778 219.033 185.808 219.344C185.843 219.648 185.91 219.918 186.01 220.152C186.109 220.381 186.253 220.562 186.44 220.697C186.628 220.826 186.877 220.891 187.188 220.891ZM195.528 215.846V223H192.566V213.49H195.335L195.528 215.846ZM198.341 213.42L198.288 216.171C198.171 216.159 198.013 216.145 197.813 216.127C197.614 216.109 197.447 216.101 197.312 216.101C196.967 216.101 196.668 216.142 196.416 216.224C196.17 216.3 195.965 216.417 195.801 216.575C195.643 216.728 195.525 216.921 195.449 217.155C195.379 217.39 195.347 217.662 195.353 217.973L194.816 217.621C194.816 216.982 194.878 216.402 195.001 215.881C195.13 215.354 195.312 214.899 195.546 214.519C195.78 214.132 196.064 213.836 196.398 213.631C196.732 213.42 197.107 213.314 197.523 213.314C197.67 213.314 197.813 213.323 197.954 213.341C198.101 213.358 198.229 213.385 198.341 213.42ZM202.489 213.49V223H199.519V213.49H202.489ZM199.343 211.038C199.343 210.616 199.495 210.271 199.8 210.001C200.104 209.731 200.5 209.597 200.986 209.597C201.473 209.597 201.868 209.731 202.173 210.001C202.478 210.271 202.63 210.616 202.63 211.038C202.63 211.46 202.478 211.806 202.173 212.075C201.868 212.345 201.473 212.479 200.986 212.479C200.5 212.479 200.104 212.345 199.8 212.075C199.495 211.806 199.343 211.46 199.343 211.038ZM207.306 215.318V226.656H204.344V213.49H207.104L207.306 215.318ZM213.142 218.131V218.315C213.142 219.007 213.062 219.648 212.904 220.24C212.746 220.832 212.512 221.348 212.201 221.787C211.891 222.227 211.504 222.569 211.041 222.815C210.584 223.056 210.054 223.176 209.45 223.176C208.882 223.176 208.393 223.05 207.982 222.798C207.572 222.546 207.229 222.197 206.954 221.752C206.679 221.307 206.456 220.797 206.286 220.223C206.116 219.648 205.981 219.042 205.882 218.403V218.166C205.981 217.48 206.116 216.845 206.286 216.259C206.456 215.667 206.679 215.151 206.954 214.712C207.229 214.272 207.569 213.93 207.974 213.684C208.384 213.438 208.873 213.314 209.441 213.314C210.045 213.314 210.575 213.429 211.032 213.657C211.495 213.886 211.882 214.214 212.192 214.642C212.509 215.063 212.746 215.57 212.904 216.162C213.062 216.754 213.142 217.41 213.142 218.131ZM210.18 218.315V218.131C210.18 217.762 210.153 217.425 210.101 217.12C210.048 216.81 209.963 216.54 209.846 216.312C209.734 216.083 209.585 215.907 209.397 215.784C209.21 215.661 208.979 215.6 208.703 215.6C208.387 215.6 208.12 215.649 207.903 215.749C207.692 215.843 207.522 215.989 207.394 216.188C207.271 216.382 207.183 216.625 207.13 216.918C207.083 217.205 207.062 217.542 207.068 217.929V218.649C207.057 219.095 207.101 219.487 207.2 219.827C207.3 220.161 207.473 220.422 207.719 220.609C207.965 220.797 208.299 220.891 208.721 220.891C209.002 220.891 209.236 220.826 209.424 220.697C209.611 220.562 209.761 220.378 209.872 220.144C209.983 219.903 210.062 219.628 210.109 219.317C210.156 219.007 210.18 218.673 210.18 218.315ZM219.47 213.49V215.547H213.739V213.49H219.47ZM214.943 211.126H217.905V219.897C217.905 220.149 217.935 220.346 217.993 220.486C218.052 220.621 218.151 220.718 218.292 220.776C218.438 220.829 218.632 220.855 218.872 220.855C219.042 220.855 219.183 220.853 219.294 220.847C219.405 220.835 219.511 220.82 219.61 220.803V222.921C219.358 223.003 219.095 223.064 218.819 223.105C218.544 223.152 218.251 223.176 217.94 223.176C217.308 223.176 216.766 223.076 216.314 222.877C215.869 222.678 215.529 222.364 215.295 221.937C215.061 221.509 214.943 220.952 214.943 220.267V211.126Z" fill="white"/>
<path d="M1066 0H1348C1356.28 0 1363 6.71573 1363 15V282C1363 290.284 1356.28 297 1348 297H1066V0Z" fill="white"/>
<circle opacity="0.8" cx="1214.52" cy="148.458" r="73.6" transform="rotate(90 1214.52 148.458)" fill="#611CE0"/>
<circle cx="1214.5" cy="148.5" r="57.3913" transform="rotate(90 1214.5 148.5)" fill="#611CE0"/>
<path d="M1221.29 70.8912C1221.47 68.8583 1223.26 67.346 1225.28 67.6156C1239.87 69.5602 1253.66 75.414 1265.19 84.5553C1266.79 85.823 1266.95 88.1641 1265.61 89.7041L1265.11 90.2855C1263.77 91.8255 1261.44 91.9806 1259.83 90.7209C1249.61 82.7009 1237.44 77.5355 1224.57 75.7538C1222.55 75.474 1221.05 73.6914 1221.22 71.6586L1221.29 70.8912Z" fill="#611CE0"/>
<path d="M1207.71 70.8912C1207.53 68.8583 1205.74 67.346 1203.72 67.6156C1189.13 69.5602 1175.34 75.414 1163.81 84.5553C1162.21 85.823 1162.05 88.1641 1163.39 89.7041L1163.9 90.2855C1165.23 91.8255 1167.56 91.9806 1169.17 90.7209C1179.39 82.7009 1191.56 77.5355 1204.43 75.7538C1206.45 75.474 1207.96 73.6914 1207.78 71.6586L1207.71 70.8912Z" fill="#611CE0"/>
<path d="M1221.29 226.109C1221.47 228.142 1223.26 229.654 1225.28 229.384C1239.87 227.44 1253.66 221.586 1265.19 212.445C1266.79 211.177 1266.95 208.836 1265.61 207.296L1265.11 206.714C1263.77 205.174 1261.44 205.019 1259.83 206.279C1249.61 214.299 1237.44 219.464 1224.57 221.246C1222.55 221.526 1221.05 223.308 1221.22 225.341L1221.29 226.109Z" fill="#611CE0"/>
<path d="M1207.71 226.109C1207.53 228.142 1205.74 229.654 1203.72 229.384C1189.13 227.44 1175.34 221.586 1163.81 212.445C1162.21 211.177 1162.05 208.836 1163.39 207.296L1163.9 206.714C1165.23 205.174 1167.56 205.019 1169.17 206.279C1179.39 214.299 1191.56 219.464 1204.43 221.246C1206.45 221.526 1207.96 223.308 1207.78 225.341L1207.71 226.109Z" fill="#611CE0"/>
<path d="M1274.18 98.4234C1275.74 97.1117 1278.08 97.3109 1279.32 98.9318C1288.26 110.62 1293.87 124.511 1295.56 139.129C1295.79 141.156 1294.25 142.923 1292.22 143.065L1291.45 143.119C1289.41 143.262 1287.66 141.725 1287.41 139.699C1285.85 126.8 1280.9 114.543 1273.06 104.183C1271.83 102.556 1272.03 100.23 1273.59 98.9186L1274.18 98.4234Z" fill="#611CE0"/>
<path d="M1154.82 98.4234C1153.26 97.1117 1150.92 97.3109 1149.68 98.9318C1140.74 110.62 1135.13 124.511 1133.44 139.129C1133.21 141.156 1134.75 142.923 1136.79 143.065L1137.55 143.119C1139.59 143.262 1141.35 141.725 1141.59 139.699C1143.15 126.8 1148.1 114.543 1155.94 104.183C1157.17 102.556 1156.98 100.23 1155.41 98.9186L1154.82 98.4234Z" fill="#611CE0"/>
<path d="M1274.18 198.576C1275.74 199.888 1278.08 199.689 1279.32 198.068C1288.26 186.379 1293.87 172.489 1295.56 157.871C1295.79 155.844 1294.25 154.077 1292.22 153.934L1291.45 153.881C1289.41 153.738 1287.66 155.275 1287.41 157.301C1285.85 170.2 1280.9 182.457 1273.06 192.817C1271.83 194.444 1272.03 196.77 1273.59 198.081L1274.18 198.576Z" fill="#611CE0"/>
<path d="M1154.82 198.576C1153.26 199.888 1150.92 199.689 1149.68 198.068C1140.74 186.379 1135.13 172.489 1133.44 157.871C1133.21 155.844 1134.75 154.077 1136.79 153.934L1137.55 153.881C1139.59 153.738 1141.35 155.275 1141.59 157.301C1143.15 170.2 1148.1 182.457 1155.94 192.817C1157.17 194.444 1156.98 196.77 1155.41 198.081L1154.82 198.576Z" fill="#611CE0"/>
<path d="M1211.48 232.38C1211.48 230.723 1212.82 229.38 1214.48 229.38C1216.13 229.38 1217.48 230.723 1217.48 232.38L1214.48 232.38L1211.48 232.38ZM1216.6 266.781C1215.43 267.953 1213.53 267.953 1212.36 266.781L1193.26 247.689C1192.09 246.518 1192.09 244.618 1193.26 243.447C1194.44 242.275 1196.33 242.275 1197.51 243.447L1214.48 260.417L1231.45 243.447C1232.62 242.275 1234.52 242.275 1235.69 243.447C1236.86 244.618 1236.86 246.518 1235.69 247.689L1216.6 266.781ZM1214.48 232.38L1217.48 232.38L1217.48 264.66L1214.48 264.66L1211.48 264.66L1211.48 232.38L1214.48 232.38Z" fill="#611CE0"/>
<path d="M1211.48 64.3799C1211.48 66.0367 1212.82 67.3799 1214.48 67.3799C1216.13 67.3799 1217.48 66.0367 1217.48 64.3799L1214.48 64.3799L1211.48 64.3799ZM1216.6 29.9786C1215.43 28.807 1213.53 28.807 1212.36 29.9786L1193.26 49.0704C1192.09 50.242 1192.09 52.1415 1193.26 53.3131C1194.44 54.4847 1196.33 54.4847 1197.51 53.3131L1214.48 36.3425L1231.45 53.3131C1232.62 54.4847 1234.52 54.4847 1235.69 53.3131C1236.86 52.1415 1236.86 50.242 1235.69 49.0704L1216.6 29.9786ZM1214.48 64.3799L1217.48 64.3799L1217.48 32.0999L1214.48 32.0999L1211.48 32.0999L1211.48 64.3799L1214.48 64.3799Z" fill="#611CE0"/>
<path d="M1130.38 151.477C1132.04 151.477 1133.38 150.134 1133.38 148.477C1133.38 146.82 1132.04 145.477 1130.38 145.477L1130.38 148.477L1130.38 151.477ZM1095.98 146.356C1094.81 147.527 1094.81 149.427 1095.98 150.598L1115.07 169.69C1116.24 170.862 1118.14 170.862 1119.31 169.69C1120.48 168.518 1120.48 166.619 1119.31 165.447L1102.34 148.477L1119.31 131.506C1120.48 130.335 1120.48 128.435 1119.31 127.264C1118.14 126.092 1116.24 126.092 1115.07 127.264L1095.98 146.356ZM1130.38 148.477L1130.38 145.477L1098.1 145.477L1098.1 148.477L1098.1 151.477L1130.38 151.477L1130.38 148.477Z" fill="#611CE0"/>
<path d="M1298.62 151.477C1296.96 151.477 1295.62 150.134 1295.62 148.477C1295.62 146.82 1296.96 145.477 1298.62 145.477L1298.62 148.477L1298.62 151.477ZM1333.02 146.356C1334.19 147.527 1334.19 149.427 1333.02 150.598L1313.93 169.69C1312.76 170.862 1310.86 170.862 1309.69 169.69C1308.52 168.518 1308.52 166.619 1309.69 165.447L1326.66 148.477L1309.69 131.506C1308.52 130.335 1308.52 128.435 1309.69 127.264C1310.86 126.092 1312.76 126.092 1313.93 127.264L1333.02 146.356ZM1298.62 148.477L1298.62 145.477L1330.9 145.477L1330.9 148.477L1330.9 151.477L1298.62 151.477L1298.62 148.477Z" fill="#611CE0"/>
<path d="M1154.57 211.076C1155.74 209.904 1155.74 208.005 1154.57 206.833C1153.39 205.662 1151.5 205.662 1150.32 206.833L1152.44 208.955L1154.57 211.076ZM1126.62 231.78C1126.62 233.437 1127.96 234.78 1129.62 234.78L1156.62 234.78C1158.28 234.78 1159.62 233.437 1159.62 231.78C1159.62 230.123 1158.28 228.78 1156.62 228.78H1132.62V204.78C1132.62 203.123 1131.28 201.78 1129.62 201.78C1127.96 201.78 1126.62 203.123 1126.62 204.78V231.78ZM1152.44 208.955L1150.32 206.833L1127.5 229.659L1129.62 231.78L1131.74 233.901L1154.57 211.076L1152.44 208.955Z" fill="#611CE0"/>
<path d="M1154.57 85.9238C1155.74 87.0954 1155.74 88.9949 1154.57 90.1665C1153.39 91.3381 1151.5 91.3381 1150.32 90.1665L1152.44 88.0452L1154.57 85.9238ZM1126.62 65.2198C1126.62 63.5629 1127.96 62.2198 1129.62 62.2198H1156.62C1158.28 62.2198 1159.62 63.5629 1159.62 65.2198C1159.62 66.8766 1158.28 68.2198 1156.62 68.2198H1132.62V92.2198C1132.62 93.8766 1131.28 95.2197 1129.62 95.2197C1127.96 95.2197 1126.62 93.8766 1126.62 92.2198V65.2198ZM1152.44 88.0452L1150.32 90.1665L1127.5 67.3411L1129.62 65.2198L1131.74 63.0985L1154.57 85.9238L1152.44 88.0452Z" fill="#611CE0"/>
<path d="M1274.39 211.076C1273.22 209.904 1273.22 208.005 1274.39 206.833C1275.56 205.662 1277.46 205.662 1278.63 206.833L1276.51 208.955L1274.39 211.076ZM1302.33 231.78C1302.33 233.437 1300.99 234.78 1299.33 234.78L1272.33 234.78C1270.68 234.78 1269.33 233.437 1269.33 231.78C1269.33 230.123 1270.68 228.78 1272.33 228.78H1296.33V204.78C1296.33 203.123 1297.68 201.78 1299.33 201.78C1300.99 201.78 1302.33 203.123 1302.33 204.78V231.78ZM1276.51 208.955L1278.63 206.833L1301.46 229.659L1299.33 231.78L1297.21 233.901L1274.39 211.076L1276.51 208.955Z" fill="#611CE0"/>
<path d="M1274.39 85.9238C1273.22 87.0954 1273.22 88.9949 1274.39 90.1665C1275.56 91.3381 1277.46 91.3381 1278.63 90.1665L1276.51 88.0452L1274.39 85.9238ZM1302.33 65.2198C1302.33 63.5629 1300.99 62.2198 1299.33 62.2198H1272.33C1270.68 62.2198 1269.33 63.5629 1269.33 65.2198C1269.33 66.8766 1270.68 68.2198 1272.33 68.2198H1296.33V92.2198C1296.33 93.8766 1297.68 95.2197 1299.33 95.2197C1300.99 95.2197 1302.33 93.8766 1302.33 92.2198V65.2198ZM1276.51 88.0452L1278.63 90.1665L1301.46 67.3411L1299.33 65.2198L1297.21 63.0985L1274.39 85.9238L1276.51 88.0452Z" fill="#611CE0"/>
</svg>
