<svg width="1363" height="297" viewBox="0 0 1363 297" fill="none" xmlns="http://www.w3.org/2000/svg">
<path d="M0 15C0 6.71573 6.71573 0 15 0H37V297H15C6.71573 297 0 290.284 0 282V15Z" fill="#601BDE"/>
<path d="M37 0H1066V297H37V0Z" fill="#F0F0F0"/>
<path d="M105.691 53.7832L98.7305 75H93.123L102.633 49.4062H106.201L105.691 53.7832ZM111.475 75L104.496 53.7832L103.934 49.4062H107.537L117.1 75H111.475ZM111.158 65.4727V69.6035H97.6406V65.4727H111.158ZM119.156 48H124.219V70.6406L123.709 75H119.156V48ZM136.26 65.2969V65.666C136.26 67.084 136.107 68.3848 135.803 69.5684C135.51 70.752 135.053 71.7773 134.432 72.6445C133.811 73.5 133.037 74.168 132.111 74.6484C131.197 75.1172 130.119 75.3516 128.877 75.3516C127.717 75.3516 126.709 75.1172 125.854 74.6484C125.01 74.1797 124.301 73.5176 123.727 72.6621C123.152 71.8066 122.689 70.8047 122.338 69.6562C121.986 68.5078 121.723 67.2539 121.547 65.8945V65.0859C121.723 63.7266 121.986 62.4727 122.338 61.3242C122.689 60.1758 123.152 59.1738 123.727 58.3184C124.301 57.4629 125.01 56.8008 125.854 56.332C126.697 55.8633 127.693 55.6289 128.842 55.6289C130.096 55.6289 131.186 55.8691 132.111 56.3496C133.049 56.8184 133.822 57.4863 134.432 58.3535C135.053 59.209 135.51 60.2285 135.803 61.4121C136.107 62.584 136.26 63.8789 136.26 65.2969ZM131.197 65.666V65.2969C131.197 64.5234 131.139 63.7969 131.021 63.1172C130.916 62.4258 130.729 61.8223 130.459 61.3066C130.189 60.7793 129.82 60.3633 129.352 60.0586C128.895 59.7539 128.303 59.6016 127.576 59.6016C126.885 59.6016 126.299 59.7188 125.818 59.9531C125.338 60.1875 124.939 60.5156 124.623 60.9375C124.318 61.3594 124.09 61.8633 123.938 62.4492C123.785 63.0234 123.691 63.6562 123.656 64.3477V66.6504C123.691 67.5762 123.844 68.3965 124.113 69.1113C124.395 69.8145 124.816 70.3711 125.379 70.7812C125.953 71.1797 126.697 71.3789 127.611 71.3789C128.326 71.3789 128.918 71.2383 129.387 70.957C129.855 70.6758 130.219 70.2773 130.477 69.7617C130.746 69.2461 130.934 68.6426 131.039 67.9512C131.145 67.248 131.197 66.4863 131.197 65.666ZM150.639 70.8516V48H155.736V75H151.148L150.639 70.8516ZM138.615 65.7188V65.3496C138.615 63.8965 138.779 62.5781 139.107 61.3945C139.436 60.1992 139.916 59.1738 140.549 58.3184C141.182 57.4629 141.961 56.8008 142.887 56.332C143.812 55.8633 144.867 55.6289 146.051 55.6289C147.164 55.6289 148.137 55.8633 148.969 56.332C149.812 56.8008 150.527 57.4688 151.113 58.3359C151.711 59.1914 152.191 60.2051 152.555 61.377C152.918 62.5371 153.182 63.8086 153.346 65.1914V66C153.182 67.3242 152.918 68.5547 152.555 69.6914C152.191 70.8281 151.711 71.8242 151.113 72.6797C150.527 73.5234 149.812 74.1797 148.969 74.6484C148.125 75.1172 147.141 75.3516 146.016 75.3516C144.832 75.3516 143.777 75.1113 142.852 74.6309C141.938 74.1504 141.164 73.4766 140.531 72.6094C139.91 71.7422 139.436 70.7227 139.107 69.5508C138.779 68.3789 138.615 67.1016 138.615 65.7188ZM143.678 65.3496V65.7188C143.678 66.5039 143.736 67.2363 143.854 67.916C143.982 68.5957 144.188 69.1992 144.469 69.7266C144.762 70.2422 145.137 70.6465 145.594 70.9395C146.062 71.2207 146.631 71.3613 147.299 71.3613C148.166 71.3613 148.881 71.168 149.443 70.7812C150.006 70.3828 150.434 69.8379 150.727 69.1465C151.031 68.4551 151.207 67.6582 151.254 66.7559V64.4531C151.219 63.7148 151.113 63.0527 150.938 62.4668C150.773 61.8691 150.527 61.3594 150.199 60.9375C149.883 60.5156 149.484 60.1875 149.004 59.9531C148.535 59.7188 147.979 59.6016 147.334 59.6016C146.678 59.6016 146.115 59.7539 145.646 60.0586C145.178 60.3516 144.797 60.7559 144.504 61.2715C144.223 61.7871 144.012 62.3965 143.871 63.0996C143.742 63.791 143.678 64.541 143.678 65.3496ZM170.941 70.4473V55.9805H176.004V75H171.24L170.941 70.4473ZM171.504 66.5449L172.998 66.5098C172.998 67.7754 172.852 68.9531 172.559 70.043C172.266 71.1211 171.826 72.0586 171.24 72.8555C170.654 73.6406 169.916 74.2559 169.025 74.7012C168.135 75.1348 167.086 75.3516 165.879 75.3516C164.953 75.3516 164.098 75.2227 163.312 74.9648C162.539 74.6953 161.871 74.2793 161.309 73.7168C160.758 73.1426 160.324 72.4102 160.008 71.5195C159.703 70.6172 159.551 69.5332 159.551 68.2676V55.9805H164.613V68.3027C164.613 68.8652 164.678 69.3398 164.807 69.7266C164.947 70.1133 165.141 70.4297 165.387 70.6758C165.633 70.9219 165.92 71.0977 166.248 71.2031C166.588 71.3086 166.963 71.3613 167.373 71.3613C168.416 71.3613 169.236 71.1504 169.834 70.7285C170.443 70.3066 170.871 69.7324 171.117 69.0059C171.375 68.2676 171.504 67.4473 171.504 66.5449ZM185.215 48V75H180.135V48H185.215ZM194.742 48V75H189.662V48H194.742ZM209.191 70.7109V62.2383C209.191 61.6289 209.092 61.1074 208.893 60.6738C208.693 60.2285 208.383 59.8828 207.961 59.6367C207.551 59.3906 207.018 59.2676 206.361 59.2676C205.799 59.2676 205.312 59.3672 204.902 59.5664C204.492 59.7539 204.176 60.0293 203.953 60.3926C203.73 60.7441 203.619 61.1602 203.619 61.6406H198.557C198.557 60.832 198.744 60.0645 199.119 59.3379C199.494 58.6113 200.039 57.9727 200.754 57.4219C201.469 56.8594 202.318 56.4199 203.303 56.1035C204.299 55.7871 205.412 55.6289 206.643 55.6289C208.119 55.6289 209.432 55.875 210.58 56.3672C211.729 56.8594 212.631 57.5977 213.287 58.582C213.955 59.5664 214.289 60.7969 214.289 62.2734V70.4121C214.289 71.4551 214.354 72.3105 214.482 72.9785C214.611 73.6348 214.799 74.209 215.045 74.7012V75H209.93C209.684 74.4844 209.496 73.8398 209.367 73.0664C209.25 72.2812 209.191 71.4961 209.191 70.7109ZM209.859 63.416L209.895 66.2812H207.064C206.396 66.2812 205.816 66.3574 205.324 66.5098C204.832 66.6621 204.428 66.8789 204.111 67.1602C203.795 67.4297 203.561 67.7461 203.408 68.1094C203.268 68.4727 203.197 68.8711 203.197 69.3047C203.197 69.7383 203.297 70.1309 203.496 70.4824C203.695 70.8223 203.982 71.0918 204.357 71.291C204.732 71.4785 205.172 71.5723 205.676 71.5723C206.438 71.5723 207.1 71.4199 207.662 71.1152C208.225 70.8105 208.658 70.4355 208.963 69.9902C209.279 69.5449 209.443 69.123 209.455 68.7246L210.791 70.8691C210.604 71.3496 210.346 71.8477 210.018 72.3633C209.701 72.8789 209.297 73.3652 208.805 73.8223C208.312 74.2676 207.721 74.6367 207.029 74.9297C206.338 75.2109 205.518 75.3516 204.568 75.3516C203.361 75.3516 202.266 75.1113 201.281 74.6309C200.309 74.1387 199.535 73.4648 198.961 72.6094C198.398 71.7422 198.117 70.7578 198.117 69.6562C198.117 68.6602 198.305 67.7754 198.68 67.002C199.055 66.2285 199.605 65.5781 200.332 65.0508C201.07 64.5117 201.99 64.1074 203.092 63.8379C204.193 63.5566 205.471 63.416 206.924 63.416H209.859ZM223.131 48V75H218.068V48H223.131ZM222.41 64.8223H221.021C221.033 63.498 221.209 62.2793 221.549 61.166C221.889 60.041 222.375 59.0684 223.008 58.248C223.641 57.416 224.396 56.7715 225.275 56.3145C226.166 55.8574 227.15 55.6289 228.229 55.6289C229.166 55.6289 230.016 55.7637 230.777 56.0332C231.551 56.291 232.213 56.7129 232.764 57.2988C233.326 57.873 233.76 58.6289 234.064 59.5664C234.369 60.5039 234.521 61.6406 234.521 62.9766V75H229.424V62.9414C229.424 62.0977 229.301 61.4355 229.055 60.9551C228.82 60.4629 228.475 60.1172 228.018 59.918C227.572 59.707 227.021 59.6016 226.365 59.6016C225.639 59.6016 225.018 59.7363 224.502 60.0059C223.998 60.2754 223.594 60.6504 223.289 61.1309C222.984 61.5996 222.762 62.1504 222.621 62.7832C222.48 63.416 222.41 64.0957 222.41 64.8223ZM266.162 70.8867V75H248.021V70.8867H266.162ZM265.898 52.3418L250.359 75H246.65V71.9766L262.312 49.4062H265.898V52.3418ZM264.088 49.4062V53.5371H246.668V49.4062H264.088ZM277.57 75.3516C276.094 75.3516 274.77 75.1172 273.598 74.6484C272.426 74.168 271.43 73.5059 270.609 72.6621C269.801 71.8184 269.18 70.8398 268.746 69.7266C268.312 68.6016 268.096 67.4062 268.096 66.1406V65.4375C268.096 63.9961 268.301 62.6777 268.711 61.4824C269.121 60.2871 269.707 59.25 270.469 58.3711C271.242 57.4922 272.18 56.8184 273.281 56.3496C274.383 55.8691 275.625 55.6289 277.008 55.6289C278.355 55.6289 279.551 55.8516 280.594 56.2969C281.637 56.7422 282.51 57.375 283.213 58.1953C283.928 59.0156 284.467 60 284.83 61.1484C285.193 62.2852 285.375 63.5508 285.375 64.9453V67.0547H270.258V63.6797H280.4V63.293C280.4 62.5898 280.271 61.9629 280.014 61.4121C279.768 60.8496 279.393 60.4043 278.889 60.0762C278.385 59.748 277.74 59.584 276.955 59.584C276.287 59.584 275.713 59.7305 275.232 60.0234C274.752 60.3164 274.359 60.7266 274.055 61.2539C273.762 61.7812 273.539 62.4023 273.387 63.1172C273.246 63.8203 273.176 64.5938 273.176 65.4375V66.1406C273.176 66.9023 273.281 67.6055 273.492 68.25C273.715 68.8945 274.025 69.4512 274.424 69.9199C274.834 70.3887 275.326 70.752 275.9 71.0098C276.486 71.2676 277.148 71.3965 277.887 71.3965C278.801 71.3965 279.65 71.2207 280.436 70.8691C281.232 70.5059 281.918 69.9609 282.492 69.2344L284.953 71.9062C284.555 72.4805 284.01 73.0312 283.318 73.5586C282.639 74.0859 281.818 74.5195 280.857 74.8594C279.896 75.1875 278.801 75.3516 277.57 75.3516ZM293.602 55.9805V75H288.521V55.9805H293.602ZM288.205 51.0234C288.205 50.2852 288.463 49.6758 288.979 49.1953C289.494 48.7148 290.186 48.4746 291.053 48.4746C291.908 48.4746 292.594 48.7148 293.109 49.1953C293.637 49.6758 293.9 50.2852 293.9 51.0234C293.9 51.7617 293.637 52.3711 293.109 52.8516C292.594 53.332 291.908 53.5723 291.053 53.5723C290.186 53.5723 289.494 53.332 288.979 52.8516C288.463 52.3711 288.205 51.7617 288.205 51.0234ZM309.018 70.8516V48H314.115V75H309.527L309.018 70.8516ZM296.994 65.7188V65.3496C296.994 63.8965 297.158 62.5781 297.486 61.3945C297.814 60.1992 298.295 59.1738 298.928 58.3184C299.561 57.4629 300.34 56.8008 301.266 56.332C302.191 55.8633 303.246 55.6289 304.43 55.6289C305.543 55.6289 306.516 55.8633 307.348 56.332C308.191 56.8008 308.906 57.4688 309.492 58.3359C310.09 59.1914 310.57 60.2051 310.934 61.377C311.297 62.5371 311.561 63.8086 311.725 65.1914V66C311.561 67.3242 311.297 68.5547 310.934 69.6914C310.57 70.8281 310.09 71.8242 309.492 72.6797C308.906 73.5234 308.191 74.1797 307.348 74.6484C306.504 75.1172 305.52 75.3516 304.395 75.3516C303.211 75.3516 302.156 75.1113 301.23 74.6309C300.316 74.1504 299.543 73.4766 298.91 72.6094C298.289 71.7422 297.814 70.7227 297.486 69.5508C297.158 68.3789 296.994 67.1016 296.994 65.7188ZM302.057 65.3496V65.7188C302.057 66.5039 302.115 67.2363 302.232 67.916C302.361 68.5957 302.566 69.1992 302.848 69.7266C303.141 70.2422 303.516 70.6465 303.973 70.9395C304.441 71.2207 305.01 71.3613 305.678 71.3613C306.545 71.3613 307.26 71.168 307.822 70.7812C308.385 70.3828 308.812 69.8379 309.105 69.1465C309.41 68.4551 309.586 67.6582 309.633 66.7559V64.4531C309.598 63.7148 309.492 63.0527 309.316 62.4668C309.152 61.8691 308.906 61.3594 308.578 60.9375C308.262 60.5156 307.863 60.1875 307.383 59.9531C306.914 59.7188 306.357 59.6016 305.713 59.6016C305.057 59.6016 304.494 59.7539 304.025 60.0586C303.557 60.3516 303.176 60.7559 302.883 61.2715C302.602 61.7871 302.391 62.3965 302.25 63.0996C302.121 63.791 302.057 64.541 302.057 65.3496ZM328.336 70.7109V62.2383C328.336 61.6289 328.236 61.1074 328.037 60.6738C327.838 60.2285 327.527 59.8828 327.105 59.6367C326.695 59.3906 326.162 59.2676 325.506 59.2676C324.943 59.2676 324.457 59.3672 324.047 59.5664C323.637 59.7539 323.32 60.0293 323.098 60.3926C322.875 60.7441 322.764 61.1602 322.764 61.6406H317.701C317.701 60.832 317.889 60.0645 318.264 59.3379C318.639 58.6113 319.184 57.9727 319.898 57.4219C320.613 56.8594 321.463 56.4199 322.447 56.1035C323.443 55.7871 324.557 55.6289 325.787 55.6289C327.264 55.6289 328.576 55.875 329.725 56.3672C330.873 56.8594 331.775 57.5977 332.432 58.582C333.1 59.5664 333.434 60.7969 333.434 62.2734V70.4121C333.434 71.4551 333.498 72.3105 333.627 72.9785C333.756 73.6348 333.943 74.209 334.189 74.7012V75H329.074C328.828 74.4844 328.641 73.8398 328.512 73.0664C328.395 72.2812 328.336 71.4961 328.336 70.7109ZM329.004 63.416L329.039 66.2812H326.209C325.541 66.2812 324.961 66.3574 324.469 66.5098C323.977 66.6621 323.572 66.8789 323.256 67.1602C322.939 67.4297 322.705 67.7461 322.553 68.1094C322.412 68.4727 322.342 68.8711 322.342 69.3047C322.342 69.7383 322.441 70.1309 322.641 70.4824C322.84 70.8223 323.127 71.0918 323.502 71.291C323.877 71.4785 324.316 71.5723 324.82 71.5723C325.582 71.5723 326.244 71.4199 326.807 71.1152C327.369 70.8105 327.803 70.4355 328.107 69.9902C328.424 69.5449 328.588 69.123 328.6 68.7246L329.936 70.8691C329.748 71.3496 329.49 71.8477 329.162 72.3633C328.846 72.8789 328.441 73.3652 327.949 73.8223C327.457 74.2676 326.865 74.6367 326.174 74.9297C325.482 75.2109 324.662 75.3516 323.713 75.3516C322.506 75.3516 321.41 75.1113 320.426 74.6309C319.453 74.1387 318.68 73.4648 318.105 72.6094C317.543 71.7422 317.262 70.7578 317.262 69.6562C317.262 68.6602 317.449 67.7754 317.824 67.002C318.199 66.2285 318.75 65.5781 319.477 65.0508C320.215 64.5117 321.135 64.1074 322.236 63.8379C323.338 63.5566 324.615 63.416 326.068 63.416H329.004ZM342.293 60.041V75H337.23V55.9805H341.977L342.293 60.041ZM341.555 64.8223H340.184C340.184 63.416 340.365 62.1504 340.729 61.0254C341.092 59.8887 341.602 58.9219 342.258 58.125C342.914 57.3164 343.693 56.7012 344.596 56.2793C345.51 55.8457 346.529 55.6289 347.654 55.6289C348.545 55.6289 349.359 55.7578 350.098 56.0156C350.836 56.2734 351.469 56.6836 351.996 57.2461C352.535 57.8086 352.945 58.5527 353.227 59.4785C353.52 60.4043 353.666 61.5352 353.666 62.8711V75H348.568V62.8535C348.568 62.0098 348.451 61.3535 348.217 60.8848C347.982 60.416 347.637 60.0879 347.18 59.9004C346.734 59.7012 346.184 59.6016 345.527 59.6016C344.848 59.6016 344.256 59.7363 343.752 60.0059C343.26 60.2754 342.85 60.6504 342.521 61.1309C342.205 61.5996 341.965 62.1504 341.801 62.7832C341.637 63.416 341.555 64.0957 341.555 64.8223Z" fill="#888888"/>
<path d="M116.543 129.418C116.543 128.798 116.452 128.242 116.27 127.75C116.087 127.24 115.75 126.766 115.258 126.328C114.766 125.891 114.055 125.453 113.125 125.016C112.214 124.56 111.01 124.086 109.516 123.594C107.766 123.01 106.079 122.354 104.457 121.625C102.835 120.878 101.385 120.012 100.109 119.027C98.8333 118.025 97.8216 116.858 97.0742 115.527C96.3268 114.178 95.9531 112.611 95.9531 110.824C95.9531 109.111 96.3359 107.57 97.1016 106.203C97.8672 104.818 98.9336 103.642 100.301 102.676C101.686 101.691 103.309 100.944 105.168 100.434C107.027 99.9049 109.06 99.6406 111.266 99.6406C114.182 99.6406 116.753 100.151 118.977 101.172C121.219 102.174 122.969 103.605 124.227 105.465C125.503 107.306 126.141 109.484 126.141 112H116.598C116.598 110.997 116.388 110.113 115.969 109.348C115.568 108.582 114.957 107.98 114.137 107.543C113.316 107.105 112.286 106.887 111.047 106.887C109.844 106.887 108.832 107.069 108.012 107.434C107.191 107.798 106.572 108.29 106.152 108.91C105.733 109.512 105.523 110.177 105.523 110.906C105.523 111.508 105.688 112.055 106.016 112.547C106.362 113.021 106.845 113.467 107.465 113.887C108.103 114.306 108.868 114.707 109.762 115.09C110.673 115.473 111.694 115.846 112.824 116.211C114.939 116.885 116.816 117.642 118.457 118.48C120.116 119.301 121.51 120.24 122.641 121.297C123.789 122.336 124.655 123.521 125.238 124.852C125.84 126.182 126.141 127.686 126.141 129.363C126.141 131.15 125.794 132.736 125.102 134.121C124.409 135.507 123.415 136.682 122.121 137.648C120.827 138.596 119.277 139.316 117.473 139.809C115.668 140.301 113.654 140.547 111.43 140.547C109.388 140.547 107.374 140.292 105.387 139.781C103.418 139.253 101.632 138.451 100.027 137.375C98.4232 136.281 97.138 134.887 96.1719 133.191C95.224 131.478 94.75 129.445 94.75 127.094H104.375C104.375 128.26 104.53 129.245 104.84 130.047C105.15 130.849 105.605 131.496 106.207 131.988C106.809 132.462 107.547 132.809 108.422 133.027C109.297 133.228 110.299 133.328 111.43 133.328C112.651 133.328 113.635 133.155 114.383 132.809C115.13 132.444 115.677 131.97 116.023 131.387C116.37 130.785 116.543 130.129 116.543 129.418ZM129.504 125.508V124.934C129.504 122.764 129.814 120.768 130.434 118.945C131.053 117.104 131.965 115.509 133.168 114.16C134.371 112.811 135.857 111.763 137.625 111.016C139.393 110.25 141.435 109.867 143.75 109.867C146.083 109.867 148.134 110.25 149.902 111.016C151.689 111.763 153.184 112.811 154.387 114.16C155.59 115.509 156.501 117.104 157.121 118.945C157.741 120.768 158.051 122.764 158.051 124.934V125.508C158.051 127.659 157.741 129.655 157.121 131.496C156.501 133.319 155.59 134.914 154.387 136.281C153.184 137.63 151.698 138.678 149.93 139.426C148.161 140.173 146.12 140.547 143.805 140.547C141.49 140.547 139.439 140.173 137.652 139.426C135.866 138.678 134.371 137.63 133.168 136.281C131.965 134.914 131.053 133.319 130.434 131.496C129.814 129.655 129.504 127.659 129.504 125.508ZM138.719 124.934V125.508C138.719 126.62 138.801 127.659 138.965 128.625C139.129 129.591 139.402 130.439 139.785 131.168C140.168 131.879 140.688 132.435 141.344 132.836C142 133.237 142.82 133.438 143.805 133.438C144.771 133.438 145.573 133.237 146.211 132.836C146.867 132.435 147.387 131.879 147.77 131.168C148.152 130.439 148.426 129.591 148.59 128.625C148.754 127.659 148.836 126.62 148.836 125.508V124.934C148.836 123.858 148.754 122.846 148.59 121.898C148.426 120.932 148.152 120.085 147.77 119.355C147.387 118.608 146.867 118.025 146.211 117.605C145.555 117.186 144.734 116.977 143.75 116.977C142.784 116.977 141.973 117.186 141.316 117.605C140.678 118.025 140.168 118.608 139.785 119.355C139.402 120.085 139.129 120.932 138.965 121.898C138.801 122.846 138.719 123.858 138.719 124.934ZM179.434 132.809V110.414H188.676V140H180.035L179.434 132.809ZM180.309 126.793L182.715 126.738C182.715 128.725 182.478 130.566 182.004 132.262C181.53 133.939 180.828 135.397 179.898 136.637C178.987 137.876 177.857 138.842 176.508 139.535C175.177 140.21 173.637 140.547 171.887 140.547C170.428 140.547 169.089 140.346 167.867 139.945C166.664 139.526 165.625 138.879 164.75 138.004C163.875 137.111 163.191 135.971 162.699 134.586C162.225 133.182 161.988 131.505 161.988 129.555V110.414H171.203V129.609C171.203 130.266 171.285 130.831 171.449 131.305C171.613 131.779 171.85 132.18 172.16 132.508C172.47 132.818 172.853 133.055 173.309 133.219C173.783 133.365 174.32 133.438 174.922 133.438C176.307 133.438 177.392 133.146 178.176 132.562C178.96 131.979 179.507 131.186 179.816 130.184C180.145 129.181 180.309 128.051 180.309 126.793ZM203.059 117.742V140H193.844V110.414H202.457L203.059 117.742ZM211.809 110.195L211.645 118.754C211.28 118.717 210.788 118.672 210.168 118.617C209.548 118.562 209.029 118.535 208.609 118.535C207.534 118.535 206.604 118.663 205.82 118.918C205.055 119.155 204.417 119.52 203.906 120.012C203.414 120.486 203.049 121.087 202.812 121.816C202.594 122.546 202.493 123.393 202.512 124.359L200.844 123.266C200.844 121.279 201.035 119.474 201.418 117.852C201.819 116.211 202.384 114.798 203.113 113.613C203.842 112.41 204.727 111.49 205.766 110.852C206.805 110.195 207.971 109.867 209.266 109.867C209.721 109.867 210.168 109.895 210.605 109.949C211.061 110.004 211.462 110.086 211.809 110.195ZM226.93 133.438C227.786 133.438 228.516 133.283 229.117 132.973C229.737 132.645 230.202 132.189 230.512 131.605C230.84 131.004 230.995 130.284 230.977 129.445H239.645C239.663 131.669 239.116 133.62 238.004 135.297C236.91 136.956 235.415 138.25 233.52 139.18C231.642 140.091 229.518 140.547 227.148 140.547C224.833 140.547 222.81 140.173 221.078 139.426C219.346 138.66 217.897 137.603 216.73 136.254C215.582 134.887 214.716 133.292 214.133 131.469C213.568 129.646 213.285 127.668 213.285 125.535V124.906C213.285 122.773 213.568 120.796 214.133 118.973C214.716 117.132 215.582 115.536 216.73 114.188C217.897 112.82 219.337 111.763 221.051 111.016C222.783 110.25 224.797 109.867 227.094 109.867C229.555 109.867 231.724 110.332 233.602 111.262C235.497 112.191 236.983 113.54 238.059 115.309C239.134 117.077 239.663 119.219 239.645 121.734H230.977C230.995 120.841 230.858 120.039 230.566 119.328C230.275 118.617 229.819 118.052 229.199 117.633C228.598 117.195 227.823 116.977 226.875 116.977C225.927 116.977 225.161 117.186 224.578 117.605C223.995 118.025 223.548 118.608 223.238 119.355C222.947 120.085 222.746 120.923 222.637 121.871C222.546 122.819 222.5 123.831 222.5 124.906V125.535C222.5 126.629 222.546 127.659 222.637 128.625C222.746 129.573 222.956 130.411 223.266 131.141C223.576 131.852 224.022 132.417 224.605 132.836C225.189 133.237 225.964 133.438 226.93 133.438ZM257.91 140.547C255.504 140.547 253.353 140.173 251.457 139.426C249.561 138.66 247.957 137.612 246.645 136.281C245.35 134.951 244.357 133.419 243.664 131.688C242.99 129.956 242.652 128.124 242.652 126.191V125.152C242.652 122.983 242.953 120.978 243.555 119.137C244.156 117.277 245.049 115.655 246.234 114.27C247.419 112.884 248.905 111.809 250.691 111.043C252.478 110.259 254.556 109.867 256.926 109.867C259.022 109.867 260.9 110.204 262.559 110.879C264.217 111.553 265.621 112.52 266.77 113.777C267.936 115.035 268.82 116.557 269.422 118.344C270.042 120.13 270.352 122.135 270.352 124.359V128.105H246.18V122.336H261.355V121.625C261.374 120.641 261.201 119.802 260.836 119.109C260.49 118.417 259.979 117.888 259.305 117.523C258.63 117.159 257.81 116.977 256.844 116.977C255.841 116.977 255.012 117.195 254.355 117.633C253.717 118.07 253.216 118.672 252.852 119.438C252.505 120.185 252.259 121.051 252.113 122.035C251.967 123.02 251.895 124.059 251.895 125.152V126.191C251.895 127.285 252.04 128.279 252.332 129.172C252.642 130.065 253.079 130.831 253.645 131.469C254.228 132.089 254.921 132.572 255.723 132.918C256.543 133.264 257.473 133.438 258.512 133.438C259.77 133.438 261.009 133.201 262.23 132.727C263.452 132.253 264.5 131.469 265.375 130.375L269.559 135.352C268.957 136.208 268.1 137.038 266.988 137.84C265.895 138.642 264.582 139.298 263.051 139.809C261.52 140.301 259.806 140.547 257.91 140.547Z" fill="black"/>
<rect x="93" y="178" width="917" height="77" rx="10" fill="#D3D3D3"/>
<rect x="111" y="196" width="104" height="41" rx="3" fill="#424242"/>
<rect x="111" y="196" width="104" height="41" rx="3" stroke="#424242" stroke-width="4"/>
<path d="M142.812 220.627V223H136.343V220.627H142.812ZM137.441 210.203V223H134.356V210.203H137.441ZM148.911 220.609V216.689C148.911 216.42 148.873 216.188 148.797 215.995C148.721 215.802 148.601 215.652 148.437 215.547C148.272 215.436 148.053 215.38 147.777 215.38C147.555 215.38 147.364 215.418 147.206 215.494C147.048 215.57 146.928 215.685 146.846 215.837C146.764 215.989 146.723 216.183 146.723 216.417H143.761C143.761 215.978 143.857 215.57 144.051 215.195C144.25 214.814 144.531 214.483 144.895 214.202C145.264 213.921 145.703 213.704 146.213 213.552C146.729 213.394 147.303 213.314 147.936 213.314C148.691 213.314 149.365 213.44 149.957 213.692C150.555 213.944 151.026 214.322 151.372 214.826C151.718 215.324 151.891 215.951 151.891 216.707V220.601C151.891 221.222 151.926 221.693 151.996 222.016C152.066 222.332 152.166 222.61 152.295 222.851V223H149.324C149.184 222.707 149.078 222.35 149.008 221.928C148.943 221.5 148.911 221.061 148.911 220.609ZM149.271 217.19L149.289 218.772H147.979C147.704 218.772 147.47 218.811 147.276 218.887C147.089 218.963 146.937 219.068 146.819 219.203C146.708 219.332 146.626 219.479 146.573 219.643C146.526 219.807 146.503 219.979 146.503 220.161C146.503 220.337 146.544 220.495 146.626 220.636C146.714 220.771 146.831 220.876 146.978 220.952C147.124 221.028 147.288 221.066 147.47 221.066C147.798 221.066 148.076 221.005 148.305 220.882C148.539 220.753 148.718 220.598 148.841 220.416C148.964 220.234 149.025 220.064 149.025 219.906L149.676 221.119C149.559 221.354 149.424 221.591 149.271 221.831C149.125 222.071 148.94 222.294 148.718 222.499C148.501 222.698 148.234 222.862 147.918 222.991C147.602 223.114 147.218 223.176 146.767 223.176C146.181 223.176 145.642 223.056 145.149 222.815C144.663 222.575 144.273 222.241 143.98 221.813C143.688 221.38 143.541 220.882 143.541 220.319C143.541 219.827 143.629 219.388 143.805 219.001C143.986 218.614 144.259 218.286 144.622 218.017C144.985 217.747 145.448 217.542 146.011 217.401C146.573 217.261 147.235 217.19 147.997 217.19H149.271ZM156.522 215.846V223H153.561V213.49H156.329L156.522 215.846ZM159.335 213.42L159.282 216.171C159.165 216.159 159.007 216.145 158.808 216.127C158.608 216.109 158.441 216.101 158.307 216.101C157.961 216.101 157.662 216.142 157.41 216.224C157.164 216.3 156.959 216.417 156.795 216.575C156.637 216.728 156.52 216.921 156.443 217.155C156.373 217.39 156.341 217.662 156.347 217.973L155.811 217.621C155.811 216.982 155.872 216.402 155.995 215.881C156.124 215.354 156.306 214.899 156.54 214.519C156.774 214.132 157.059 213.836 157.393 213.631C157.727 213.42 158.102 213.314 158.518 213.314C158.664 213.314 158.808 213.323 158.948 213.341C159.095 213.358 159.224 213.385 159.335 213.42ZM165.03 220.609V216.689C165.03 216.42 164.992 216.188 164.916 215.995C164.84 215.802 164.72 215.652 164.556 215.547C164.392 215.436 164.172 215.38 163.896 215.38C163.674 215.38 163.483 215.418 163.325 215.494C163.167 215.57 163.047 215.685 162.965 215.837C162.883 215.989 162.842 216.183 162.842 216.417H159.88C159.88 215.978 159.977 215.57 160.17 215.195C160.369 214.814 160.65 214.483 161.014 214.202C161.383 213.921 161.822 213.704 162.332 213.552C162.848 213.394 163.422 213.314 164.055 213.314C164.811 213.314 165.484 213.44 166.076 213.692C166.674 213.944 167.146 214.322 167.491 214.826C167.837 215.324 168.01 215.951 168.01 216.707V220.601C168.01 221.222 168.045 221.693 168.115 222.016C168.186 222.332 168.285 222.61 168.414 222.851V223H165.443C165.303 222.707 165.197 222.35 165.127 221.928C165.062 221.5 165.03 221.061 165.03 220.609ZM165.391 217.19L165.408 218.772H164.099C163.823 218.772 163.589 218.811 163.396 218.887C163.208 218.963 163.056 219.068 162.938 219.203C162.827 219.332 162.745 219.479 162.692 219.643C162.646 219.807 162.622 219.979 162.622 220.161C162.622 220.337 162.663 220.495 162.745 220.636C162.833 220.771 162.95 220.876 163.097 220.952C163.243 221.028 163.407 221.066 163.589 221.066C163.917 221.066 164.195 221.005 164.424 220.882C164.658 220.753 164.837 220.598 164.96 220.416C165.083 220.234 165.145 220.064 165.145 219.906L165.795 221.119C165.678 221.354 165.543 221.591 165.391 221.831C165.244 222.071 165.06 222.294 164.837 222.499C164.62 222.698 164.354 222.862 164.037 222.991C163.721 223.114 163.337 223.176 162.886 223.176C162.3 223.176 161.761 223.056 161.269 222.815C160.782 222.575 160.393 222.241 160.1 221.813C159.807 221.38 159.66 220.882 159.66 220.319C159.66 219.827 159.748 219.388 159.924 219.001C160.105 218.614 160.378 218.286 160.741 218.017C161.104 217.747 161.567 217.542 162.13 217.401C162.692 217.261 163.354 217.19 164.116 217.19H165.391ZM172.94 220.97L174.812 213.49H177.933L174.821 223H172.976L172.94 220.97ZM171.833 213.49L173.679 220.97L173.661 223H171.807L168.704 213.49H171.833ZM183.294 223.176C182.521 223.176 181.829 223.056 181.22 222.815C180.61 222.569 180.095 222.232 179.673 221.805C179.257 221.377 178.938 220.885 178.715 220.328C178.498 219.771 178.39 219.183 178.39 218.562V218.228C178.39 217.53 178.486 216.886 178.68 216.294C178.873 215.696 179.16 215.175 179.541 214.729C179.922 214.284 180.399 213.938 180.974 213.692C181.548 213.44 182.216 213.314 182.978 213.314C183.651 213.314 184.255 213.423 184.788 213.64C185.321 213.856 185.772 214.167 186.142 214.571C186.517 214.976 186.801 215.465 186.994 216.039C187.193 216.613 187.293 217.258 187.293 217.973V219.177H179.523V217.322H184.401V217.094C184.407 216.777 184.352 216.508 184.234 216.285C184.123 216.062 183.959 215.893 183.742 215.775C183.525 215.658 183.262 215.6 182.951 215.6C182.629 215.6 182.362 215.67 182.151 215.811C181.946 215.951 181.785 216.145 181.668 216.391C181.557 216.631 181.478 216.909 181.431 217.226C181.384 217.542 181.36 217.876 181.36 218.228V218.562C181.36 218.913 181.407 219.232 181.501 219.52C181.601 219.807 181.741 220.053 181.923 220.258C182.11 220.457 182.333 220.612 182.591 220.724C182.854 220.835 183.153 220.891 183.487 220.891C183.892 220.891 184.29 220.814 184.683 220.662C185.075 220.51 185.412 220.258 185.693 219.906L187.038 221.506C186.845 221.781 186.569 222.048 186.212 222.306C185.86 222.563 185.438 222.774 184.946 222.938C184.454 223.097 183.903 223.176 183.294 223.176ZM191.626 209.5V223H188.655V209.5H191.626Z" fill="white"/>
<rect x="235" y="196" width="108" height="41" rx="3" fill="#424242"/>
<rect x="235" y="196" width="108" height="41" rx="3" stroke="#424242" stroke-width="4"/>
<path d="M263.459 212.893L260.339 223H257.025L261.728 210.203H263.828L263.459 212.893ZM266.043 223L262.914 212.893L262.51 210.203H264.637L269.365 223H266.043ZM265.92 218.228V220.609H259.354V218.228H265.92ZM272.652 215.521V223H269.69V213.49H272.468L272.652 215.521ZM272.301 217.92L271.606 217.938C271.606 217.211 271.694 216.563 271.87 215.995C272.046 215.421 272.295 214.935 272.617 214.536C272.939 214.138 273.323 213.836 273.769 213.631C274.22 213.42 274.721 213.314 275.271 213.314C275.711 213.314 276.112 213.379 276.476 213.508C276.845 213.637 277.161 213.845 277.425 214.132C277.694 214.419 277.899 214.8 278.04 215.274C278.187 215.743 278.26 216.323 278.26 217.015V223H275.28V217.006C275.28 216.625 275.228 216.335 275.122 216.136C275.017 215.931 274.864 215.79 274.665 215.714C274.466 215.638 274.223 215.6 273.936 215.6C273.631 215.6 273.373 215.658 273.162 215.775C272.951 215.893 272.781 216.057 272.652 216.268C272.529 216.473 272.438 216.716 272.38 216.997C272.327 217.278 272.301 217.586 272.301 217.92ZM285.88 213.49H288.569V222.631C288.569 223.51 288.367 224.254 287.963 224.863C287.559 225.479 286.993 225.944 286.267 226.261C285.546 226.583 284.702 226.744 283.735 226.744C283.308 226.744 282.871 226.688 282.426 226.577C281.98 226.472 281.564 226.313 281.178 226.103C280.791 225.892 280.466 225.631 280.202 225.32L281.441 223.58C281.682 223.85 281.983 224.078 282.347 224.266C282.71 224.459 283.138 224.556 283.63 224.556C284.058 224.556 284.415 224.479 284.702 224.327C284.995 224.175 285.218 223.952 285.37 223.659C285.522 223.372 285.599 223.023 285.599 222.613V215.74L285.88 213.49ZM279.561 218.359V218.175C279.561 217.454 279.648 216.798 279.824 216.206C280.006 215.608 280.264 215.096 280.598 214.668C280.938 214.234 281.348 213.9 281.828 213.666C282.309 213.432 282.851 213.314 283.454 213.314C284.104 213.314 284.638 213.44 285.054 213.692C285.476 213.938 285.812 214.284 286.064 214.729C286.322 215.175 286.521 215.696 286.662 216.294C286.809 216.886 286.932 217.524 287.031 218.21V218.43C286.932 219.074 286.794 219.684 286.618 220.258C286.448 220.826 286.226 221.33 285.95 221.77C285.675 222.209 285.329 222.555 284.913 222.807C284.503 223.053 284.011 223.176 283.437 223.176C282.839 223.176 282.3 223.056 281.819 222.815C281.345 222.575 280.938 222.238 280.598 221.805C280.264 221.371 280.006 220.861 279.824 220.275C279.648 219.689 279.561 219.051 279.561 218.359ZM282.522 218.175V218.359C282.522 218.717 282.555 219.048 282.619 219.353C282.689 219.657 282.795 219.927 282.936 220.161C283.076 220.39 283.249 220.568 283.454 220.697C283.665 220.826 283.911 220.891 284.192 220.891C284.62 220.891 284.966 220.8 285.229 220.618C285.493 220.437 285.684 220.179 285.801 219.845C285.918 219.511 285.968 219.118 285.95 218.667V217.973C285.962 217.586 285.936 217.246 285.871 216.953C285.807 216.654 285.704 216.405 285.563 216.206C285.429 216.007 285.247 215.857 285.019 215.758C284.796 215.652 284.526 215.6 284.21 215.6C283.935 215.6 283.691 215.664 283.48 215.793C283.27 215.922 283.094 216.104 282.953 216.338C282.812 216.566 282.704 216.839 282.628 217.155C282.558 217.466 282.522 217.806 282.522 218.175ZM295.829 220.688V213.49H298.8V223H296.022L295.829 220.688ZM296.11 218.755L296.884 218.737C296.884 219.376 296.808 219.968 296.655 220.513C296.503 221.052 296.277 221.521 295.979 221.919C295.686 222.317 295.322 222.628 294.889 222.851C294.461 223.067 293.966 223.176 293.403 223.176C292.935 223.176 292.504 223.111 292.111 222.982C291.725 222.848 291.391 222.64 291.109 222.358C290.828 222.071 290.608 221.705 290.45 221.26C290.298 220.809 290.222 220.27 290.222 219.643V213.49H293.184V219.66C293.184 219.871 293.21 220.053 293.263 220.205C293.315 220.357 293.392 220.486 293.491 220.592C293.591 220.691 293.714 220.768 293.86 220.82C294.013 220.867 294.186 220.891 294.379 220.891C294.824 220.891 295.173 220.797 295.425 220.609C295.677 220.422 295.853 220.167 295.952 219.845C296.058 219.522 296.11 219.159 296.11 218.755ZM303.563 209.5V223H300.593V209.5H303.563ZM310.331 220.609V216.689C310.331 216.42 310.293 216.188 310.217 215.995C310.141 215.802 310.021 215.652 309.856 215.547C309.692 215.436 309.473 215.38 309.197 215.38C308.975 215.38 308.784 215.418 308.626 215.494C308.468 215.57 308.348 215.685 308.266 215.837C308.184 215.989 308.143 216.183 308.143 216.417H305.181C305.181 215.978 305.277 215.57 305.471 215.195C305.67 214.814 305.951 214.483 306.314 214.202C306.684 213.921 307.123 213.704 307.633 213.552C308.148 213.394 308.723 213.314 309.355 213.314C310.111 213.314 310.785 213.44 311.377 213.692C311.975 213.944 312.446 214.322 312.792 214.826C313.138 215.324 313.311 215.951 313.311 216.707V220.601C313.311 221.222 313.346 221.693 313.416 222.016C313.486 222.332 313.586 222.61 313.715 222.851V223H310.744C310.604 222.707 310.498 222.35 310.428 221.928C310.363 221.5 310.331 221.061 310.331 220.609ZM310.691 217.19L310.709 218.772H309.399C309.124 218.772 308.89 218.811 308.696 218.887C308.509 218.963 308.356 219.068 308.239 219.203C308.128 219.332 308.046 219.479 307.993 219.643C307.946 219.807 307.923 219.979 307.923 220.161C307.923 220.337 307.964 220.495 308.046 220.636C308.134 220.771 308.251 220.876 308.397 220.952C308.544 221.028 308.708 221.066 308.89 221.066C309.218 221.066 309.496 221.005 309.725 220.882C309.959 220.753 310.138 220.598 310.261 220.416C310.384 220.234 310.445 220.064 310.445 219.906L311.096 221.119C310.979 221.354 310.844 221.591 310.691 221.831C310.545 222.071 310.36 222.294 310.138 222.499C309.921 222.698 309.654 222.862 309.338 222.991C309.021 223.114 308.638 223.176 308.187 223.176C307.601 223.176 307.062 223.056 306.569 222.815C306.083 222.575 305.693 222.241 305.4 221.813C305.107 221.38 304.961 220.882 304.961 220.319C304.961 219.827 305.049 219.388 305.225 219.001C305.406 218.614 305.679 218.286 306.042 218.017C306.405 217.747 306.868 217.542 307.431 217.401C307.993 217.261 308.655 217.19 309.417 217.19H310.691ZM317.942 215.846V223H314.98V213.49H317.749L317.942 215.846ZM320.755 213.42L320.702 216.171C320.585 216.159 320.427 216.145 320.228 216.127C320.028 216.109 319.861 216.101 319.727 216.101C319.381 216.101 319.082 216.142 318.83 216.224C318.584 216.3 318.379 216.417 318.215 216.575C318.057 216.728 317.939 216.921 317.863 217.155C317.793 217.39 317.761 217.662 317.767 217.973L317.23 217.621C317.23 216.982 317.292 216.402 317.415 215.881C317.544 215.354 317.726 214.899 317.96 214.519C318.194 214.132 318.479 213.836 318.812 213.631C319.146 213.42 319.521 213.314 319.938 213.314C320.084 213.314 320.228 213.323 320.368 213.341C320.515 213.358 320.644 213.385 320.755 213.42Z" fill="white"/>
<rect x="363" y="196" width="131" height="41" rx="3" fill="#424242"/>
<rect x="363" y="196" width="131" height="41" rx="3" stroke="#424242" stroke-width="4"/>
<path d="M392.359 210.203V223H389.274V210.203H392.359ZM396.209 210.203V212.585H385.513V210.203H396.209ZM399.575 221.884L402.036 213.49H405.218L401.395 224.415C401.312 224.655 401.204 224.913 401.069 225.188C400.935 225.47 400.75 225.736 400.516 225.988C400.281 226.24 399.979 226.445 399.61 226.604C399.247 226.762 398.796 226.841 398.257 226.841C397.97 226.841 397.759 226.826 397.624 226.797C397.495 226.773 397.296 226.729 397.026 226.665V224.547C397.103 224.547 397.167 224.547 397.22 224.547C397.278 224.547 397.343 224.547 397.413 224.547C397.729 224.547 397.981 224.515 398.169 224.45C398.362 224.386 398.509 224.292 398.608 224.169C398.714 224.046 398.796 223.896 398.854 223.721L399.575 221.884ZM398.951 213.49L400.823 220.144L401.148 223.281H399.162L395.778 213.49H398.951ZM408.979 215.318V226.656H406.018V213.49H408.777L408.979 215.318ZM414.815 218.131V218.315C414.815 219.007 414.736 219.648 414.578 220.24C414.42 220.832 414.186 221.348 413.875 221.787C413.564 222.227 413.178 222.569 412.715 222.815C412.258 223.056 411.728 223.176 411.124 223.176C410.556 223.176 410.066 223.05 409.656 222.798C409.246 222.546 408.903 222.197 408.628 221.752C408.353 221.307 408.13 220.797 407.96 220.223C407.79 219.648 407.655 219.042 407.556 218.403V218.166C407.655 217.48 407.79 216.845 407.96 216.259C408.13 215.667 408.353 215.151 408.628 214.712C408.903 214.272 409.243 213.93 409.647 213.684C410.058 213.438 410.547 213.314 411.115 213.314C411.719 213.314 412.249 213.429 412.706 213.657C413.169 213.886 413.556 214.214 413.866 214.642C414.183 215.063 414.42 215.57 414.578 216.162C414.736 216.754 414.815 217.41 414.815 218.131ZM411.854 218.315V218.131C411.854 217.762 411.827 217.425 411.774 217.12C411.722 216.81 411.637 216.54 411.52 216.312C411.408 216.083 411.259 215.907 411.071 215.784C410.884 215.661 410.652 215.6 410.377 215.6C410.061 215.6 409.794 215.649 409.577 215.749C409.366 215.843 409.196 215.989 409.067 216.188C408.944 216.382 408.856 216.625 408.804 216.918C408.757 217.205 408.736 217.542 408.742 217.929V218.649C408.73 219.095 408.774 219.487 408.874 219.827C408.974 220.161 409.146 220.422 409.393 220.609C409.639 220.797 409.973 220.891 410.395 220.891C410.676 220.891 410.91 220.826 411.098 220.697C411.285 220.562 411.435 220.378 411.546 220.144C411.657 219.903 411.736 219.628 411.783 219.317C411.83 219.007 411.854 218.673 411.854 218.315ZM420.739 223.176C419.966 223.176 419.274 223.056 418.665 222.815C418.056 222.569 417.54 222.232 417.118 221.805C416.702 221.377 416.383 220.885 416.16 220.328C415.943 219.771 415.835 219.183 415.835 218.562V218.228C415.835 217.53 415.932 216.886 416.125 216.294C416.318 215.696 416.605 215.175 416.986 214.729C417.367 214.284 417.845 213.938 418.419 213.692C418.993 213.44 419.661 213.314 420.423 213.314C421.097 213.314 421.7 213.423 422.233 213.64C422.767 213.856 423.218 214.167 423.587 214.571C423.962 214.976 424.246 215.465 424.439 216.039C424.639 216.613 424.738 217.258 424.738 217.973V219.177H416.969V217.322H421.847V217.094C421.853 216.777 421.797 216.508 421.68 216.285C421.568 216.062 421.404 215.893 421.188 215.775C420.971 215.658 420.707 215.6 420.396 215.6C420.074 215.6 419.808 215.67 419.597 215.811C419.392 215.951 419.23 216.145 419.113 216.391C419.002 216.631 418.923 216.909 418.876 217.226C418.829 217.542 418.806 217.876 418.806 218.228V218.562C418.806 218.913 418.853 219.232 418.946 219.52C419.046 219.807 419.187 220.053 419.368 220.258C419.556 220.457 419.778 220.612 420.036 220.724C420.3 220.835 420.599 220.891 420.933 220.891C421.337 220.891 421.735 220.814 422.128 220.662C422.521 220.51 422.857 220.258 423.139 219.906L424.483 221.506C424.29 221.781 424.015 222.048 423.657 222.306C423.306 222.563 422.884 222.774 422.392 222.938C421.899 223.097 421.349 223.176 420.739 223.176ZM430.926 220.328C430.926 220.164 430.87 220.023 430.759 219.906C430.653 219.783 430.466 219.672 430.196 219.572C429.927 219.467 429.549 219.361 429.062 219.256C428.6 219.156 428.163 219.024 427.753 218.86C427.349 218.696 426.994 218.497 426.689 218.263C426.385 218.028 426.145 217.75 425.969 217.428C425.799 217.105 425.714 216.736 425.714 216.32C425.714 215.916 425.799 215.535 425.969 215.178C426.145 214.814 426.399 214.495 426.733 214.22C427.073 213.938 427.486 213.719 427.973 213.561C428.459 213.396 429.013 213.314 429.634 213.314C430.489 213.314 431.228 213.446 431.849 213.71C432.47 213.968 432.947 214.331 433.281 214.8C433.621 215.263 433.791 215.799 433.791 216.408H430.829C430.829 216.168 430.788 215.963 430.706 215.793C430.63 215.623 430.504 215.494 430.328 215.406C430.152 215.312 429.918 215.266 429.625 215.266C429.42 215.266 429.232 215.304 429.062 215.38C428.898 215.456 428.767 215.562 428.667 215.696C428.567 215.831 428.518 215.989 428.518 216.171C428.518 216.3 428.547 216.417 428.605 216.522C428.67 216.622 428.767 216.716 428.896 216.804C429.024 216.886 429.188 216.962 429.388 217.032C429.587 217.097 429.827 217.155 430.108 217.208C430.747 217.325 431.345 217.492 431.901 217.709C432.458 217.926 432.909 218.233 433.255 218.632C433.606 219.03 433.782 219.566 433.782 220.24C433.782 220.662 433.686 221.052 433.492 221.409C433.299 221.761 433.021 222.071 432.657 222.341C432.294 222.604 431.857 222.81 431.348 222.956C430.838 223.103 430.264 223.176 429.625 223.176C428.717 223.176 427.949 223.015 427.322 222.692C426.695 222.364 426.221 221.954 425.898 221.462C425.582 220.964 425.424 220.46 425.424 219.95H428.184C428.195 220.243 428.266 220.483 428.395 220.671C428.529 220.858 428.708 220.996 428.931 221.084C429.153 221.172 429.411 221.216 429.704 221.216C429.974 221.216 430.196 221.178 430.372 221.102C430.554 221.025 430.691 220.923 430.785 220.794C430.879 220.659 430.926 220.504 430.926 220.328ZM439.188 220.891C439.463 220.891 439.697 220.841 439.891 220.741C440.09 220.636 440.239 220.489 440.339 220.302C440.444 220.108 440.494 219.877 440.488 219.607H443.274C443.28 220.322 443.104 220.949 442.747 221.488C442.396 222.021 441.915 222.438 441.306 222.736C440.702 223.029 440.02 223.176 439.258 223.176C438.514 223.176 437.863 223.056 437.307 222.815C436.75 222.569 436.284 222.229 435.909 221.796C435.54 221.356 435.262 220.844 435.074 220.258C434.893 219.672 434.802 219.036 434.802 218.351V218.148C434.802 217.463 434.893 216.827 435.074 216.241C435.262 215.649 435.54 215.137 435.909 214.703C436.284 214.264 436.747 213.924 437.298 213.684C437.854 213.438 438.502 213.314 439.24 213.314C440.031 213.314 440.729 213.464 441.332 213.763C441.941 214.062 442.419 214.495 442.765 215.063C443.11 215.632 443.28 216.32 443.274 217.129H440.488C440.494 216.842 440.45 216.584 440.356 216.355C440.263 216.127 440.116 215.945 439.917 215.811C439.724 215.67 439.475 215.6 439.17 215.6C438.865 215.6 438.619 215.667 438.432 215.802C438.244 215.937 438.101 216.124 438.001 216.364C437.907 216.599 437.843 216.868 437.808 217.173C437.778 217.478 437.764 217.803 437.764 218.148V218.351C437.764 218.702 437.778 219.033 437.808 219.344C437.843 219.648 437.91 219.918 438.01 220.152C438.109 220.381 438.253 220.562 438.44 220.697C438.628 220.826 438.877 220.891 439.188 220.891ZM447.528 215.846V223H444.566V213.49H447.335L447.528 215.846ZM450.341 213.42L450.288 216.171C450.171 216.159 450.013 216.145 449.813 216.127C449.614 216.109 449.447 216.101 449.312 216.101C448.967 216.101 448.668 216.142 448.416 216.224C448.17 216.3 447.965 216.417 447.801 216.575C447.643 216.728 447.525 216.921 447.449 217.155C447.379 217.39 447.347 217.662 447.353 217.973L446.816 217.621C446.816 216.982 446.878 216.402 447.001 215.881C447.13 215.354 447.312 214.899 447.546 214.519C447.78 214.132 448.064 213.836 448.398 213.631C448.732 213.42 449.107 213.314 449.523 213.314C449.67 213.314 449.813 213.323 449.954 213.341C450.101 213.358 450.229 213.385 450.341 213.42ZM454.489 213.49V223H451.519V213.49H454.489ZM451.343 211.038C451.343 210.616 451.495 210.271 451.8 210.001C452.104 209.731 452.5 209.597 452.986 209.597C453.473 209.597 453.868 209.731 454.173 210.001C454.478 210.271 454.63 210.616 454.63 211.038C454.63 211.46 454.478 211.806 454.173 212.075C453.868 212.345 453.473 212.479 452.986 212.479C452.5 212.479 452.104 212.345 451.8 212.075C451.495 211.806 451.343 211.46 451.343 211.038ZM459.306 215.318V226.656H456.344V213.49H459.104L459.306 215.318ZM465.142 218.131V218.315C465.142 219.007 465.062 219.648 464.904 220.24C464.746 220.832 464.512 221.348 464.201 221.787C463.891 222.227 463.504 222.569 463.041 222.815C462.584 223.056 462.054 223.176 461.45 223.176C460.882 223.176 460.393 223.05 459.982 222.798C459.572 222.546 459.229 222.197 458.954 221.752C458.679 221.307 458.456 220.797 458.286 220.223C458.116 219.648 457.981 219.042 457.882 218.403V218.166C457.981 217.48 458.116 216.845 458.286 216.259C458.456 215.667 458.679 215.151 458.954 214.712C459.229 214.272 459.569 213.93 459.974 213.684C460.384 213.438 460.873 213.314 461.441 213.314C462.045 213.314 462.575 213.429 463.032 213.657C463.495 213.886 463.882 214.214 464.192 214.642C464.509 215.063 464.746 215.57 464.904 216.162C465.062 216.754 465.142 217.41 465.142 218.131ZM462.18 218.315V218.131C462.18 217.762 462.153 217.425 462.101 217.12C462.048 216.81 461.963 216.54 461.846 216.312C461.734 216.083 461.585 215.907 461.397 215.784C461.21 215.661 460.979 215.6 460.703 215.6C460.387 215.6 460.12 215.649 459.903 215.749C459.692 215.843 459.522 215.989 459.394 216.188C459.271 216.382 459.183 216.625 459.13 216.918C459.083 217.205 459.062 217.542 459.068 217.929V218.649C459.057 219.095 459.101 219.487 459.2 219.827C459.3 220.161 459.473 220.422 459.719 220.609C459.965 220.797 460.299 220.891 460.721 220.891C461.002 220.891 461.236 220.826 461.424 220.697C461.611 220.562 461.761 220.378 461.872 220.144C461.983 219.903 462.062 219.628 462.109 219.317C462.156 219.007 462.18 218.673 462.18 218.315ZM471.47 213.49V215.547H465.739V213.49H471.47ZM466.943 211.126H469.905V219.897C469.905 220.149 469.935 220.346 469.993 220.486C470.052 220.621 470.151 220.718 470.292 220.776C470.438 220.829 470.632 220.855 470.872 220.855C471.042 220.855 471.183 220.853 471.294 220.847C471.405 220.835 471.511 220.82 471.61 220.803V222.921C471.358 223.003 471.095 223.064 470.819 223.105C470.544 223.152 470.251 223.176 469.94 223.176C469.308 223.176 468.766 223.076 468.314 222.877C467.869 222.678 467.529 222.364 467.295 221.937C467.061 221.509 466.943 220.952 466.943 220.267V211.126Z" fill="white"/>
<rect x="514" y="196" width="78" height="41" rx="3" fill="#424242"/>
<rect x="514" y="196" width="78" height="41" rx="3" stroke="#424242" stroke-width="4"/>
<path d="M548.043 210.203V223H544.967L540.44 215.037V223H537.355V210.203H540.44L544.967 218.166V210.203H548.043ZM558.695 219.476C558.695 220.29 558.502 220.973 558.115 221.523C557.734 222.074 557.207 222.487 556.533 222.763C555.865 223.038 555.104 223.176 554.248 223.176C553.398 223.176 552.634 223.038 551.954 222.763C551.28 222.487 550.747 222.074 550.354 221.523C549.962 220.973 549.766 220.29 549.766 219.476C549.766 218.919 549.877 218.421 550.1 217.981C550.328 217.536 550.645 217.158 551.049 216.848C551.453 216.537 551.925 216.3 552.464 216.136C553.009 215.972 553.598 215.89 554.23 215.89C555.086 215.89 555.851 216.036 556.524 216.329C557.198 216.616 557.729 217.026 558.115 217.56C558.502 218.093 558.695 218.731 558.695 219.476ZM555.716 219.238C555.716 218.887 555.654 218.591 555.531 218.351C555.408 218.104 555.235 217.917 555.013 217.788C554.79 217.659 554.529 217.595 554.23 217.595C553.938 217.595 553.677 217.659 553.448 217.788C553.226 217.917 553.05 218.104 552.921 218.351C552.798 218.591 552.736 218.887 552.736 219.238C552.736 219.578 552.801 219.874 552.93 220.126C553.059 220.372 553.234 220.562 553.457 220.697C553.686 220.826 553.949 220.891 554.248 220.891C554.547 220.891 554.805 220.826 555.021 220.697C555.244 220.562 555.414 220.372 555.531 220.126C555.654 219.874 555.716 219.578 555.716 219.238ZM558.432 213.622C558.432 214.29 558.253 214.876 557.896 215.38C557.544 215.878 557.052 216.268 556.419 216.549C555.792 216.824 555.068 216.962 554.248 216.962C553.434 216.962 552.707 216.824 552.068 216.549C551.436 216.268 550.938 215.878 550.574 215.38C550.217 214.876 550.038 214.29 550.038 213.622C550.038 212.837 550.217 212.178 550.574 211.645C550.938 211.111 551.436 210.707 552.068 210.432C552.701 210.156 553.422 210.019 554.23 210.019C555.051 210.019 555.777 210.156 556.41 210.432C557.043 210.707 557.538 211.111 557.896 211.645C558.253 212.178 558.432 212.837 558.432 213.622ZM555.47 213.78C555.47 213.476 555.423 213.215 555.329 212.998C555.235 212.775 555.098 212.605 554.916 212.488C554.734 212.365 554.506 212.304 554.23 212.304C553.967 212.304 553.744 212.362 553.562 212.479C553.381 212.597 553.243 212.767 553.149 212.989C553.056 213.206 553.009 213.47 553.009 213.78C553.009 214.085 553.056 214.352 553.149 214.58C553.243 214.809 553.381 214.987 553.562 215.116C553.75 215.245 553.979 215.31 554.248 215.31C554.523 215.31 554.749 215.245 554.925 215.116C555.106 214.987 555.241 214.809 555.329 214.58C555.423 214.352 555.47 214.085 555.47 213.78ZM563.204 215.521V223H560.242V213.49H563.02L563.204 215.521ZM562.853 217.92L562.158 217.938C562.158 217.211 562.246 216.563 562.422 215.995C562.598 215.421 562.847 214.935 563.169 214.536C563.491 214.138 563.875 213.836 564.32 213.631C564.771 213.42 565.272 213.314 565.823 213.314C566.263 213.314 566.664 213.379 567.027 213.508C567.396 213.637 567.713 213.845 567.977 214.132C568.246 214.419 568.451 214.8 568.592 215.274C568.738 215.743 568.812 216.323 568.812 217.015V223H565.832V217.006C565.832 216.625 565.779 216.335 565.674 216.136C565.568 215.931 565.416 215.79 565.217 215.714C565.018 215.638 564.774 215.6 564.487 215.6C564.183 215.6 563.925 215.658 563.714 215.775C563.503 215.893 563.333 216.057 563.204 216.268C563.081 216.473 562.99 216.716 562.932 216.997C562.879 217.278 562.853 217.586 562.853 217.92Z" fill="white"/>
<rect x="612" y="196" width="142" height="41" rx="3" fill="#424242"/>
<rect x="612" y="196" width="142" height="41" rx="3" stroke="#424242" stroke-width="4"/>
<path d="M640.373 218.658H637.191V216.276H640.373C640.807 216.276 641.158 216.203 641.428 216.057C641.697 215.91 641.894 215.708 642.017 215.45C642.146 215.187 642.21 214.891 642.21 214.562C642.21 214.211 642.146 213.886 642.017 213.587C641.894 213.288 641.697 213.048 641.428 212.866C641.158 212.679 640.807 212.585 640.373 212.585H638.352V223H635.267V210.203H640.373C641.398 210.203 642.28 210.391 643.019 210.766C643.763 211.141 644.334 211.656 644.732 212.312C645.131 212.963 645.33 213.707 645.33 214.545C645.33 215.371 645.131 216.092 644.732 216.707C644.334 217.322 643.763 217.803 643.019 218.148C642.28 218.488 641.398 218.658 640.373 218.658ZM646.358 218.342V218.157C646.358 217.46 646.458 216.818 646.657 216.232C646.856 215.641 647.149 215.128 647.536 214.694C647.923 214.261 648.4 213.924 648.969 213.684C649.537 213.438 650.193 213.314 650.938 213.314C651.688 213.314 652.347 213.438 652.915 213.684C653.489 213.924 653.97 214.261 654.356 214.694C654.743 215.128 655.036 215.641 655.235 216.232C655.435 216.818 655.534 217.46 655.534 218.157V218.342C655.534 219.033 655.435 219.675 655.235 220.267C655.036 220.853 654.743 221.365 654.356 221.805C653.97 222.238 653.492 222.575 652.924 222.815C652.355 223.056 651.699 223.176 650.955 223.176C650.211 223.176 649.552 223.056 648.978 222.815C648.403 222.575 647.923 222.238 647.536 221.805C647.149 221.365 646.856 220.853 646.657 220.267C646.458 219.675 646.358 219.033 646.358 218.342ZM649.32 218.157V218.342C649.32 218.699 649.347 219.033 649.399 219.344C649.452 219.654 649.54 219.927 649.663 220.161C649.786 220.39 649.953 220.568 650.164 220.697C650.375 220.826 650.639 220.891 650.955 220.891C651.266 220.891 651.523 220.826 651.729 220.697C651.939 220.568 652.106 220.39 652.229 220.161C652.353 219.927 652.44 219.654 652.493 219.344C652.546 219.033 652.572 218.699 652.572 218.342V218.157C652.572 217.812 652.546 217.486 652.493 217.182C652.44 216.871 652.353 216.599 652.229 216.364C652.106 216.124 651.939 215.937 651.729 215.802C651.518 215.667 651.254 215.6 650.938 215.6C650.627 215.6 650.366 215.667 650.155 215.802C649.95 215.937 649.786 216.124 649.663 216.364C649.54 216.599 649.452 216.871 649.399 217.182C649.347 217.486 649.32 217.812 649.32 218.157ZM661.836 220.328C661.836 220.164 661.78 220.023 661.669 219.906C661.563 219.783 661.376 219.672 661.106 219.572C660.837 219.467 660.459 219.361 659.973 219.256C659.51 219.156 659.073 219.024 658.663 218.86C658.259 218.696 657.904 218.497 657.6 218.263C657.295 218.028 657.055 217.75 656.879 217.428C656.709 217.105 656.624 216.736 656.624 216.32C656.624 215.916 656.709 215.535 656.879 215.178C657.055 214.814 657.31 214.495 657.644 214.22C657.983 213.938 658.396 213.719 658.883 213.561C659.369 213.396 659.923 213.314 660.544 213.314C661.399 213.314 662.138 213.446 662.759 213.71C663.38 213.968 663.857 214.331 664.191 214.8C664.531 215.263 664.701 215.799 664.701 216.408H661.739C661.739 216.168 661.698 215.963 661.616 215.793C661.54 215.623 661.414 215.494 661.238 215.406C661.062 215.312 660.828 215.266 660.535 215.266C660.33 215.266 660.143 215.304 659.973 215.38C659.809 215.456 659.677 215.562 659.577 215.696C659.478 215.831 659.428 215.989 659.428 216.171C659.428 216.3 659.457 216.417 659.516 216.522C659.58 216.622 659.677 216.716 659.806 216.804C659.935 216.886 660.099 216.962 660.298 217.032C660.497 217.097 660.737 217.155 661.019 217.208C661.657 217.325 662.255 217.492 662.812 217.709C663.368 217.926 663.819 218.233 664.165 218.632C664.517 219.03 664.692 219.566 664.692 220.24C664.692 220.662 664.596 221.052 664.402 221.409C664.209 221.761 663.931 222.071 663.567 222.341C663.204 222.604 662.768 222.81 662.258 222.956C661.748 223.103 661.174 223.176 660.535 223.176C659.627 223.176 658.859 223.015 658.232 222.692C657.605 222.364 657.131 221.954 656.809 221.462C656.492 220.964 656.334 220.46 656.334 219.95H659.094C659.105 220.243 659.176 220.483 659.305 220.671C659.439 220.858 659.618 220.996 659.841 221.084C660.063 221.172 660.321 221.216 660.614 221.216C660.884 221.216 661.106 221.178 661.282 221.102C661.464 221.025 661.602 220.923 661.695 220.794C661.789 220.659 661.836 220.504 661.836 220.328ZM671.091 213.49V215.547H665.36V213.49H671.091ZM666.564 211.126H669.526V219.897C669.526 220.149 669.556 220.346 669.614 220.486C669.673 220.621 669.772 220.718 669.913 220.776C670.06 220.829 670.253 220.855 670.493 220.855C670.663 220.855 670.804 220.853 670.915 220.847C671.026 220.835 671.132 220.82 671.231 220.803V222.921C670.979 223.003 670.716 223.064 670.44 223.105C670.165 223.152 669.872 223.176 669.562 223.176C668.929 223.176 668.387 223.076 667.936 222.877C667.49 222.678 667.15 222.364 666.916 221.937C666.682 221.509 666.564 220.952 666.564 220.267V211.126ZM678.245 213.49H680.935V222.631C680.935 223.51 680.732 224.254 680.328 224.863C679.924 225.479 679.358 225.944 678.632 226.261C677.911 226.583 677.067 226.744 676.101 226.744C675.673 226.744 675.236 226.688 674.791 226.577C674.346 226.472 673.93 226.313 673.543 226.103C673.156 225.892 672.831 225.631 672.567 225.32L673.807 223.58C674.047 223.85 674.349 224.078 674.712 224.266C675.075 224.459 675.503 224.556 675.995 224.556C676.423 224.556 676.78 224.479 677.067 224.327C677.36 224.175 677.583 223.952 677.735 223.659C677.888 223.372 677.964 223.023 677.964 222.613V215.74L678.245 213.49ZM671.926 218.359V218.175C671.926 217.454 672.014 216.798 672.189 216.206C672.371 215.608 672.629 215.096 672.963 214.668C673.303 214.234 673.713 213.9 674.193 213.666C674.674 213.432 675.216 213.314 675.819 213.314C676.47 213.314 677.003 213.44 677.419 213.692C677.841 213.938 678.178 214.284 678.43 214.729C678.688 215.175 678.887 215.696 679.027 216.294C679.174 216.886 679.297 217.524 679.396 218.21V218.43C679.297 219.074 679.159 219.684 678.983 220.258C678.813 220.826 678.591 221.33 678.315 221.77C678.04 222.209 677.694 222.555 677.278 222.807C676.868 223.053 676.376 223.176 675.802 223.176C675.204 223.176 674.665 223.056 674.185 222.815C673.71 222.575 673.303 222.238 672.963 221.805C672.629 221.371 672.371 220.861 672.189 220.275C672.014 219.689 671.926 219.051 671.926 218.359ZM674.888 218.175V218.359C674.888 218.717 674.92 219.048 674.984 219.353C675.055 219.657 675.16 219.927 675.301 220.161C675.441 220.39 675.614 220.568 675.819 220.697C676.03 220.826 676.276 220.891 676.558 220.891C676.985 220.891 677.331 220.8 677.595 220.618C677.858 220.437 678.049 220.179 678.166 219.845C678.283 219.511 678.333 219.118 678.315 218.667V217.973C678.327 217.586 678.301 217.246 678.236 216.953C678.172 216.654 678.069 216.405 677.929 216.206C677.794 216.007 677.612 215.857 677.384 215.758C677.161 215.652 676.892 215.6 676.575 215.6C676.3 215.6 676.057 215.664 675.846 215.793C675.635 215.922 675.459 216.104 675.318 216.338C675.178 216.566 675.069 216.839 674.993 217.155C674.923 217.466 674.888 217.806 674.888 218.175ZM685.628 215.846V223H682.666V213.49H685.435L685.628 215.846ZM688.44 213.42L688.388 216.171C688.271 216.159 688.112 216.145 687.913 216.127C687.714 216.109 687.547 216.101 687.412 216.101C687.066 216.101 686.768 216.142 686.516 216.224C686.27 216.3 686.064 216.417 685.9 216.575C685.742 216.728 685.625 216.921 685.549 217.155C685.479 217.39 685.446 217.662 685.452 217.973L684.916 217.621C684.916 216.982 684.978 216.402 685.101 215.881C685.229 215.354 685.411 214.899 685.646 214.519C685.88 214.132 686.164 213.836 686.498 213.631C686.832 213.42 687.207 213.314 687.623 213.314C687.77 213.314 687.913 213.323 688.054 213.341C688.2 213.358 688.329 213.385 688.44 213.42ZM693.89 223.176C693.116 223.176 692.425 223.056 691.815 222.815C691.206 222.569 690.69 222.232 690.269 221.805C689.853 221.377 689.533 220.885 689.311 220.328C689.094 219.771 688.985 219.183 688.985 218.562V218.228C688.985 217.53 689.082 216.886 689.275 216.294C689.469 215.696 689.756 215.175 690.137 214.729C690.518 214.284 690.995 213.938 691.569 213.692C692.144 213.44 692.812 213.314 693.573 213.314C694.247 213.314 694.851 213.423 695.384 213.64C695.917 213.856 696.368 214.167 696.737 214.571C697.112 214.976 697.396 215.465 697.59 216.039C697.789 216.613 697.889 217.258 697.889 217.973V219.177H690.119V217.322H694.997V217.094C695.003 216.777 694.947 216.508 694.83 216.285C694.719 216.062 694.555 215.893 694.338 215.775C694.121 215.658 693.857 215.6 693.547 215.6C693.225 215.6 692.958 215.67 692.747 215.811C692.542 215.951 692.381 216.145 692.264 216.391C692.152 216.631 692.073 216.909 692.026 217.226C691.979 217.542 691.956 217.876 691.956 218.228V218.562C691.956 218.913 692.003 219.232 692.097 219.52C692.196 219.807 692.337 220.053 692.519 220.258C692.706 220.457 692.929 220.612 693.187 220.724C693.45 220.835 693.749 220.891 694.083 220.891C694.487 220.891 694.886 220.814 695.278 220.662C695.671 220.51 696.008 220.258 696.289 219.906L697.634 221.506C697.44 221.781 697.165 222.048 696.808 222.306C696.456 222.563 696.034 222.774 695.542 222.938C695.05 223.097 694.499 223.176 693.89 223.176ZM705.825 219.599C705.825 219.399 705.796 219.221 705.737 219.062C705.679 218.898 705.57 218.746 705.412 218.605C705.254 218.465 705.025 218.324 704.727 218.184C704.434 218.037 704.047 217.885 703.566 217.727C703.004 217.539 702.462 217.328 701.94 217.094C701.419 216.854 700.953 216.575 700.543 216.259C700.133 215.937 699.808 215.562 699.567 215.134C699.327 214.7 699.207 214.196 699.207 213.622C699.207 213.071 699.33 212.576 699.576 212.137C699.822 211.691 700.165 211.313 700.604 211.003C701.05 210.687 701.571 210.446 702.169 210.282C702.767 210.112 703.42 210.027 704.129 210.027C705.066 210.027 705.893 210.191 706.607 210.52C707.328 210.842 707.891 211.302 708.295 211.899C708.705 212.491 708.91 213.191 708.91 214H705.843C705.843 213.678 705.775 213.394 705.641 213.147C705.512 212.901 705.315 212.708 705.052 212.567C704.788 212.427 704.457 212.356 704.059 212.356C703.672 212.356 703.347 212.415 703.083 212.532C702.819 212.649 702.62 212.808 702.485 213.007C702.351 213.2 702.283 213.414 702.283 213.648C702.283 213.842 702.336 214.018 702.441 214.176C702.553 214.328 702.708 214.472 702.907 214.606C703.112 214.741 703.358 214.87 703.646 214.993C703.938 215.116 704.267 215.236 704.63 215.354C705.31 215.57 705.913 215.813 706.44 216.083C706.974 216.347 707.422 216.648 707.785 216.988C708.154 217.322 708.433 217.703 708.62 218.131C708.813 218.559 708.91 219.042 708.91 219.581C708.91 220.155 708.799 220.665 708.576 221.11C708.354 221.556 708.034 221.934 707.618 222.244C707.202 222.549 706.704 222.78 706.124 222.938C705.544 223.097 704.896 223.176 704.182 223.176C703.525 223.176 702.878 223.094 702.239 222.93C701.606 222.76 701.032 222.502 700.517 222.156C700.001 221.805 699.588 221.356 699.277 220.812C698.973 220.261 698.82 219.607 698.82 218.852H701.914C701.914 219.227 701.964 219.543 702.063 219.801C702.163 220.059 702.31 220.267 702.503 220.425C702.696 220.577 702.934 220.688 703.215 220.759C703.496 220.823 703.818 220.855 704.182 220.855C704.574 220.855 704.891 220.8 705.131 220.688C705.371 220.571 705.547 220.419 705.658 220.231C705.77 220.038 705.825 219.827 705.825 219.599ZM717.638 220.891L721.206 223.721L719.29 225.338L715.783 222.508L717.638 220.891ZM721.355 216.347V216.865C721.355 217.844 721.218 218.723 720.942 219.502C720.673 220.275 720.286 220.938 719.782 221.488C719.284 222.033 718.695 222.452 718.016 222.745C717.336 223.032 716.586 223.176 715.766 223.176C714.939 223.176 714.184 223.032 713.498 222.745C712.818 222.452 712.227 222.033 711.723 221.488C711.225 220.938 710.838 220.275 710.562 219.502C710.293 218.723 710.158 217.844 710.158 216.865V216.347C710.158 215.368 710.293 214.489 710.562 213.71C710.838 212.931 711.222 212.269 711.714 211.724C712.212 211.173 712.801 210.754 713.48 210.467C714.166 210.174 714.922 210.027 715.748 210.027C716.568 210.027 717.318 210.174 717.998 210.467C718.684 210.754 719.275 211.173 719.773 211.724C720.277 212.269 720.667 212.931 720.942 213.71C721.218 214.489 721.355 215.368 721.355 216.347ZM718.218 216.865V216.329C718.218 215.696 718.162 215.14 718.051 214.659C717.945 214.173 717.787 213.766 717.576 213.438C717.365 213.109 717.104 212.863 716.794 212.699C716.489 212.529 716.141 212.444 715.748 212.444C715.338 212.444 714.98 212.529 714.676 212.699C714.371 212.863 714.116 213.109 713.911 213.438C713.706 213.766 713.551 214.173 713.445 214.659C713.346 215.14 713.296 215.696 713.296 216.329V216.865C713.296 217.492 713.346 218.049 713.445 218.535C713.551 219.016 713.706 219.423 713.911 219.757C714.122 220.091 714.38 220.343 714.685 220.513C714.995 220.683 715.355 220.768 715.766 220.768C716.158 220.768 716.507 220.683 716.812 220.513C717.116 220.343 717.371 220.091 717.576 219.757C717.787 219.423 717.945 219.016 718.051 218.535C718.162 218.049 718.218 217.492 718.218 216.865ZM731.384 220.627V223H724.915V220.627H731.384ZM726.014 210.203V223H722.929V210.203H726.014Z" fill="white"/>
<rect x="774" y="196" width="129" height="41" rx="3" fill="#424242"/>
<rect x="774" y="196" width="129" height="41" rx="3" stroke="#424242" stroke-width="4"/>
<path d="M800.479 210.203V223H797.394V210.203H800.479ZM805.453 215.529V217.902H799.6V215.529H805.453ZM805.954 210.203V212.585H799.6V210.203H805.954ZM810.226 213.49V223H807.255V213.49H810.226ZM807.079 211.038C807.079 210.616 807.231 210.271 807.536 210.001C807.841 209.731 808.236 209.597 808.723 209.597C809.209 209.597 809.604 209.731 809.909 210.001C810.214 210.271 810.366 210.616 810.366 211.038C810.366 211.46 810.214 211.806 809.909 212.075C809.604 212.345 809.209 212.479 808.723 212.479C808.236 212.479 807.841 212.345 807.536 212.075C807.231 211.806 807.079 211.46 807.079 211.038ZM818.03 213.49H820.72V222.631C820.72 223.51 820.518 224.254 820.113 224.863C819.709 225.479 819.144 225.944 818.417 226.261C817.696 226.583 816.853 226.744 815.886 226.744C815.458 226.744 815.021 226.688 814.576 226.577C814.131 226.472 813.715 226.313 813.328 226.103C812.941 225.892 812.616 225.631 812.353 225.32L813.592 223.58C813.832 223.85 814.134 224.078 814.497 224.266C814.86 224.459 815.288 224.556 815.78 224.556C816.208 224.556 816.565 224.479 816.853 224.327C817.146 224.175 817.368 223.952 817.521 223.659C817.673 223.372 817.749 223.023 817.749 222.613V215.74L818.03 213.49ZM811.711 218.359V218.175C811.711 217.454 811.799 216.798 811.975 216.206C812.156 215.608 812.414 215.096 812.748 214.668C813.088 214.234 813.498 213.9 813.979 213.666C814.459 213.432 815.001 213.314 815.604 213.314C816.255 213.314 816.788 213.44 817.204 213.692C817.626 213.938 817.963 214.284 818.215 214.729C818.473 215.175 818.672 215.696 818.812 216.294C818.959 216.886 819.082 217.524 819.182 218.21V218.43C819.082 219.074 818.944 219.684 818.769 220.258C818.599 220.826 818.376 221.33 818.101 221.77C817.825 222.209 817.479 222.555 817.063 222.807C816.653 223.053 816.161 223.176 815.587 223.176C814.989 223.176 814.45 223.056 813.97 222.815C813.495 222.575 813.088 222.238 812.748 221.805C812.414 221.371 812.156 220.861 811.975 220.275C811.799 219.689 811.711 219.051 811.711 218.359ZM814.673 218.175V218.359C814.673 218.717 814.705 219.048 814.77 219.353C814.84 219.657 814.945 219.927 815.086 220.161C815.227 220.39 815.399 220.568 815.604 220.697C815.815 220.826 816.062 220.891 816.343 220.891C816.771 220.891 817.116 220.8 817.38 220.618C817.644 220.437 817.834 220.179 817.951 219.845C818.068 219.511 818.118 219.118 818.101 218.667V217.973C818.112 217.586 818.086 217.246 818.021 216.953C817.957 216.654 817.854 216.405 817.714 216.206C817.579 216.007 817.397 215.857 817.169 215.758C816.946 215.652 816.677 215.6 816.36 215.6C816.085 215.6 815.842 215.664 815.631 215.793C815.42 215.922 815.244 216.104 815.104 216.338C814.963 216.566 814.854 216.839 814.778 217.155C814.708 217.466 814.673 217.806 814.673 218.175ZM825.413 215.503V223H822.451V213.49H825.229L825.413 215.503ZM825.053 217.92L824.376 217.938C824.376 217.27 824.455 216.654 824.613 216.092C824.771 215.529 825.006 215.04 825.316 214.624C825.627 214.208 826.008 213.886 826.459 213.657C826.916 213.429 827.443 213.314 828.041 213.314C828.457 213.314 828.835 213.379 829.175 213.508C829.515 213.631 829.808 213.827 830.054 214.097C830.3 214.36 830.487 214.706 830.616 215.134C830.751 215.556 830.818 216.062 830.818 216.654V223H827.856V217.032C827.856 216.628 827.81 216.323 827.716 216.118C827.628 215.913 827.499 215.775 827.329 215.705C827.159 215.635 826.951 215.6 826.705 215.6C826.447 215.6 826.216 215.658 826.011 215.775C825.806 215.893 825.63 216.057 825.483 216.268C825.343 216.473 825.234 216.716 825.158 216.997C825.088 217.278 825.053 217.586 825.053 217.92ZM830.484 217.92L829.658 217.938C829.658 217.27 829.731 216.654 829.878 216.092C830.03 215.529 830.256 215.04 830.555 214.624C830.859 214.208 831.237 213.886 831.688 213.657C832.14 213.429 832.664 213.314 833.262 213.314C833.695 213.314 834.094 213.379 834.457 213.508C834.82 213.637 835.134 213.845 835.397 214.132C835.661 214.419 835.866 214.8 836.013 215.274C836.159 215.743 836.232 216.323 836.232 217.015V223H833.262V217.015C833.262 216.622 833.215 216.326 833.121 216.127C833.033 215.922 832.904 215.784 832.734 215.714C832.564 215.638 832.362 215.6 832.128 215.6C831.847 215.6 831.604 215.658 831.398 215.775C831.193 215.893 831.021 216.057 830.88 216.268C830.745 216.473 830.646 216.716 830.581 216.997C830.517 217.278 830.484 217.586 830.484 217.92ZM842.868 220.609V216.689C842.868 216.42 842.83 216.188 842.754 215.995C842.678 215.802 842.558 215.652 842.394 215.547C842.229 215.436 842.01 215.38 841.734 215.38C841.512 215.38 841.321 215.418 841.163 215.494C841.005 215.57 840.885 215.685 840.803 215.837C840.721 215.989 840.68 216.183 840.68 216.417H837.718C837.718 215.978 837.814 215.57 838.008 215.195C838.207 214.814 838.488 214.483 838.852 214.202C839.221 213.921 839.66 213.704 840.17 213.552C840.686 213.394 841.26 213.314 841.893 213.314C842.648 213.314 843.322 213.44 843.914 213.692C844.512 213.944 844.983 214.322 845.329 214.826C845.675 215.324 845.848 215.951 845.848 216.707V220.601C845.848 221.222 845.883 221.693 845.953 222.016C846.023 222.332 846.123 222.61 846.252 222.851V223H843.281C843.141 222.707 843.035 222.35 842.965 221.928C842.9 221.5 842.868 221.061 842.868 220.609ZM843.229 217.19L843.246 218.772H841.937C841.661 218.772 841.427 218.811 841.233 218.887C841.046 218.963 840.894 219.068 840.776 219.203C840.665 219.332 840.583 219.479 840.53 219.643C840.483 219.807 840.46 219.979 840.46 220.161C840.46 220.337 840.501 220.495 840.583 220.636C840.671 220.771 840.788 220.876 840.935 220.952C841.081 221.028 841.245 221.066 841.427 221.066C841.755 221.066 842.033 221.005 842.262 220.882C842.496 220.753 842.675 220.598 842.798 220.416C842.921 220.234 842.982 220.064 842.982 219.906L843.633 221.119C843.516 221.354 843.381 221.591 843.229 221.831C843.082 222.071 842.897 222.294 842.675 222.499C842.458 222.698 842.191 222.862 841.875 222.991C841.559 223.114 841.175 223.176 840.724 223.176C840.138 223.176 839.599 223.056 839.106 222.815C838.62 222.575 838.23 222.241 837.938 221.813C837.645 221.38 837.498 220.882 837.498 220.319C837.498 219.827 837.586 219.388 837.762 219.001C837.943 218.614 838.216 218.286 838.579 218.017C838.942 217.747 839.405 217.542 839.968 217.401C840.53 217.261 841.192 217.19 841.954 217.19H843.229ZM857.537 212.893L854.417 223H851.104L855.806 210.203H857.906L857.537 212.893ZM860.121 223L856.992 212.893L856.588 210.203H858.715L863.443 223H860.121ZM859.998 218.228V220.609H853.433V218.228H859.998ZM869.49 218.658H866.309V216.276H869.49C869.924 216.276 870.275 216.203 870.545 216.057C870.814 215.91 871.011 215.708 871.134 215.45C871.263 215.187 871.327 214.891 871.327 214.562C871.327 214.211 871.263 213.886 871.134 213.587C871.011 213.288 870.814 213.048 870.545 212.866C870.275 212.679 869.924 212.585 869.49 212.585H867.469V223H864.384V210.203H869.49C870.516 210.203 871.397 210.391 872.136 210.766C872.88 211.141 873.451 211.656 873.85 212.312C874.248 212.963 874.447 213.707 874.447 214.545C874.447 215.371 874.248 216.092 873.85 216.707C873.451 217.322 872.88 217.803 872.136 218.148C871.397 218.488 870.516 218.658 869.49 218.658ZM879.387 210.203V223H876.311V210.203H879.387Z" fill="white"/>
<path d="M1066 0H1348C1356.28 0 1363 6.71573 1363 15V282C1363 290.284 1356.28 297 1348 297H1066V0Z" fill="white"/>
<circle opacity="0.8" cx="1214.52" cy="148.458" r="73.6" transform="rotate(90 1214.52 148.458)" fill="#611CE0"/>
<circle cx="1214.5" cy="148.5" r="57.3913" transform="rotate(90 1214.5 148.5)" fill="#611CE0"/>
<path d="M1221.29 70.8912C1221.47 68.8584 1223.26 67.346 1225.28 67.6156C1239.87 69.5602 1253.66 75.414 1265.19 84.5553C1266.79 85.823 1266.95 88.1641 1265.61 89.7041L1265.11 90.2855C1263.77 91.8255 1261.44 91.9806 1259.83 90.7209C1249.61 82.7009 1237.44 77.5356 1224.57 75.7538C1222.55 75.474 1221.05 73.6914 1221.22 71.6586L1221.29 70.8912Z" fill="#611CE0"/>
<path d="M1207.71 70.8912C1207.53 68.8584 1205.74 67.346 1203.72 67.6156C1189.13 69.5602 1175.34 75.414 1163.81 84.5553C1162.21 85.823 1162.05 88.1641 1163.39 89.7041L1163.9 90.2855C1165.23 91.8255 1167.56 91.9806 1169.17 90.7209C1179.39 82.7009 1191.56 77.5356 1204.43 75.7538C1206.45 75.474 1207.96 73.6914 1207.78 71.6586L1207.71 70.8912Z" fill="#611CE0"/>
<path d="M1221.29 226.109C1221.47 228.141 1223.26 229.654 1225.28 229.384C1239.87 227.44 1253.66 221.586 1265.19 212.445C1266.79 211.177 1266.95 208.836 1265.61 207.296L1265.11 206.714C1263.77 205.174 1261.44 205.019 1259.83 206.279C1249.61 214.299 1237.44 219.464 1224.57 221.246C1222.55 221.526 1221.05 223.308 1221.22 225.341L1221.29 226.109Z" fill="#611CE0"/>
<path d="M1207.71 226.109C1207.53 228.141 1205.74 229.654 1203.72 229.384C1189.13 227.44 1175.34 221.586 1163.81 212.445C1162.21 211.177 1162.05 208.836 1163.39 207.296L1163.9 206.714C1165.23 205.174 1167.56 205.019 1169.17 206.279C1179.39 214.299 1191.56 219.464 1204.43 221.246C1206.45 221.526 1207.96 223.308 1207.78 225.341L1207.71 226.109Z" fill="#611CE0"/>
<path d="M1274.18 98.4234C1275.74 97.1117 1278.08 97.3109 1279.32 98.9318C1288.26 110.62 1293.87 124.511 1295.56 139.129C1295.79 141.156 1294.25 142.923 1292.22 143.065L1291.45 143.119C1289.41 143.262 1287.66 141.725 1287.41 139.699C1285.85 126.8 1280.9 114.543 1273.06 104.183C1271.83 102.556 1272.03 100.23 1273.59 98.9186L1274.18 98.4234Z" fill="#611CE0"/>
<path d="M1154.82 98.4234C1153.26 97.1117 1150.92 97.3109 1149.68 98.9318C1140.74 110.62 1135.13 124.511 1133.44 139.129C1133.21 141.156 1134.75 142.923 1136.79 143.065L1137.55 143.119C1139.59 143.262 1141.35 141.725 1141.59 139.699C1143.15 126.8 1148.1 114.543 1155.94 104.183C1157.17 102.556 1156.98 100.23 1155.41 98.9186L1154.82 98.4234Z" fill="#611CE0"/>
<path d="M1274.18 198.576C1275.74 199.888 1278.08 199.689 1279.32 198.068C1288.26 186.379 1293.87 172.489 1295.56 157.871C1295.79 155.844 1294.25 154.077 1292.22 153.934L1291.45 153.881C1289.41 153.738 1287.66 155.275 1287.41 157.301C1285.85 170.2 1280.9 182.457 1273.06 192.817C1271.83 194.444 1272.03 196.77 1273.59 198.081L1274.18 198.576Z" fill="#611CE0"/>
<path d="M1154.82 198.576C1153.26 199.888 1150.92 199.689 1149.68 198.068C1140.74 186.379 1135.13 172.489 1133.44 157.871C1133.21 155.844 1134.75 154.077 1136.79 153.934L1137.55 153.881C1139.59 153.738 1141.35 155.275 1141.59 157.301C1143.15 170.2 1148.1 182.457 1155.94 192.817C1157.17 194.444 1156.98 196.77 1155.41 198.081L1154.82 198.576Z" fill="#611CE0"/>
<path d="M1211.48 232.38C1211.48 230.723 1212.82 229.38 1214.48 229.38C1216.13 229.38 1217.48 230.723 1217.48 232.38L1214.48 232.38L1211.48 232.38ZM1216.6 266.781C1215.43 267.953 1213.53 267.953 1212.36 266.781L1193.26 247.689C1192.09 246.518 1192.09 244.618 1193.26 243.447C1194.44 242.275 1196.33 242.275 1197.51 243.447L1214.48 260.417L1231.45 243.447C1232.62 242.275 1234.52 242.275 1235.69 243.447C1236.86 244.618 1236.86 246.518 1235.69 247.689L1216.6 266.781ZM1214.48 232.38L1217.48 232.38L1217.48 264.66L1214.48 264.66L1211.48 264.66L1211.48 232.38L1214.48 232.38Z" fill="#611CE0"/>
<path d="M1211.48 64.3799C1211.48 66.0367 1212.82 67.3799 1214.48 67.3799C1216.13 67.3799 1217.48 66.0367 1217.48 64.3799L1214.48 64.3799L1211.48 64.3799ZM1216.6 29.9786C1215.43 28.807 1213.53 28.807 1212.36 29.9786L1193.26 49.0704C1192.09 50.242 1192.09 52.1415 1193.26 53.3131C1194.44 54.4847 1196.33 54.4847 1197.51 53.3131L1214.48 36.3425L1231.45 53.3131C1232.62 54.4847 1234.52 54.4847 1235.69 53.3131C1236.86 52.1415 1236.86 50.242 1235.69 49.0704L1216.6 29.9786ZM1214.48 64.3799L1217.48 64.3799L1217.48 32.0999L1214.48 32.0999L1211.48 32.0999L1211.48 64.3799L1214.48 64.3799Z" fill="#611CE0"/>
<path d="M1130.38 151.477C1132.04 151.477 1133.38 150.134 1133.38 148.477C1133.38 146.82 1132.04 145.477 1130.38 145.477L1130.38 148.477L1130.38 151.477ZM1095.98 146.356C1094.81 147.527 1094.81 149.427 1095.98 150.598L1115.07 169.69C1116.24 170.862 1118.14 170.862 1119.31 169.69C1120.48 168.518 1120.48 166.619 1119.31 165.447L1102.34 148.477L1119.31 131.506C1120.48 130.335 1120.48 128.435 1119.31 127.264C1118.14 126.092 1116.24 126.092 1115.07 127.264L1095.98 146.356ZM1130.38 148.477L1130.38 145.477L1098.1 145.477L1098.1 148.477L1098.1 151.477L1130.38 151.477L1130.38 148.477Z" fill="#611CE0"/>
<path d="M1298.62 151.477C1296.96 151.477 1295.62 150.134 1295.62 148.477C1295.62 146.82 1296.96 145.477 1298.62 145.477L1298.62 148.477L1298.62 151.477ZM1333.02 146.356C1334.19 147.527 1334.19 149.427 1333.02 150.598L1313.93 169.69C1312.76 170.862 1310.86 170.862 1309.69 169.69C1308.52 168.518 1308.52 166.619 1309.69 165.447L1326.66 148.477L1309.69 131.506C1308.52 130.335 1308.52 128.435 1309.69 127.264C1310.86 126.092 1312.76 126.092 1313.93 127.264L1333.02 146.356ZM1298.62 148.477L1298.62 145.477L1330.9 145.477L1330.9 148.477L1330.9 151.477L1298.62 151.477L1298.62 148.477Z" fill="#611CE0"/>
<path d="M1154.57 211.076C1155.74 209.904 1155.74 208.005 1154.57 206.833C1153.39 205.662 1151.5 205.662 1150.32 206.833L1152.44 208.955L1154.57 211.076ZM1126.62 231.78C1126.62 233.437 1127.96 234.78 1129.62 234.78L1156.62 234.78C1158.28 234.78 1159.62 233.437 1159.62 231.78C1159.62 230.123 1158.28 228.78 1156.62 228.78H1132.62V204.78C1132.62 203.123 1131.28 201.78 1129.62 201.78C1127.96 201.78 1126.62 203.123 1126.62 204.78L1126.62 231.78ZM1152.44 208.955L1150.32 206.833L1127.5 229.659L1129.62 231.78L1131.74 233.901L1154.57 211.076L1152.44 208.955Z" fill="#611CE0"/>
<path d="M1154.57 85.9238C1155.74 87.0954 1155.74 88.9949 1154.57 90.1665C1153.39 91.3381 1151.5 91.3381 1150.32 90.1665L1152.44 88.0452L1154.57 85.9238ZM1126.62 65.2198C1126.62 63.5629 1127.96 62.2198 1129.62 62.2198L1156.62 62.2198C1158.28 62.2198 1159.62 63.5629 1159.62 65.2198C1159.62 66.8766 1158.28 68.2198 1156.62 68.2198H1132.62V92.2198C1132.62 93.8766 1131.28 95.2197 1129.62 95.2197C1127.96 95.2198 1126.62 93.8766 1126.62 92.2198L1126.62 65.2198ZM1152.44 88.0452L1150.32 90.1665L1127.5 67.3411L1129.62 65.2198L1131.74 63.0985L1154.57 85.9238L1152.44 88.0452Z" fill="#611CE0"/>
<path d="M1274.39 211.076C1273.22 209.904 1273.22 208.005 1274.39 206.833C1275.56 205.662 1277.46 205.662 1278.63 206.833L1276.51 208.955L1274.39 211.076ZM1302.33 231.78C1302.33 233.437 1300.99 234.78 1299.33 234.78L1272.33 234.78C1270.68 234.78 1269.33 233.437 1269.33 231.78C1269.33 230.123 1270.68 228.78 1272.33 228.78H1296.33V204.78C1296.33 203.123 1297.68 201.78 1299.33 201.78C1300.99 201.78 1302.33 203.123 1302.33 204.78L1302.33 231.78ZM1276.51 208.955L1278.63 206.833L1301.46 229.659L1299.33 231.78L1297.21 233.901L1274.39 211.076L1276.51 208.955Z" fill="#611CE0"/>
<path d="M1274.39 85.9238C1273.22 87.0954 1273.22 88.9949 1274.39 90.1665C1275.56 91.3381 1277.46 91.3381 1278.63 90.1665L1276.51 88.0452L1274.39 85.9238ZM1302.33 65.2198C1302.33 63.5629 1300.99 62.2198 1299.33 62.2198L1272.33 62.2198C1270.68 62.2198 1269.33 63.5629 1269.33 65.2198C1269.33 66.8766 1270.68 68.2198 1272.33 68.2198H1296.33V92.2198C1296.33 93.8766 1297.68 95.2197 1299.33 95.2197C1300.99 95.2198 1302.33 93.8766 1302.33 92.2198L1302.33 65.2198ZM1276.51 88.0452L1278.63 90.1665L1301.46 67.3411L1299.33 65.2198L1297.21 63.0985L1274.39 85.9238L1276.51 88.0452Z" fill="#611CE0"/>
</svg>
