<svg width="1363" height="163" viewBox="0 0 1363 163" fill="none" xmlns="http://www.w3.org/2000/svg">
<path d="M0 15C0 6.71573 6.71573 0 15 0H37V163H15C6.71573 163 0 156.284 0 148V15Z" fill="#424242"/>
<rect width="1097" height="163" transform="translate(37)" fill="#F0F0F0"/>
<path d="M101.906 53.9219L94.3945 51.2383V48.0859L104.602 52.375V54.6367L101.906 53.9219ZM94.3945 56.1719L101.918 53.4297L104.602 52.7852V55.0352L94.3945 59.3242V56.1719ZM121.781 56.5352C121.781 56.2305 121.734 55.957 121.641 55.7148C121.555 55.4648 121.391 55.2383 121.148 55.0352C120.906 54.8242 120.566 54.6172 120.129 54.4141C119.691 54.2109 119.125 54 118.43 53.7812C117.656 53.5312 116.922 53.25 116.227 52.9375C115.539 52.625 114.93 52.2617 114.398 51.8477C113.875 51.4258 113.461 50.9375 113.156 50.3828C112.859 49.8281 112.711 49.1836 112.711 48.4492C112.711 47.7383 112.867 47.0938 113.18 46.5156C113.492 45.9297 113.93 45.4297 114.492 45.0156C115.055 44.5938 115.719 44.2695 116.484 44.043C117.258 43.8164 118.105 43.7031 119.027 43.7031C120.285 43.7031 121.383 43.9297 122.32 44.3828C123.258 44.8359 123.984 45.457 124.5 46.2461C125.023 47.0352 125.285 47.9375 125.285 48.9531H121.793C121.793 48.4531 121.688 48.0156 121.477 47.6406C121.273 47.2578 120.961 46.957 120.539 46.7383C120.125 46.5195 119.602 46.4102 118.969 46.4102C118.359 46.4102 117.852 46.5039 117.445 46.6914C117.039 46.8711 116.734 47.1172 116.531 47.4297C116.328 47.7344 116.227 48.0781 116.227 48.4609C116.227 48.75 116.297 49.0117 116.438 49.2461C116.586 49.4805 116.805 49.6992 117.094 49.9023C117.383 50.1055 117.738 50.2969 118.16 50.4766C118.582 50.6562 119.07 50.832 119.625 51.0039C120.555 51.2852 121.371 51.6016 122.074 51.9531C122.785 52.3047 123.379 52.6992 123.855 53.1367C124.332 53.5742 124.691 54.0703 124.934 54.625C125.176 55.1797 125.297 55.8086 125.297 56.5117C125.297 57.2539 125.152 57.918 124.863 58.5039C124.574 59.0898 124.156 59.5859 123.609 59.9922C123.062 60.3984 122.41 60.707 121.652 60.918C120.895 61.1289 120.047 61.2344 119.109 61.2344C118.266 61.2344 117.434 61.125 116.613 60.9062C115.793 60.6797 115.047 60.3398 114.375 59.8867C113.711 59.4336 113.18 58.8555 112.781 58.1523C112.383 57.4492 112.184 56.6172 112.184 55.6562H115.711C115.711 56.1875 115.793 56.6367 115.957 57.0039C116.121 57.3711 116.352 57.668 116.648 57.8945C116.953 58.1211 117.312 58.2852 117.727 58.3867C118.148 58.4883 118.609 58.5391 119.109 58.5391C119.719 58.5391 120.219 58.4531 120.609 58.2812C121.008 58.1094 121.301 57.8711 121.488 57.5664C121.684 57.2617 121.781 56.918 121.781 56.5352ZM126.938 54.7891V54.543C126.938 53.6133 127.07 52.7578 127.336 51.9766C127.602 51.1875 127.988 50.5039 128.496 49.9258C129.004 49.3477 129.629 48.8984 130.371 48.5781C131.113 48.25 131.965 48.0859 132.926 48.0859C133.887 48.0859 134.742 48.25 135.492 48.5781C136.242 48.8984 136.871 49.3477 137.379 49.9258C137.895 50.5039 138.285 51.1875 138.551 51.9766C138.816 52.7578 138.949 53.6133 138.949 54.543V54.7891C138.949 55.7109 138.816 56.5664 138.551 57.3555C138.285 58.1367 137.895 58.8203 137.379 59.4062C136.871 59.9844 136.246 60.4336 135.504 60.7539C134.762 61.0742 133.91 61.2344 132.949 61.2344C131.988 61.2344 131.133 61.0742 130.383 60.7539C129.641 60.4336 129.012 59.9844 128.496 59.4062C127.988 58.8203 127.602 58.1367 127.336 57.3555C127.07 56.5664 126.938 55.7109 126.938 54.7891ZM130.312 54.543V54.7891C130.312 55.3203 130.359 55.8164 130.453 56.2773C130.547 56.7383 130.695 57.1445 130.898 57.4961C131.109 57.8398 131.383 58.1094 131.719 58.3047C132.055 58.5 132.465 58.5977 132.949 58.5977C133.418 58.5977 133.82 58.5 134.156 58.3047C134.492 58.1094 134.762 57.8398 134.965 57.4961C135.168 57.1445 135.316 56.7383 135.41 56.2773C135.512 55.8164 135.562 55.3203 135.562 54.7891V54.543C135.562 54.0273 135.512 53.543 135.41 53.0898C135.316 52.6289 135.164 52.2227 134.953 51.8711C134.75 51.5117 134.48 51.2305 134.145 51.0273C133.809 50.8242 133.402 50.7227 132.926 50.7227C132.449 50.7227 132.043 50.8242 131.707 51.0273C131.379 51.2305 131.109 51.5117 130.898 51.8711C130.695 52.2227 130.547 52.6289 130.453 53.0898C130.359 53.543 130.312 54.0273 130.312 54.543ZM148.523 57.9648V48.3203H151.898V61H148.723L148.523 57.9648ZM148.898 55.3633L149.895 55.3398C149.895 56.1836 149.797 56.9688 149.602 57.6953C149.406 58.4141 149.113 59.0391 148.723 59.5703C148.332 60.0938 147.84 60.5039 147.246 60.8008C146.652 61.0898 145.953 61.2344 145.148 61.2344C144.531 61.2344 143.961 61.1484 143.438 60.9766C142.922 60.7969 142.477 60.5195 142.102 60.1445C141.734 59.7617 141.445 59.2734 141.234 58.6797C141.031 58.0781 140.93 57.3555 140.93 56.5117V48.3203H144.305V56.5352C144.305 56.9102 144.348 57.2266 144.434 57.4844C144.527 57.7422 144.656 57.9531 144.82 58.1172C144.984 58.2812 145.176 58.3984 145.395 58.4688C145.621 58.5391 145.871 58.5742 146.145 58.5742C146.84 58.5742 147.387 58.4336 147.785 58.1523C148.191 57.8711 148.477 57.4883 148.641 57.0039C148.812 56.5117 148.898 55.9648 148.898 55.3633ZM157.852 51.0859V61H154.477V48.3203H157.652L157.852 51.0859ZM161.672 48.2383L161.613 51.3672C161.449 51.3438 161.25 51.3242 161.016 51.3086C160.789 51.2852 160.582 51.2734 160.395 51.2734C159.918 51.2734 159.504 51.3359 159.152 51.4609C158.809 51.5781 158.52 51.7539 158.285 51.9883C158.059 52.2227 157.887 52.5078 157.77 52.8438C157.66 53.1797 157.598 53.5625 157.582 53.9922L156.902 53.7812C156.902 52.9609 156.984 52.207 157.148 51.5195C157.312 50.8242 157.551 50.2188 157.863 49.7031C158.184 49.1875 158.574 48.7891 159.035 48.5078C159.496 48.2266 160.023 48.0859 160.617 48.0859C160.805 48.0859 160.996 48.1016 161.191 48.1328C161.387 48.1562 161.547 48.1914 161.672 48.2383ZM168.27 58.5977C168.684 58.5977 169.051 58.5195 169.371 58.3633C169.691 58.1992 169.941 57.9727 170.121 57.6836C170.309 57.3867 170.406 57.0391 170.414 56.6406H173.59C173.582 57.5312 173.344 58.3242 172.875 59.0195C172.406 59.707 171.777 60.25 170.988 60.6484C170.199 61.0391 169.316 61.2344 168.34 61.2344C167.355 61.2344 166.496 61.0703 165.762 60.7422C165.035 60.4141 164.43 59.9609 163.945 59.3828C163.461 58.7969 163.098 58.1172 162.855 57.3438C162.613 56.5625 162.492 55.7266 162.492 54.8359V54.4961C162.492 53.5977 162.613 52.7617 162.855 51.9883C163.098 51.207 163.461 50.5273 163.945 49.9492C164.43 49.3633 165.035 48.9062 165.762 48.5781C166.488 48.25 167.34 48.0859 168.316 48.0859C169.355 48.0859 170.266 48.2852 171.047 48.6836C171.836 49.082 172.453 49.6523 172.898 50.3945C173.352 51.1289 173.582 52 173.59 53.0078H170.414C170.406 52.5859 170.316 52.2031 170.145 51.8594C169.98 51.5156 169.738 51.2422 169.418 51.0391C169.105 50.8281 168.719 50.7227 168.258 50.7227C167.766 50.7227 167.363 50.8281 167.051 51.0391C166.738 51.2422 166.496 51.5234 166.324 51.8828C166.152 52.2344 166.031 52.6367 165.961 53.0898C165.898 53.5352 165.867 54.0039 165.867 54.4961V54.8359C165.867 55.3281 165.898 55.8008 165.961 56.2539C166.023 56.707 166.141 57.1094 166.312 57.4609C166.492 57.8125 166.738 58.0898 167.051 58.293C167.363 58.4961 167.77 58.5977 168.27 58.5977ZM181.383 61.2344C180.398 61.2344 179.516 61.0781 178.734 60.7656C177.953 60.4453 177.289 60.0039 176.742 59.4414C176.203 58.8789 175.789 58.2266 175.5 57.4844C175.211 56.7344 175.066 55.9375 175.066 55.0938V54.625C175.066 53.6641 175.203 52.7852 175.477 51.9883C175.75 51.1914 176.141 50.5 176.648 49.9141C177.164 49.3281 177.789 48.8789 178.523 48.5664C179.258 48.2461 180.086 48.0859 181.008 48.0859C181.906 48.0859 182.703 48.2344 183.398 48.5312C184.094 48.8281 184.676 49.25 185.145 49.7969C185.621 50.3438 185.98 51 186.223 51.7656C186.465 52.5234 186.586 53.3672 186.586 54.2969V55.7031H176.508V53.4531H183.27V53.1953C183.27 52.7266 183.184 52.3086 183.012 51.9414C182.848 51.5664 182.598 51.2695 182.262 51.0508C181.926 50.832 181.496 50.7227 180.973 50.7227C180.527 50.7227 180.145 50.8203 179.824 51.0156C179.504 51.2109 179.242 51.4844 179.039 51.8359C178.844 52.1875 178.695 52.6016 178.594 53.0781C178.5 53.5469 178.453 54.0625 178.453 54.625V55.0938C178.453 55.6016 178.523 56.0703 178.664 56.5C178.812 56.9297 179.02 57.3008 179.285 57.6133C179.559 57.9258 179.887 58.168 180.27 58.3398C180.66 58.5117 181.102 58.5977 181.594 58.5977C182.203 58.5977 182.77 58.4805 183.293 58.2461C183.824 58.0039 184.281 57.6406 184.664 57.1562L186.305 58.9375C186.039 59.3203 185.676 59.6875 185.215 60.0391C184.762 60.3906 184.215 60.6797 183.574 60.9062C182.934 61.125 182.203 61.2344 181.383 61.2344Z" fill="#888888"/>
<path d="M106.688 119H99.1172L99.1641 112.672H106.688C108.25 112.672 109.57 112.297 110.648 111.547C111.742 110.797 112.57 109.68 113.133 108.195C113.711 106.695 114 104.852 114 102.664V101.188C114 99.5469 113.836 98.1094 113.508 96.875C113.195 95.625 112.727 94.5859 112.102 93.7578C111.477 92.9141 110.695 92.2812 109.758 91.8594C108.836 91.4375 107.773 91.2266 106.57 91.2266H98.9766V84.875H106.57C108.883 84.875 111 85.2734 112.922 86.0703C114.859 86.8516 116.531 87.9766 117.938 89.4453C119.359 90.8984 120.453 92.625 121.219 94.625C122 96.6094 122.391 98.8125 122.391 101.234V102.664C122.391 105.07 122 107.273 121.219 109.273C120.453 111.273 119.367 113 117.961 114.453C116.555 115.906 114.891 117.031 112.969 117.828C111.062 118.609 108.969 119 106.688 119ZM103.828 84.875V119H95.6016V84.875H103.828ZM138.586 119.469C136.523 119.469 134.68 119.148 133.055 118.508C131.43 117.852 130.055 116.953 128.93 115.812C127.82 114.672 126.969 113.359 126.375 111.875C125.797 110.391 125.508 108.82 125.508 107.164V106.273C125.508 104.414 125.766 102.695 126.281 101.117C126.797 99.5234 127.562 98.1328 128.578 96.9453C129.594 95.7578 130.867 94.8359 132.398 94.1797C133.93 93.5078 135.711 93.1719 137.742 93.1719C139.539 93.1719 141.148 93.4609 142.57 94.0391C143.992 94.6172 145.195 95.4453 146.18 96.5234C147.18 97.6016 147.938 98.9062 148.453 100.438C148.984 101.969 149.25 103.688 149.25 105.594V108.805H128.531V103.859H141.539V103.25C141.555 102.406 141.406 101.688 141.094 101.094C140.797 100.5 140.359 100.047 139.781 99.7344C139.203 99.4219 138.5 99.2656 137.672 99.2656C136.812 99.2656 136.102 99.4531 135.539 99.8281C134.992 100.203 134.562 100.719 134.25 101.375C133.953 102.016 133.742 102.758 133.617 103.602C133.492 104.445 133.43 105.336 133.43 106.273V107.164C133.43 108.102 133.555 108.953 133.805 109.719C134.07 110.484 134.445 111.141 134.93 111.688C135.43 112.219 136.023 112.633 136.711 112.93C137.414 113.227 138.211 113.375 139.102 113.375C140.18 113.375 141.242 113.172 142.289 112.766C143.336 112.359 144.234 111.688 144.984 110.75L148.57 115.016C148.055 115.75 147.32 116.461 146.367 117.148C145.43 117.836 144.305 118.398 142.992 118.836C141.68 119.258 140.211 119.469 138.586 119.469ZM160.43 98.5156V128.75H152.531V93.6406H159.891L160.43 98.5156ZM175.992 106.016V106.508C175.992 108.352 175.781 110.062 175.359 111.641C174.938 113.219 174.312 114.594 173.484 115.766C172.656 116.938 171.625 117.852 170.391 118.508C169.172 119.148 167.758 119.469 166.148 119.469C164.633 119.469 163.328 119.133 162.234 118.461C161.141 117.789 160.227 116.859 159.492 115.672C158.758 114.484 158.164 113.125 157.711 111.594C157.258 110.062 156.898 108.445 156.633 106.742V106.109C156.898 104.281 157.258 102.586 157.711 101.023C158.164 99.4453 158.758 98.0703 159.492 96.8984C160.227 95.7266 161.133 94.8125 162.211 94.1562C163.305 93.5 164.609 93.1719 166.125 93.1719C167.734 93.1719 169.148 93.4766 170.367 94.0859C171.602 94.6953 172.633 95.5703 173.461 96.7109C174.305 97.8359 174.938 99.1875 175.359 100.766C175.781 102.344 175.992 104.094 175.992 106.016ZM168.094 106.508V106.016C168.094 105.031 168.023 104.133 167.883 103.32C167.742 102.492 167.516 101.773 167.203 101.164C166.906 100.555 166.508 100.086 166.008 99.7578C165.508 99.4297 164.891 99.2656 164.156 99.2656C163.312 99.2656 162.602 99.3984 162.023 99.6641C161.461 99.9141 161.008 100.305 160.664 100.836C160.336 101.352 160.102 102 159.961 102.781C159.836 103.547 159.781 104.445 159.797 105.477V107.398C159.766 108.586 159.883 109.633 160.148 110.539C160.414 111.43 160.875 112.125 161.531 112.625C162.188 113.125 163.078 113.375 164.203 113.375C164.953 113.375 165.578 113.203 166.078 112.859C166.578 112.5 166.977 112.008 167.273 111.383C167.57 110.742 167.781 110.008 167.906 109.18C168.031 108.352 168.094 107.461 168.094 106.508ZM187.852 83V119H179.93V83H187.852ZM191.742 106.578V106.086C191.742 104.227 192.008 102.516 192.539 100.953C193.07 99.375 193.852 98.0078 194.883 96.8516C195.914 95.6953 197.188 94.7969 198.703 94.1562C200.219 93.5 201.969 93.1719 203.953 93.1719C205.953 93.1719 207.711 93.5 209.227 94.1562C210.758 94.7969 212.039 95.6953 213.07 96.8516C214.102 98.0078 214.883 99.375 215.414 100.953C215.945 102.516 216.211 104.227 216.211 106.086V106.578C216.211 108.422 215.945 110.133 215.414 111.711C214.883 113.273 214.102 114.641 213.07 115.812C212.039 116.969 210.766 117.867 209.25 118.508C207.734 119.148 205.984 119.469 204 119.469C202.016 119.469 200.258 119.148 198.727 118.508C197.195 117.867 195.914 116.969 194.883 115.812C193.852 114.641 193.07 113.273 192.539 111.711C192.008 110.133 191.742 108.422 191.742 106.578ZM199.641 106.086V106.578C199.641 107.531 199.711 108.422 199.852 109.25C199.992 110.078 200.227 110.805 200.555 111.43C200.883 112.039 201.328 112.516 201.891 112.859C202.453 113.203 203.156 113.375 204 113.375C204.828 113.375 205.516 113.203 206.062 112.859C206.625 112.516 207.07 112.039 207.398 111.43C207.727 110.805 207.961 110.078 208.102 109.25C208.242 108.422 208.312 107.531 208.312 106.578V106.086C208.312 105.164 208.242 104.297 208.102 103.484C207.961 102.656 207.727 101.93 207.398 101.305C207.07 100.664 206.625 100.164 206.062 99.8047C205.5 99.4453 204.797 99.2656 203.953 99.2656C203.125 99.2656 202.43 99.4453 201.867 99.8047C201.32 100.164 200.883 100.664 200.555 101.305C200.227 101.93 199.992 102.656 199.852 103.484C199.711 104.297 199.641 105.164 199.641 106.086ZM227.133 116.023L233.695 93.6406H242.18L231.984 122.773C231.766 123.414 231.477 124.102 231.117 124.836C230.758 125.586 230.266 126.297 229.641 126.969C229.016 127.641 228.211 128.188 227.227 128.609C226.258 129.031 225.055 129.242 223.617 129.242C222.852 129.242 222.289 129.203 221.93 129.125C221.586 129.062 221.055 128.945 220.336 128.773V123.125C220.539 123.125 220.711 123.125 220.852 123.125C221.008 123.125 221.18 123.125 221.367 123.125C222.211 123.125 222.883 123.039 223.383 122.867C223.898 122.695 224.289 122.445 224.555 122.117C224.836 121.789 225.055 121.391 225.211 120.922L227.133 116.023ZM225.469 93.6406L230.461 111.383L231.328 119.75H226.031L217.008 93.6406H225.469ZM252.211 99.0078V119H244.312V93.6406H251.719L252.211 99.0078ZM251.25 105.453L249.445 105.5C249.445 103.719 249.656 102.078 250.078 100.578C250.5 99.0781 251.125 97.7734 251.953 96.6641C252.781 95.5547 253.797 94.6953 255 94.0859C256.219 93.4766 257.625 93.1719 259.219 93.1719C260.328 93.1719 261.336 93.3438 262.242 93.6875C263.148 94.0156 263.93 94.5391 264.586 95.2578C265.242 95.9609 265.742 96.8828 266.086 98.0234C266.445 99.1484 266.625 100.5 266.625 102.078V119H258.727V103.086C258.727 102.008 258.602 101.195 258.352 100.648C258.117 100.102 257.773 99.7344 257.32 99.5469C256.867 99.3594 256.312 99.2656 255.656 99.2656C254.969 99.2656 254.352 99.4219 253.805 99.7344C253.258 100.047 252.789 100.484 252.398 101.047C252.023 101.594 251.734 102.242 251.531 102.992C251.344 103.742 251.25 104.562 251.25 105.453ZM265.734 105.453L263.531 105.5C263.531 103.719 263.727 102.078 264.117 100.578C264.523 99.0781 265.125 97.7734 265.922 96.6641C266.734 95.5547 267.742 94.6953 268.945 94.0859C270.148 93.4766 271.547 93.1719 273.141 93.1719C274.297 93.1719 275.359 93.3438 276.328 93.6875C277.297 94.0312 278.133 94.5859 278.836 95.3516C279.539 96.1172 280.086 97.1328 280.477 98.3984C280.867 99.6484 281.062 101.195 281.062 103.039V119H273.141V103.039C273.141 101.992 273.016 101.203 272.766 100.672C272.531 100.125 272.188 99.7578 271.734 99.5703C271.281 99.3672 270.742 99.2656 270.117 99.2656C269.367 99.2656 268.719 99.4219 268.172 99.7344C267.625 100.047 267.164 100.484 266.789 101.047C266.43 101.594 266.164 102.242 265.992 102.992C265.82 103.742 265.734 104.562 265.734 105.453ZM297.867 119.469C295.805 119.469 293.961 119.148 292.336 118.508C290.711 117.852 289.336 116.953 288.211 115.812C287.102 114.672 286.25 113.359 285.656 111.875C285.078 110.391 284.789 108.82 284.789 107.164V106.273C284.789 104.414 285.047 102.695 285.562 101.117C286.078 99.5234 286.844 98.1328 287.859 96.9453C288.875 95.7578 290.148 94.8359 291.68 94.1797C293.211 93.5078 294.992 93.1719 297.023 93.1719C298.82 93.1719 300.43 93.4609 301.852 94.0391C303.273 94.6172 304.477 95.4453 305.461 96.5234C306.461 97.6016 307.219 98.9062 307.734 100.438C308.266 101.969 308.531 103.688 308.531 105.594V108.805H287.812V103.859H300.82V103.25C300.836 102.406 300.688 101.688 300.375 101.094C300.078 100.5 299.641 100.047 299.062 99.7344C298.484 99.4219 297.781 99.2656 296.953 99.2656C296.094 99.2656 295.383 99.4531 294.82 99.8281C294.273 100.203 293.844 100.719 293.531 101.375C293.234 102.016 293.023 102.758 292.898 103.602C292.773 104.445 292.711 105.336 292.711 106.273V107.164C292.711 108.102 292.836 108.953 293.086 109.719C293.352 110.484 293.727 111.141 294.211 111.688C294.711 112.219 295.305 112.633 295.992 112.93C296.695 113.227 297.492 113.375 298.383 113.375C299.461 113.375 300.523 113.172 301.57 112.766C302.617 112.359 303.516 111.688 304.266 110.75L307.852 115.016C307.336 115.75 306.602 116.461 305.648 117.148C304.711 117.836 303.586 118.398 302.273 118.836C300.961 119.258 299.492 119.469 297.867 119.469ZM319.5 99.0547V119H311.602V93.6406H319.008L319.5 99.0547ZM318.562 105.453L316.711 105.5C316.711 103.562 316.945 101.836 317.414 100.32C317.883 98.7891 318.547 97.4922 319.406 96.4297C320.266 95.3672 321.289 94.5625 322.477 94.0156C323.68 93.4531 325.016 93.1719 326.484 93.1719C327.656 93.1719 328.727 93.3438 329.695 93.6875C330.68 94.0312 331.523 94.5859 332.227 95.3516C332.945 96.1172 333.492 97.1328 333.867 98.3984C334.258 99.6484 334.453 101.195 334.453 103.039V119H326.508V103.016C326.508 102 326.367 101.227 326.086 100.695C325.805 100.148 325.398 99.7734 324.867 99.5703C324.336 99.3672 323.688 99.2656 322.922 99.2656C322.109 99.2656 321.422 99.4219 320.859 99.7344C320.297 100.047 319.844 100.484 319.5 101.047C319.172 101.594 318.93 102.242 318.773 102.992C318.633 103.742 318.562 104.562 318.562 105.453ZM352.195 93.6406V99.125H336.914V93.6406H352.195ZM340.125 87.3359H348.023V110.727C348.023 111.398 348.102 111.922 348.258 112.297C348.414 112.656 348.68 112.914 349.055 113.07C349.445 113.211 349.961 113.281 350.602 113.281C351.055 113.281 351.43 113.273 351.727 113.258C352.023 113.227 352.305 113.188 352.57 113.141V118.789C351.898 119.008 351.195 119.172 350.461 119.281C349.727 119.406 348.945 119.469 348.117 119.469C346.43 119.469 344.984 119.203 343.781 118.672C342.594 118.141 341.688 117.305 341.062 116.164C340.438 115.023 340.125 113.539 340.125 111.711V87.3359Z" fill="black"/>
<path d="M1134 0H1348C1356.28 0 1363 6.71573 1363 15V148C1363 156.284 1356.28 163 1348 163H1134V0Z" fill="#601BDE"/>
<path d="M1212.5 117.5L1212.5 45.5L1284.5 45.5L1284.5 117.5L1212.5 117.5Z" fill="white" fill-opacity="0.01"/>
<path d="M1221.5 81.5125L1221.5 108.5L1275.5 108.5L1275.5 81.5" stroke="white" stroke-width="7.24" stroke-linecap="round" stroke-linejoin="round"/>
<path d="M1262 68L1248.5 54.5L1235 68" stroke="white" stroke-width="7.24" stroke-linecap="round" stroke-linejoin="round"/>
<path d="M1248.49 93.4999L1248.49 54.5" stroke="white" stroke-width="7.24" stroke-linecap="round" stroke-linejoin="round"/>
</svg>
