<svg width="1363" height="163" viewBox="0 0 1363 163" fill="none" xmlns="http://www.w3.org/2000/svg">
<path d="M0 15C0 6.71573 6.71573 0 15 0H37V163H15C6.71573 163 0 156.284 0 148V15Z" fill="#424242"/>
<rect width="1097" height="163" transform="translate(37)" fill="#F0F0F0"/>
<path d="M101.906 53.9219L94.3945 51.2383V48.0859L104.602 52.375V54.6367L101.906 53.9219ZM94.3945 56.1719L101.918 53.4297L104.602 52.7852V55.0352L94.3945 59.3242V56.1719ZM121.781 56.5352C121.781 56.2305 121.734 55.957 121.641 55.7148C121.555 55.4648 121.391 55.2383 121.148 55.0352C120.906 54.8242 120.566 54.6172 120.129 54.4141C119.691 54.2109 119.125 54 118.43 53.7812C117.656 53.5312 116.922 53.25 116.227 52.9375C115.539 52.625 114.93 52.2617 114.398 51.8477C113.875 51.4258 113.461 50.9375 113.156 50.3828C112.859 49.8281 112.711 49.1836 112.711 48.4492C112.711 47.7383 112.867 47.0938 113.18 46.5156C113.492 45.9297 113.93 45.4297 114.492 45.0156C115.055 44.5938 115.719 44.2695 116.484 44.043C117.258 43.8164 118.105 43.7031 119.027 43.7031C120.285 43.7031 121.383 43.9297 122.32 44.3828C123.258 44.8359 123.984 45.457 124.5 46.2461C125.023 47.0352 125.285 47.9375 125.285 48.9531H121.793C121.793 48.4531 121.688 48.0156 121.477 47.6406C121.273 47.2578 120.961 46.957 120.539 46.7383C120.125 46.5195 119.602 46.4102 118.969 46.4102C118.359 46.4102 117.852 46.5039 117.445 46.6914C117.039 46.8711 116.734 47.1172 116.531 47.4297C116.328 47.7344 116.227 48.0781 116.227 48.4609C116.227 48.75 116.297 49.0117 116.438 49.2461C116.586 49.4805 116.805 49.6992 117.094 49.9023C117.383 50.1055 117.738 50.2969 118.16 50.4766C118.582 50.6562 119.07 50.832 119.625 51.0039C120.555 51.2852 121.371 51.6016 122.074 51.9531C122.785 52.3047 123.379 52.6992 123.855 53.1367C124.332 53.5742 124.691 54.0703 124.934 54.625C125.176 55.1797 125.297 55.8086 125.297 56.5117C125.297 57.2539 125.152 57.918 124.863 58.5039C124.574 59.0898 124.156 59.5859 123.609 59.9922C123.062 60.3984 122.41 60.707 121.652 60.918C120.895 61.1289 120.047 61.2344 119.109 61.2344C118.266 61.2344 117.434 61.125 116.613 60.9062C115.793 60.6797 115.047 60.3398 114.375 59.8867C113.711 59.4336 113.18 58.8555 112.781 58.1523C112.383 57.4492 112.184 56.6172 112.184 55.6562H115.711C115.711 56.1875 115.793 56.6367 115.957 57.0039C116.121 57.3711 116.352 57.668 116.648 57.8945C116.953 58.1211 117.312 58.2852 117.727 58.3867C118.148 58.4883 118.609 58.5391 119.109 58.5391C119.719 58.5391 120.219 58.4531 120.609 58.2812C121.008 58.1094 121.301 57.8711 121.488 57.5664C121.684 57.2617 121.781 56.918 121.781 56.5352ZM126.938 54.7891V54.543C126.938 53.6133 127.07 52.7578 127.336 51.9766C127.602 51.1875 127.988 50.5039 128.496 49.9258C129.004 49.3477 129.629 48.8984 130.371 48.5781C131.113 48.25 131.965 48.0859 132.926 48.0859C133.887 48.0859 134.742 48.25 135.492 48.5781C136.242 48.8984 136.871 49.3477 137.379 49.9258C137.895 50.5039 138.285 51.1875 138.551 51.9766C138.816 52.7578 138.949 53.6133 138.949 54.543V54.7891C138.949 55.7109 138.816 56.5664 138.551 57.3555C138.285 58.1367 137.895 58.8203 137.379 59.4062C136.871 59.9844 136.246 60.4336 135.504 60.7539C134.762 61.0742 133.91 61.2344 132.949 61.2344C131.988 61.2344 131.133 61.0742 130.383 60.7539C129.641 60.4336 129.012 59.9844 128.496 59.4062C127.988 58.8203 127.602 58.1367 127.336 57.3555C127.07 56.5664 126.938 55.7109 126.938 54.7891ZM130.312 54.543V54.7891C130.312 55.3203 130.359 55.8164 130.453 56.2773C130.547 56.7383 130.695 57.1445 130.898 57.4961C131.109 57.8398 131.383 58.1094 131.719 58.3047C132.055 58.5 132.465 58.5977 132.949 58.5977C133.418 58.5977 133.82 58.5 134.156 58.3047C134.492 58.1094 134.762 57.8398 134.965 57.4961C135.168 57.1445 135.316 56.7383 135.41 56.2773C135.512 55.8164 135.562 55.3203 135.562 54.7891V54.543C135.562 54.0273 135.512 53.543 135.41 53.0898C135.316 52.6289 135.164 52.2227 134.953 51.8711C134.75 51.5117 134.48 51.2305 134.145 51.0273C133.809 50.8242 133.402 50.7227 132.926 50.7227C132.449 50.7227 132.043 50.8242 131.707 51.0273C131.379 51.2305 131.109 51.5117 130.898 51.8711C130.695 52.2227 130.547 52.6289 130.453 53.0898C130.359 53.543 130.312 54.0273 130.312 54.543ZM148.523 57.9648V48.3203H151.898V61H148.723L148.523 57.9648ZM148.898 55.3633L149.895 55.3398C149.895 56.1836 149.797 56.9688 149.602 57.6953C149.406 58.4141 149.113 59.0391 148.723 59.5703C148.332 60.0938 147.84 60.5039 147.246 60.8008C146.652 61.0898 145.953 61.2344 145.148 61.2344C144.531 61.2344 143.961 61.1484 143.438 60.9766C142.922 60.7969 142.477 60.5195 142.102 60.1445C141.734 59.7617 141.445 59.2734 141.234 58.6797C141.031 58.0781 140.93 57.3555 140.93 56.5117V48.3203H144.305V56.5352C144.305 56.9102 144.348 57.2266 144.434 57.4844C144.527 57.7422 144.656 57.9531 144.82 58.1172C144.984 58.2812 145.176 58.3984 145.395 58.4688C145.621 58.5391 145.871 58.5742 146.145 58.5742C146.84 58.5742 147.387 58.4336 147.785 58.1523C148.191 57.8711 148.477 57.4883 148.641 57.0039C148.812 56.5117 148.898 55.9648 148.898 55.3633ZM157.852 51.0859V61H154.477V48.3203H157.652L157.852 51.0859ZM161.672 48.2383L161.613 51.3672C161.449 51.3438 161.25 51.3242 161.016 51.3086C160.789 51.2852 160.582 51.2734 160.395 51.2734C159.918 51.2734 159.504 51.3359 159.152 51.4609C158.809 51.5781 158.52 51.7539 158.285 51.9883C158.059 52.2227 157.887 52.5078 157.77 52.8438C157.66 53.1797 157.598 53.5625 157.582 53.9922L156.902 53.7812C156.902 52.9609 156.984 52.207 157.148 51.5195C157.312 50.8242 157.551 50.2188 157.863 49.7031C158.184 49.1875 158.574 48.7891 159.035 48.5078C159.496 48.2266 160.023 48.0859 160.617 48.0859C160.805 48.0859 160.996 48.1016 161.191 48.1328C161.387 48.1562 161.547 48.1914 161.672 48.2383ZM168.27 58.5977C168.684 58.5977 169.051 58.5195 169.371 58.3633C169.691 58.1992 169.941 57.9727 170.121 57.6836C170.309 57.3867 170.406 57.0391 170.414 56.6406H173.59C173.582 57.5312 173.344 58.3242 172.875 59.0195C172.406 59.707 171.777 60.25 170.988 60.6484C170.199 61.0391 169.316 61.2344 168.34 61.2344C167.355 61.2344 166.496 61.0703 165.762 60.7422C165.035 60.4141 164.43 59.9609 163.945 59.3828C163.461 58.7969 163.098 58.1172 162.855 57.3438C162.613 56.5625 162.492 55.7266 162.492 54.8359V54.4961C162.492 53.5977 162.613 52.7617 162.855 51.9883C163.098 51.207 163.461 50.5273 163.945 49.9492C164.43 49.3633 165.035 48.9062 165.762 48.5781C166.488 48.25 167.34 48.0859 168.316 48.0859C169.355 48.0859 170.266 48.2852 171.047 48.6836C171.836 49.082 172.453 49.6523 172.898 50.3945C173.352 51.1289 173.582 52 173.59 53.0078H170.414C170.406 52.5859 170.316 52.2031 170.145 51.8594C169.98 51.5156 169.738 51.2422 169.418 51.0391C169.105 50.8281 168.719 50.7227 168.258 50.7227C167.766 50.7227 167.363 50.8281 167.051 51.0391C166.738 51.2422 166.496 51.5234 166.324 51.8828C166.152 52.2344 166.031 52.6367 165.961 53.0898C165.898 53.5352 165.867 54.0039 165.867 54.4961V54.8359C165.867 55.3281 165.898 55.8008 165.961 56.2539C166.023 56.707 166.141 57.1094 166.312 57.4609C166.492 57.8125 166.738 58.0898 167.051 58.293C167.363 58.4961 167.77 58.5977 168.27 58.5977ZM181.383 61.2344C180.398 61.2344 179.516 61.0781 178.734 60.7656C177.953 60.4453 177.289 60.0039 176.742 59.4414C176.203 58.8789 175.789 58.2266 175.5 57.4844C175.211 56.7344 175.066 55.9375 175.066 55.0938V54.625C175.066 53.6641 175.203 52.7852 175.477 51.9883C175.75 51.1914 176.141 50.5 176.648 49.9141C177.164 49.3281 177.789 48.8789 178.523 48.5664C179.258 48.2461 180.086 48.0859 181.008 48.0859C181.906 48.0859 182.703 48.2344 183.398 48.5312C184.094 48.8281 184.676 49.25 185.145 49.7969C185.621 50.3438 185.98 51 186.223 51.7656C186.465 52.5234 186.586 53.3672 186.586 54.2969V55.7031H176.508V53.4531H183.27V53.1953C183.27 52.7266 183.184 52.3086 183.012 51.9414C182.848 51.5664 182.598 51.2695 182.262 51.0508C181.926 50.832 181.496 50.7227 180.973 50.7227C180.527 50.7227 180.145 50.8203 179.824 51.0156C179.504 51.2109 179.242 51.4844 179.039 51.8359C178.844 52.1875 178.695 52.6016 178.594 53.0781C178.5 53.5469 178.453 54.0625 178.453 54.625V55.0938C178.453 55.6016 178.523 56.0703 178.664 56.5C178.812 56.9297 179.02 57.3008 179.285 57.6133C179.559 57.9258 179.887 58.168 180.27 58.3398C180.66 58.5117 181.102 58.5977 181.594 58.5977C182.203 58.5977 182.77 58.4805 183.293 58.2461C183.824 58.0039 184.281 57.6406 184.664 57.1562L186.305 58.9375C186.039 59.3203 185.676 59.6875 185.215 60.0391C184.762 60.3906 184.215 60.6797 183.574 60.9062C182.934 61.125 182.203 61.2344 181.383 61.2344Z" fill="#888888"/>
<path d="M110.062 92.0469L101.742 119H92.9062L105.445 84.875H111.047L110.062 92.0469ZM116.953 119L108.609 92.0469L107.531 84.875H113.203L125.812 119H116.953ZM116.625 106.273V112.625H99.1172V106.273H116.625ZM141.938 107.422H133.453V101.07H141.938C143.094 101.07 144.031 100.875 144.75 100.484C145.469 100.094 145.992 99.5547 146.32 98.8672C146.664 98.1641 146.836 97.375 146.836 96.5C146.836 95.5625 146.664 94.6953 146.32 93.8984C145.992 93.1016 145.469 92.4609 144.75 91.9766C144.031 91.4766 143.094 91.2266 141.938 91.2266H136.547V119H128.32V84.875H141.938C144.672 84.875 147.023 85.375 148.992 86.375C150.977 87.375 152.5 88.75 153.562 90.5C154.625 92.2344 155.156 94.2188 155.156 96.4531C155.156 98.6562 154.625 100.578 153.562 102.219C152.5 103.859 150.977 105.141 148.992 106.062C147.023 106.969 144.672 107.422 141.938 107.422ZM168.328 84.875V119H160.125V84.875H168.328ZM201.188 84.875V119H192.961V84.875H201.188ZM211.453 84.875V91.2266H182.93V84.875H211.453ZM224.742 119.469C222.68 119.469 220.836 119.148 219.211 118.508C217.586 117.852 216.211 116.953 215.086 115.812C213.977 114.672 213.125 113.359 212.531 111.875C211.953 110.391 211.664 108.82 211.664 107.164V106.273C211.664 104.414 211.922 102.695 212.438 101.117C212.953 99.5234 213.719 98.1328 214.734 96.9453C215.75 95.7578 217.023 94.8359 218.555 94.1797C220.086 93.5078 221.867 93.1719 223.898 93.1719C225.695 93.1719 227.305 93.4609 228.727 94.0391C230.148 94.6172 231.352 95.4453 232.336 96.5234C233.336 97.6016 234.094 98.9062 234.609 100.438C235.141 101.969 235.406 103.688 235.406 105.594V108.805H214.688V103.859H227.695V103.25C227.711 102.406 227.562 101.688 227.25 101.094C226.953 100.5 226.516 100.047 225.938 99.7344C225.359 99.4219 224.656 99.2656 223.828 99.2656C222.969 99.2656 222.258 99.4531 221.695 99.8281C221.148 100.203 220.719 100.719 220.406 101.375C220.109 102.016 219.898 102.758 219.773 103.602C219.648 104.445 219.586 105.336 219.586 106.273V107.164C219.586 108.102 219.711 108.953 219.961 109.719C220.227 110.484 220.602 111.141 221.086 111.688C221.586 112.219 222.18 112.633 222.867 112.93C223.57 113.227 224.367 113.375 225.258 113.375C226.336 113.375 227.398 113.172 228.445 112.766C229.492 112.359 230.391 111.688 231.141 110.75L234.727 115.016C234.211 115.75 233.477 116.461 232.523 117.148C231.586 117.836 230.461 118.398 229.148 118.836C227.836 119.258 226.367 119.469 224.742 119.469ZM251.906 111.875C251.906 111.438 251.758 111.062 251.461 110.75C251.18 110.422 250.68 110.125 249.961 109.859C249.242 109.578 248.234 109.297 246.938 109.016C245.703 108.75 244.539 108.398 243.445 107.961C242.367 107.523 241.422 106.992 240.609 106.367C239.797 105.742 239.156 105 238.688 104.141C238.234 103.281 238.008 102.297 238.008 101.188C238.008 100.109 238.234 99.0938 238.688 98.1406C239.156 97.1719 239.836 96.3203 240.727 95.5859C241.633 94.8359 242.734 94.25 244.031 93.8281C245.328 93.3906 246.805 93.1719 248.461 93.1719C250.742 93.1719 252.711 93.5234 254.367 94.2266C256.023 94.9141 257.297 95.8828 258.188 97.1328C259.094 98.3672 259.547 99.7969 259.547 101.422H251.648C251.648 100.781 251.539 100.234 251.32 99.7812C251.117 99.3281 250.781 98.9844 250.312 98.75C249.844 98.5 249.219 98.375 248.438 98.375C247.891 98.375 247.391 98.4766 246.938 98.6797C246.5 98.8828 246.148 99.1641 245.883 99.5234C245.617 99.8828 245.484 100.305 245.484 100.789C245.484 101.133 245.562 101.445 245.719 101.727C245.891 101.992 246.148 102.242 246.492 102.477C246.836 102.695 247.273 102.898 247.805 103.086C248.336 103.258 248.977 103.414 249.727 103.555C251.43 103.867 253.023 104.312 254.508 104.891C255.992 105.469 257.195 106.289 258.117 107.352C259.055 108.414 259.523 109.844 259.523 111.641C259.523 112.766 259.266 113.805 258.75 114.758C258.234 115.695 257.492 116.523 256.523 117.242C255.555 117.945 254.391 118.492 253.031 118.883C251.672 119.273 250.141 119.469 248.438 119.469C246.016 119.469 243.969 119.039 242.297 118.18C240.625 117.305 239.359 116.211 238.5 114.898C237.656 113.57 237.234 112.227 237.234 110.867H244.594C244.625 111.648 244.812 112.289 245.156 112.789C245.516 113.289 245.992 113.656 246.586 113.891C247.18 114.125 247.867 114.242 248.648 114.242C249.367 114.242 249.961 114.141 250.43 113.938C250.914 113.734 251.281 113.461 251.531 113.117C251.781 112.758 251.906 112.344 251.906 111.875ZM276.586 93.6406V99.125H261.305V93.6406H276.586ZM264.516 87.3359H272.414V110.727C272.414 111.398 272.492 111.922 272.648 112.297C272.805 112.656 273.07 112.914 273.445 113.07C273.836 113.211 274.352 113.281 274.992 113.281C275.445 113.281 275.82 113.273 276.117 113.258C276.414 113.227 276.695 113.188 276.961 113.141V118.789C276.289 119.008 275.586 119.172 274.852 119.281C274.117 119.406 273.336 119.469 272.508 119.469C270.82 119.469 269.375 119.203 268.172 118.672C266.984 118.141 266.078 117.305 265.453 116.164C264.828 115.023 264.516 113.539 264.516 111.711V87.3359ZM288.07 93.6406V119H280.148V93.6406H288.07ZM279.68 87.1016C279.68 85.9766 280.086 85.0547 280.898 84.3359C281.711 83.6172 282.766 83.2578 284.062 83.2578C285.359 83.2578 286.414 83.6172 287.227 84.3359C288.039 85.0547 288.445 85.9766 288.445 87.1016C288.445 88.2266 288.039 89.1484 287.227 89.8672C286.414 90.5859 285.359 90.9453 284.062 90.9453C282.766 90.9453 281.711 90.5859 280.898 89.8672C280.086 89.1484 279.68 88.2266 279.68 87.1016ZM300.703 99.0547V119H292.805V93.6406H300.211L300.703 99.0547ZM299.766 105.453L297.914 105.5C297.914 103.562 298.148 101.836 298.617 100.32C299.086 98.7891 299.75 97.4922 300.609 96.4297C301.469 95.3672 302.492 94.5625 303.68 94.0156C304.883 93.4531 306.219 93.1719 307.688 93.1719C308.859 93.1719 309.93 93.3438 310.898 93.6875C311.883 94.0312 312.727 94.5859 313.43 95.3516C314.148 96.1172 314.695 97.1328 315.07 98.3984C315.461 99.6484 315.656 101.195 315.656 103.039V119H307.711V103.016C307.711 102 307.57 101.227 307.289 100.695C307.008 100.148 306.602 99.7734 306.07 99.5703C305.539 99.3672 304.891 99.2656 304.125 99.2656C303.312 99.2656 302.625 99.4219 302.062 99.7344C301.5 100.047 301.047 100.484 300.703 101.047C300.375 101.594 300.133 102.242 299.977 102.992C299.836 103.742 299.766 104.562 299.766 105.453ZM335.977 93.6406H343.148V118.016C343.148 120.359 342.609 122.344 341.531 123.969C340.453 125.609 338.945 126.852 337.008 127.695C335.086 128.555 332.836 128.984 330.258 128.984C329.117 128.984 327.953 128.836 326.766 128.539C325.578 128.258 324.469 127.836 323.438 127.273C322.406 126.711 321.539 126.016 320.836 125.188L324.141 120.547C324.781 121.266 325.586 121.875 326.555 122.375C327.523 122.891 328.664 123.148 329.977 123.148C331.117 123.148 332.07 122.945 332.836 122.539C333.617 122.133 334.211 121.539 334.617 120.758C335.023 119.992 335.227 119.062 335.227 117.969V99.6406L335.977 93.6406ZM319.125 106.625V106.133C319.125 104.211 319.359 102.461 319.828 100.883C320.312 99.2891 321 97.9219 321.891 96.7812C322.797 95.625 323.891 94.7344 325.172 94.1094C326.453 93.4844 327.898 93.1719 329.508 93.1719C331.242 93.1719 332.664 93.5078 333.773 94.1797C334.898 94.8359 335.797 95.7578 336.469 96.9453C337.156 98.1328 337.688 99.5234 338.062 101.117C338.453 102.695 338.781 104.398 339.047 106.227V106.812C338.781 108.531 338.414 110.156 337.945 111.688C337.492 113.203 336.898 114.547 336.164 115.719C335.43 116.891 334.508 117.812 333.398 118.484C332.305 119.141 330.992 119.469 329.461 119.469C327.867 119.469 326.43 119.148 325.148 118.508C323.883 117.867 322.797 116.969 321.891 115.812C321 114.656 320.312 113.297 319.828 111.734C319.359 110.172 319.125 108.469 319.125 106.625ZM327.023 106.133V106.625C327.023 107.578 327.109 108.461 327.281 109.273C327.469 110.086 327.75 110.805 328.125 111.43C328.5 112.039 328.961 112.516 329.508 112.859C330.07 113.203 330.727 113.375 331.477 113.375C332.617 113.375 333.539 113.133 334.242 112.648C334.945 112.164 335.453 111.477 335.766 110.586C336.078 109.695 336.211 108.648 336.164 107.445V105.594C336.195 104.562 336.125 103.656 335.953 102.875C335.781 102.078 335.508 101.414 335.133 100.883C334.773 100.352 334.289 99.9531 333.68 99.6875C333.086 99.4062 332.367 99.2656 331.523 99.2656C330.789 99.2656 330.141 99.4375 329.578 99.7812C329.016 100.125 328.547 100.609 328.172 101.234C327.797 101.844 327.508 102.57 327.305 103.414C327.117 104.242 327.023 105.148 327.023 106.133ZM364.641 101.07L371.883 96.5469C372.852 95.9219 373.445 95.3359 373.664 94.7891C373.898 94.2266 374.016 93.6797 374.016 93.1484C374.016 92.5078 373.781 91.9062 373.312 91.3438C372.859 90.7656 372.219 90.4766 371.391 90.4766C370.781 90.4766 370.266 90.6172 369.844 90.8984C369.438 91.1641 369.125 91.5234 368.906 91.9766C368.703 92.4297 368.602 92.9375 368.602 93.5C368.602 94.2031 368.797 94.9141 369.188 95.6328C369.578 96.3516 370.094 97.1094 370.734 97.9062C371.391 98.7031 372.117 99.5781 372.914 100.531L388.969 119H380.156L367.078 104.141C366 102.766 365.062 101.5 364.266 100.344C363.484 99.1875 362.875 98.0625 362.438 96.9688C362 95.875 361.781 94.75 361.781 93.5938C361.781 91.7969 362.172 90.2109 362.953 88.8359C363.75 87.4453 364.867 86.3594 366.305 85.5781C367.758 84.7812 369.461 84.3828 371.414 84.3828C373.227 84.3828 374.797 84.7578 376.125 85.5078C377.469 86.2578 378.508 87.2578 379.242 88.5078C379.977 89.7422 380.344 91.1016 380.344 92.5859C380.344 93.6172 380.148 94.5938 379.758 95.5156C379.367 96.4375 378.828 97.2812 378.141 98.0469C377.469 98.8125 376.695 99.5078 375.82 100.133L367.992 105.594C367.68 105.984 367.422 106.383 367.219 106.789C367.031 107.18 366.891 107.578 366.797 107.984C366.719 108.391 366.68 108.828 366.68 109.297C366.68 110.109 366.852 110.828 367.195 111.453C367.539 112.062 367.992 112.539 368.555 112.883C369.133 113.227 369.758 113.398 370.43 113.398C371.695 113.398 372.914 113.125 374.086 112.578C375.273 112.016 376.336 111.227 377.273 110.211C378.211 109.195 378.953 107.984 379.5 106.578C380.047 105.172 380.32 103.625 380.32 101.938H386.93C386.93 103.781 386.742 105.539 386.367 107.211C386.008 108.867 385.406 110.398 384.562 111.805C383.734 113.211 382.617 114.445 381.211 115.508C381.133 115.555 380.984 115.648 380.766 115.789C380.562 115.914 380.414 116 380.32 116.047C378.68 117.219 377.062 118.086 375.469 118.648C373.875 119.211 372.016 119.492 369.891 119.492C367.594 119.492 365.609 119.078 363.938 118.25C362.281 117.422 361 116.281 360.094 114.828C359.188 113.375 358.734 111.711 358.734 109.836C358.734 108.508 358.984 107.352 359.484 106.367C359.984 105.367 360.68 104.445 361.57 103.602C362.461 102.758 363.484 101.914 364.641 101.07ZM415.453 119H407.883L407.93 112.672H415.453C417.016 112.672 418.336 112.297 419.414 111.547C420.508 110.797 421.336 109.68 421.898 108.195C422.477 106.695 422.766 104.852 422.766 102.664V101.188C422.766 99.5469 422.602 98.1094 422.273 96.875C421.961 95.625 421.492 94.5859 420.867 93.7578C420.242 92.9141 419.461 92.2812 418.523 91.8594C417.602 91.4375 416.539 91.2266 415.336 91.2266H407.742V84.875H415.336C417.648 84.875 419.766 85.2734 421.688 86.0703C423.625 86.8516 425.297 87.9766 426.703 89.4453C428.125 90.8984 429.219 92.625 429.984 94.625C430.766 96.6094 431.156 98.8125 431.156 101.234V102.664C431.156 105.07 430.766 107.273 429.984 109.273C429.219 111.273 428.133 113 426.727 114.453C425.32 115.906 423.656 117.031 421.734 117.828C419.828 118.609 417.734 119 415.453 119ZM412.594 84.875V119H404.367V84.875H412.594ZM434.086 106.578V106.086C434.086 104.227 434.352 102.516 434.883 100.953C435.414 99.375 436.195 98.0078 437.227 96.8516C438.258 95.6953 439.531 94.7969 441.047 94.1562C442.562 93.5 444.312 93.1719 446.297 93.1719C448.297 93.1719 450.055 93.5 451.57 94.1562C453.102 94.7969 454.383 95.6953 455.414 96.8516C456.445 98.0078 457.227 99.375 457.758 100.953C458.289 102.516 458.555 104.227 458.555 106.086V106.578C458.555 108.422 458.289 110.133 457.758 111.711C457.227 113.273 456.445 114.641 455.414 115.812C454.383 116.969 453.109 117.867 451.594 118.508C450.078 119.148 448.328 119.469 446.344 119.469C444.359 119.469 442.602 119.148 441.07 118.508C439.539 117.867 438.258 116.969 437.227 115.812C436.195 114.641 435.414 113.273 434.883 111.711C434.352 110.133 434.086 108.422 434.086 106.578ZM441.984 106.086V106.578C441.984 107.531 442.055 108.422 442.195 109.25C442.336 110.078 442.57 110.805 442.898 111.43C443.227 112.039 443.672 112.516 444.234 112.859C444.797 113.203 445.5 113.375 446.344 113.375C447.172 113.375 447.859 113.203 448.406 112.859C448.969 112.516 449.414 112.039 449.742 111.43C450.07 110.805 450.305 110.078 450.445 109.25C450.586 108.422 450.656 107.531 450.656 106.578V106.086C450.656 105.164 450.586 104.297 450.445 103.484C450.305 102.656 450.07 101.93 449.742 101.305C449.414 100.664 448.969 100.164 448.406 99.8047C447.844 99.4453 447.141 99.2656 446.297 99.2656C445.469 99.2656 444.773 99.4453 444.211 99.8047C443.664 100.164 443.227 100.664 442.898 101.305C442.57 101.93 442.336 102.656 442.195 103.484C442.055 104.297 441.984 105.164 441.984 106.086ZM472.781 113.375C473.516 113.375 474.141 113.242 474.656 112.977C475.188 112.695 475.586 112.305 475.852 111.805C476.133 111.289 476.266 110.672 476.25 109.953H483.68C483.695 111.859 483.227 113.531 482.273 114.969C481.336 116.391 480.055 117.5 478.43 118.297C476.82 119.078 475 119.469 472.969 119.469C470.984 119.469 469.25 119.148 467.766 118.508C466.281 117.852 465.039 116.945 464.039 115.789C463.055 114.617 462.312 113.25 461.812 111.688C461.328 110.125 461.086 108.43 461.086 106.602V106.062C461.086 104.234 461.328 102.539 461.812 100.977C462.312 99.3984 463.055 98.0312 464.039 96.875C465.039 95.7031 466.273 94.7969 467.742 94.1562C469.227 93.5 470.953 93.1719 472.922 93.1719C475.031 93.1719 476.891 93.5703 478.5 94.3672C480.125 95.1641 481.398 96.3203 482.32 97.8359C483.242 99.3516 483.695 101.188 483.68 103.344H476.25C476.266 102.578 476.148 101.891 475.898 101.281C475.648 100.672 475.258 100.188 474.727 99.8281C474.211 99.4531 473.547 99.2656 472.734 99.2656C471.922 99.2656 471.266 99.4453 470.766 99.8047C470.266 100.164 469.883 100.664 469.617 101.305C469.367 101.93 469.195 102.648 469.102 103.461C469.023 104.273 468.984 105.141 468.984 106.062V106.602C468.984 107.539 469.023 108.422 469.102 109.25C469.195 110.062 469.375 110.781 469.641 111.406C469.906 112.016 470.289 112.5 470.789 112.859C471.289 113.203 471.953 113.375 472.781 113.375ZM501.867 112.836V93.6406H509.789V119H502.383L501.867 112.836ZM502.617 107.68L504.68 107.633C504.68 109.336 504.477 110.914 504.07 112.367C503.664 113.805 503.062 115.055 502.266 116.117C501.484 117.18 500.516 118.008 499.359 118.602C498.219 119.18 496.898 119.469 495.398 119.469C494.148 119.469 493 119.297 491.953 118.953C490.922 118.594 490.031 118.039 489.281 117.289C488.531 116.523 487.945 115.547 487.523 114.359C487.117 113.156 486.914 111.719 486.914 110.047V93.6406H494.812V110.094C494.812 110.656 494.883 111.141 495.023 111.547C495.164 111.953 495.367 112.297 495.633 112.578C495.898 112.844 496.227 113.047 496.617 113.188C497.023 113.312 497.484 113.375 498 113.375C499.188 113.375 500.117 113.125 500.789 112.625C501.461 112.125 501.93 111.445 502.195 110.586C502.477 109.727 502.617 108.758 502.617 107.68ZM522.117 99.0078V119H514.219V93.6406H521.625L522.117 99.0078ZM521.156 105.453L519.352 105.5C519.352 103.719 519.562 102.078 519.984 100.578C520.406 99.0781 521.031 97.7734 521.859 96.6641C522.688 95.5547 523.703 94.6953 524.906 94.0859C526.125 93.4766 527.531 93.1719 529.125 93.1719C530.234 93.1719 531.242 93.3438 532.148 93.6875C533.055 94.0156 533.836 94.5391 534.492 95.2578C535.148 95.9609 535.648 96.8828 535.992 98.0234C536.352 99.1484 536.531 100.5 536.531 102.078V119H528.633V103.086C528.633 102.008 528.508 101.195 528.258 100.648C528.023 100.102 527.68 99.7344 527.227 99.5469C526.773 99.3594 526.219 99.2656 525.562 99.2656C524.875 99.2656 524.258 99.4219 523.711 99.7344C523.164 100.047 522.695 100.484 522.305 101.047C521.93 101.594 521.641 102.242 521.438 102.992C521.25 103.742 521.156 104.562 521.156 105.453ZM535.641 105.453L533.438 105.5C533.438 103.719 533.633 102.078 534.023 100.578C534.43 99.0781 535.031 97.7734 535.828 96.6641C536.641 95.5547 537.648 94.6953 538.852 94.0859C540.055 93.4766 541.453 93.1719 543.047 93.1719C544.203 93.1719 545.266 93.3438 546.234 93.6875C547.203 94.0312 548.039 94.5859 548.742 95.3516C549.445 96.1172 549.992 97.1328 550.383 98.3984C550.773 99.6484 550.969 101.195 550.969 103.039V119H543.047V103.039C543.047 101.992 542.922 101.203 542.672 100.672C542.438 100.125 542.094 99.7578 541.641 99.5703C541.188 99.3672 540.648 99.2656 540.023 99.2656C539.273 99.2656 538.625 99.4219 538.078 99.7344C537.531 100.047 537.07 100.484 536.695 101.047C536.336 101.594 536.07 102.242 535.898 102.992C535.727 103.742 535.641 104.562 535.641 105.453ZM567.773 119.469C565.711 119.469 563.867 119.148 562.242 118.508C560.617 117.852 559.242 116.953 558.117 115.812C557.008 114.672 556.156 113.359 555.562 111.875C554.984 110.391 554.695 108.82 554.695 107.164V106.273C554.695 104.414 554.953 102.695 555.469 101.117C555.984 99.5234 556.75 98.1328 557.766 96.9453C558.781 95.7578 560.055 94.8359 561.586 94.1797C563.117 93.5078 564.898 93.1719 566.93 93.1719C568.727 93.1719 570.336 93.4609 571.758 94.0391C573.18 94.6172 574.383 95.4453 575.367 96.5234C576.367 97.6016 577.125 98.9062 577.641 100.438C578.172 101.969 578.438 103.688 578.438 105.594V108.805H557.719V103.859H570.727V103.25C570.742 102.406 570.594 101.688 570.281 101.094C569.984 100.5 569.547 100.047 568.969 99.7344C568.391 99.4219 567.688 99.2656 566.859 99.2656C566 99.2656 565.289 99.4531 564.727 99.8281C564.18 100.203 563.75 100.719 563.438 101.375C563.141 102.016 562.93 102.758 562.805 103.602C562.68 104.445 562.617 105.336 562.617 106.273V107.164C562.617 108.102 562.742 108.953 562.992 109.719C563.258 110.484 563.633 111.141 564.117 111.688C564.617 112.219 565.211 112.633 565.898 112.93C566.602 113.227 567.398 113.375 568.289 113.375C569.367 113.375 570.43 113.172 571.477 112.766C572.523 112.359 573.422 111.688 574.172 110.75L577.758 115.016C577.242 115.75 576.508 116.461 575.555 117.148C574.617 117.836 573.492 118.398 572.18 118.836C570.867 119.258 569.398 119.469 567.773 119.469ZM589.406 99.0547V119H581.508V93.6406H588.914L589.406 99.0547ZM588.469 105.453L586.617 105.5C586.617 103.562 586.852 101.836 587.32 100.32C587.789 98.7891 588.453 97.4922 589.312 96.4297C590.172 95.3672 591.195 94.5625 592.383 94.0156C593.586 93.4531 594.922 93.1719 596.391 93.1719C597.562 93.1719 598.633 93.3438 599.602 93.6875C600.586 94.0312 601.43 94.5859 602.133 95.3516C602.852 96.1172 603.398 97.1328 603.773 98.3984C604.164 99.6484 604.359 101.195 604.359 103.039V119H596.414V103.016C596.414 102 596.273 101.227 595.992 100.695C595.711 100.148 595.305 99.7734 594.773 99.5703C594.242 99.3672 593.594 99.2656 592.828 99.2656C592.016 99.2656 591.328 99.4219 590.766 99.7344C590.203 100.047 589.75 100.484 589.406 101.047C589.078 101.594 588.836 102.242 588.68 102.992C588.539 103.742 588.469 104.562 588.469 105.453ZM622.102 93.6406V99.125H606.82V93.6406H622.102ZM610.031 87.3359H617.93V110.727C617.93 111.398 618.008 111.922 618.164 112.297C618.32 112.656 618.586 112.914 618.961 113.07C619.352 113.211 619.867 113.281 620.508 113.281C620.961 113.281 621.336 113.273 621.633 113.258C621.93 113.227 622.211 113.188 622.477 113.141V118.789C621.805 119.008 621.102 119.172 620.367 119.281C619.633 119.406 618.852 119.469 618.023 119.469C616.336 119.469 614.891 119.203 613.688 118.672C612.5 118.141 611.594 117.305 610.969 116.164C610.344 115.023 610.031 113.539 610.031 111.711V87.3359ZM638.414 112.625V102.172C638.414 101.453 638.312 100.836 638.109 100.32C637.906 99.8047 637.586 99.4062 637.148 99.125C636.711 98.8281 636.125 98.6797 635.391 98.6797C634.797 98.6797 634.289 98.7812 633.867 98.9844C633.445 99.1875 633.125 99.4922 632.906 99.8984C632.688 100.305 632.578 100.82 632.578 101.445H624.68C624.68 100.273 624.938 99.1875 625.453 98.1875C625.984 97.1719 626.734 96.2891 627.703 95.5391C628.688 94.7891 629.859 94.2109 631.219 93.8047C632.594 93.3828 634.125 93.1719 635.812 93.1719C637.828 93.1719 639.625 93.5078 641.203 94.1797C642.797 94.8516 644.055 95.8594 644.977 97.2031C645.898 98.5312 646.359 100.203 646.359 102.219V112.602C646.359 114.258 646.453 115.516 646.641 116.375C646.828 117.219 647.094 117.961 647.438 118.602V119H639.516C639.141 118.219 638.859 117.266 638.672 116.141C638.5 115 638.414 113.828 638.414 112.625ZM639.375 103.508L639.422 107.727H635.93C635.195 107.727 634.57 107.828 634.055 108.031C633.555 108.234 633.148 108.516 632.836 108.875C632.539 109.219 632.32 109.609 632.18 110.047C632.055 110.484 631.992 110.945 631.992 111.43C631.992 111.898 632.102 112.32 632.32 112.695C632.555 113.055 632.867 113.336 633.258 113.539C633.648 113.742 634.086 113.844 634.57 113.844C635.445 113.844 636.188 113.68 636.797 113.352C637.422 113.008 637.898 112.594 638.227 112.109C638.555 111.625 638.719 111.172 638.719 110.75L640.453 113.984C640.141 114.609 639.781 115.242 639.375 115.883C638.984 116.523 638.492 117.117 637.898 117.664C637.32 118.195 636.609 118.633 635.766 118.977C634.922 119.305 633.898 119.469 632.695 119.469C631.133 119.469 629.695 119.148 628.383 118.508C627.086 117.867 626.047 116.977 625.266 115.836C624.484 114.68 624.094 113.352 624.094 111.852C624.094 110.539 624.328 109.367 624.797 108.336C625.281 107.305 626.008 106.43 626.977 105.711C627.945 104.992 629.18 104.445 630.68 104.07C632.18 103.695 633.945 103.508 635.977 103.508H639.375ZM664.102 93.6406V99.125H648.82V93.6406H664.102ZM652.031 87.3359H659.93V110.727C659.93 111.398 660.008 111.922 660.164 112.297C660.32 112.656 660.586 112.914 660.961 113.07C661.352 113.211 661.867 113.281 662.508 113.281C662.961 113.281 663.336 113.273 663.633 113.258C663.93 113.227 664.211 113.188 664.477 113.141V118.789C663.805 119.008 663.102 119.172 662.367 119.281C661.633 119.406 660.852 119.469 660.023 119.469C658.336 119.469 656.891 119.203 655.688 118.672C654.5 118.141 653.594 117.305 652.969 116.164C652.344 115.023 652.031 113.539 652.031 111.711V87.3359ZM675.586 93.6406V119H667.664V93.6406H675.586ZM667.195 87.1016C667.195 85.9766 667.602 85.0547 668.414 84.3359C669.227 83.6172 670.281 83.2578 671.578 83.2578C672.875 83.2578 673.93 83.6172 674.742 84.3359C675.555 85.0547 675.961 85.9766 675.961 87.1016C675.961 88.2266 675.555 89.1484 674.742 89.8672C673.93 90.5859 672.875 90.9453 671.578 90.9453C670.281 90.9453 669.227 90.5859 668.414 89.8672C667.602 89.1484 667.195 88.2266 667.195 87.1016ZM679.477 106.578V106.086C679.477 104.227 679.742 102.516 680.273 100.953C680.805 99.375 681.586 98.0078 682.617 96.8516C683.648 95.6953 684.922 94.7969 686.438 94.1562C687.953 93.5 689.703 93.1719 691.688 93.1719C693.688 93.1719 695.445 93.5 696.961 94.1562C698.492 94.7969 699.773 95.6953 700.805 96.8516C701.836 98.0078 702.617 99.375 703.148 100.953C703.68 102.516 703.945 104.227 703.945 106.086V106.578C703.945 108.422 703.68 110.133 703.148 111.711C702.617 113.273 701.836 114.641 700.805 115.812C699.773 116.969 698.5 117.867 696.984 118.508C695.469 119.148 693.719 119.469 691.734 119.469C689.75 119.469 687.992 119.148 686.461 118.508C684.93 117.867 683.648 116.969 682.617 115.812C681.586 114.641 680.805 113.273 680.273 111.711C679.742 110.133 679.477 108.422 679.477 106.578ZM687.375 106.086V106.578C687.375 107.531 687.445 108.422 687.586 109.25C687.727 110.078 687.961 110.805 688.289 111.43C688.617 112.039 689.062 112.516 689.625 112.859C690.188 113.203 690.891 113.375 691.734 113.375C692.562 113.375 693.25 113.203 693.797 112.859C694.359 112.516 694.805 112.039 695.133 111.43C695.461 110.805 695.695 110.078 695.836 109.25C695.977 108.422 696.047 107.531 696.047 106.578V106.086C696.047 105.164 695.977 104.297 695.836 103.484C695.695 102.656 695.461 101.93 695.133 101.305C694.805 100.664 694.359 100.164 693.797 99.8047C693.234 99.4453 692.531 99.2656 691.688 99.2656C690.859 99.2656 690.164 99.4453 689.602 99.8047C689.055 100.164 688.617 100.664 688.289 101.305C687.961 101.93 687.727 102.656 687.586 103.484C687.445 104.297 687.375 105.164 687.375 106.086ZM715.219 99.0547V119H707.32V93.6406H714.727L715.219 99.0547ZM714.281 105.453L712.43 105.5C712.43 103.562 712.664 101.836 713.133 100.32C713.602 98.7891 714.266 97.4922 715.125 96.4297C715.984 95.3672 717.008 94.5625 718.195 94.0156C719.398 93.4531 720.734 93.1719 722.203 93.1719C723.375 93.1719 724.445 93.3438 725.414 93.6875C726.398 94.0312 727.242 94.5859 727.945 95.3516C728.664 96.1172 729.211 97.1328 729.586 98.3984C729.977 99.6484 730.172 101.195 730.172 103.039V119H722.227V103.016C722.227 102 722.086 101.227 721.805 100.695C721.523 100.148 721.117 99.7734 720.586 99.5703C720.055 99.3672 719.406 99.2656 718.641 99.2656C717.828 99.2656 717.141 99.4219 716.578 99.7344C716.016 100.047 715.562 100.484 715.219 101.047C714.891 101.594 714.648 102.242 714.492 102.992C714.352 103.742 714.281 104.562 714.281 105.453Z" fill="black"/>
<path d="M1134 0H1348C1356.28 0 1363 6.71573 1363 15V148C1363 156.284 1356.28 163 1348 163H1134V0Z" fill="#601BDE"/>
<path d="M1220.17 104.167H1276.83" stroke="white" stroke-width="5" stroke-linecap="round" stroke-linejoin="round"/>
<path d="M1240 75.8333L1245.67 81.5L1257 70.1666" stroke="white" stroke-width="5" stroke-linecap="round" stroke-linejoin="round"/>
<path d="M1268.33 58.8334H1228.67C1225.54 58.8334 1223 61.3704 1223 64.5V87.1667C1223 90.2963 1225.54 92.8334 1228.67 92.8334H1268.33C1271.46 92.8334 1274 90.2963 1274 87.1667V64.5C1274 61.3704 1271.46 58.8334 1268.33 58.8334Z" stroke="white" stroke-width="5" stroke-linecap="round" stroke-linejoin="round"/>
</svg>
