<svg width="612" height="612" viewBox="0 0 612 612" fill="none" xmlns="http://www.w3.org/2000/svg">
<circle cx="306" cy="306" r="306" fill="#E6DAFB"/>
<g opacity="0.1">
<circle opacity="0.8" cx="306.025" cy="305.448" r="98.1333" transform="rotate(90 306.025 305.448)" fill="#611CE0"/>
<circle cx="306" cy="305.498" r="76.5217" transform="rotate(90 306 305.498)" fill="#611CE0"/>
<path d="M315.055 202.023C315.292 199.312 317.684 197.296 320.381 197.655C339.828 200.248 358.216 208.053 373.59 220.242C375.723 221.932 375.934 225.053 374.149 227.107L373.475 227.882C371.69 229.935 368.585 230.142 366.445 228.462C352.816 217.769 336.591 210.882 319.431 208.506C316.736 208.133 314.728 205.756 314.965 203.046L315.055 202.023Z" fill="#611CE0"/>
<path d="M296.949 202.023C296.711 199.312 294.319 197.296 291.622 197.655C272.175 200.248 253.787 208.053 238.413 220.242C236.281 221.932 236.069 225.053 237.854 227.107L238.528 227.882C240.313 229.935 243.418 230.142 245.558 228.462C259.187 217.769 275.412 210.882 292.572 208.506C295.267 208.133 297.275 205.756 297.038 203.046L296.949 202.023Z" fill="#611CE0"/>
<path d="M315.054 408.977C315.291 411.688 317.683 413.704 320.38 413.345C339.828 410.752 358.215 402.947 373.59 390.758C375.722 389.068 375.933 385.947 374.148 383.893L373.474 383.118C371.689 381.065 368.585 380.858 366.444 382.538C352.815 393.231 336.59 400.118 319.43 402.494C316.735 402.867 314.727 405.244 314.965 407.954L315.054 408.977Z" fill="#611CE0"/>
<path d="M296.949 408.977C296.711 411.688 294.319 413.704 291.622 413.345C272.175 410.752 253.787 402.947 238.413 390.758C236.281 389.068 236.069 385.947 237.854 383.893L238.528 383.118C240.313 381.065 243.418 380.858 245.558 382.538C259.187 393.231 275.412 400.118 292.572 402.494C295.267 402.867 297.275 405.244 297.038 407.954L296.949 408.977Z" fill="#611CE0"/>
<path d="M385.573 238.732C387.657 236.984 390.775 237.249 392.428 239.41C404.346 254.995 411.829 273.516 414.082 293.006C414.394 295.709 412.336 298.065 409.622 298.255L408.597 298.327C405.883 298.517 403.542 296.467 403.216 293.766C401.14 276.568 394.537 260.225 384.083 246.412C382.441 244.242 382.702 241.141 384.786 239.393L385.573 238.732Z" fill="#611CE0"/>
<path d="M226.43 238.732C224.346 236.984 221.228 237.249 219.576 239.41C207.657 254.995 200.174 273.516 197.921 293.006C197.609 295.709 199.667 298.065 202.381 298.255L203.406 298.327C206.12 298.517 208.461 296.467 208.787 293.766C210.863 276.568 217.466 260.225 227.92 246.412C229.562 244.242 229.301 241.141 227.217 239.393L226.43 238.732Z" fill="#611CE0"/>
<path d="M385.573 372.268C387.657 374.016 390.774 373.751 392.427 371.59C404.345 356.005 411.828 337.484 414.081 317.994C414.394 315.291 412.336 312.935 409.622 312.745L408.597 312.673C405.883 312.483 403.541 314.533 403.215 317.234C401.14 334.432 394.537 350.775 384.083 364.588C382.441 366.758 382.702 369.859 384.786 371.607L385.573 372.268Z" fill="#611CE0"/>
<path d="M226.43 372.268C224.346 374.016 221.228 373.751 219.576 371.59C207.657 356.005 200.174 337.484 197.921 317.994C197.609 315.291 199.667 312.935 202.381 312.745L203.406 312.673C206.12 312.483 208.461 314.533 208.787 317.234C210.863 334.432 217.466 350.775 227.92 364.588C229.562 366.758 229.301 369.859 227.217 371.607L226.43 372.268Z" fill="#611CE0"/>
<path d="M301.969 417.336C301.969 415.127 303.76 413.336 305.969 413.336C308.178 413.336 309.969 415.127 309.969 417.336L305.969 417.336L301.969 417.336ZM308.797 463.204C307.235 464.766 304.703 464.766 303.141 463.204L277.685 437.749C276.123 436.186 276.123 433.654 277.685 432.092C279.247 430.53 281.779 430.53 283.342 432.092L305.969 454.719L328.596 432.092C330.159 430.53 332.691 430.53 334.253 432.092C335.815 433.654 335.815 436.186 334.253 437.749L308.797 463.204ZM305.969 417.336L309.969 417.336L309.969 460.376L305.969 460.376L301.969 460.376L301.969 417.336L305.969 417.336Z" fill="#611CE0"/>
<path d="M301.969 193.334C301.969 195.543 303.76 197.334 305.969 197.334C308.178 197.334 309.969 195.543 309.969 193.334L305.969 193.334L301.969 193.334ZM308.797 147.466C307.235 145.903 304.703 145.903 303.141 147.466L277.685 172.921C276.123 174.483 276.123 177.016 277.685 178.578C279.247 180.14 281.779 180.14 283.342 178.578L305.969 155.951L328.596 178.578C330.159 180.14 332.691 180.14 334.253 178.578C335.815 177.016 335.815 174.483 334.253 172.921L308.797 147.466ZM305.969 193.334L309.969 193.334L309.969 150.294L305.969 150.294L301.969 150.294L301.969 193.334L305.969 193.334Z" fill="#611CE0"/>
<path d="M193.84 309.468C196.049 309.468 197.84 307.677 197.84 305.468C197.84 303.259 196.049 301.468 193.84 301.468L193.84 305.468L193.84 309.468ZM147.971 302.639C146.409 304.201 146.409 306.734 147.971 308.296L173.427 333.752C174.989 335.314 177.522 335.314 179.084 333.752C180.646 332.19 180.646 329.657 179.084 328.095L156.457 305.468L179.084 282.84C180.646 281.278 180.646 278.746 179.084 277.184C177.522 275.621 174.989 275.621 173.427 277.184L147.971 302.639ZM193.84 305.468L193.84 301.468L150.8 301.468L150.8 305.468L150.8 309.468L193.84 309.468L193.84 305.468Z" fill="#611CE0"/>
<path d="M418.16 309.468C415.951 309.468 414.16 307.677 414.16 305.468C414.16 303.259 415.951 301.468 418.16 301.468L418.16 305.468L418.16 309.468ZM464.029 302.639C465.591 304.201 465.591 306.734 464.029 308.296L438.573 333.752C437.011 335.314 434.478 335.314 432.916 333.752C431.354 332.19 431.354 329.657 432.916 328.095L455.543 305.468L432.916 282.84C431.354 281.278 431.354 278.746 432.916 277.184C434.478 275.621 437.011 275.621 438.573 277.184L464.029 302.639ZM418.16 305.468L418.16 301.468L461.2 301.468L461.2 305.468L461.2 309.468L418.16 309.468L418.16 305.468Z" fill="#611CE0"/>
<path d="M226.088 388.932C227.65 387.37 227.65 384.837 226.088 383.275C224.526 381.713 221.993 381.713 220.431 383.275L223.26 386.104L226.088 388.932ZM188.826 416.537C188.826 418.746 190.617 420.537 192.826 420.537L228.826 420.537C231.035 420.537 232.826 418.746 232.826 416.537C232.826 414.328 231.035 412.537 228.826 412.537L196.826 412.537L196.826 380.537C196.826 378.328 195.035 376.537 192.826 376.537C190.617 376.537 188.826 378.328 188.826 380.537L188.826 416.537ZM223.26 386.104L220.431 383.275L189.997 413.709L192.826 416.537L195.654 419.366L226.088 388.932L223.26 386.104Z" fill="#611CE0"/>
<path d="M226.088 222.063C227.65 223.625 227.65 226.158 226.088 227.72C224.526 229.282 221.993 229.282 220.431 227.72L223.26 224.892L226.088 222.063ZM188.826 194.458C188.826 192.249 190.617 190.458 192.826 190.458L228.826 190.458C231.035 190.458 232.826 192.249 232.826 194.458C232.826 196.667 231.035 198.458 228.826 198.458L196.826 198.458L196.826 230.458C196.826 232.667 195.035 234.458 192.826 234.458C190.617 234.458 188.826 232.667 188.826 230.458L188.826 194.458ZM223.26 224.892L220.431 227.72L189.997 197.286L192.826 194.458L195.654 191.629L226.088 222.063L223.26 224.892Z" fill="#611CE0"/>
<path d="M385.85 388.932C384.288 387.37 384.288 384.837 385.85 383.275C387.412 381.713 389.945 381.713 391.507 383.275L388.679 386.104L385.85 388.932ZM423.112 416.537C423.113 418.746 421.322 420.537 419.112 420.537L383.112 420.537C380.903 420.537 379.112 418.746 379.112 416.537C379.112 414.328 380.903 412.537 383.112 412.537L415.112 412.537L415.112 380.537C415.112 378.328 416.903 376.537 419.112 376.537C421.322 376.537 423.112 378.328 423.112 380.537L423.112 416.537ZM388.679 386.104L391.507 383.275L421.941 413.709L419.112 416.537L416.284 419.366L385.85 388.932L388.679 386.104Z" fill="#611CE0"/>
<path d="M385.85 222.063C384.288 223.625 384.288 226.158 385.85 227.72C387.412 229.282 389.945 229.282 391.507 227.72L388.679 224.892L385.85 222.063ZM423.112 194.458C423.113 192.249 421.322 190.458 419.112 190.458L383.112 190.458C380.903 190.458 379.112 192.249 379.112 194.458C379.112 196.667 380.903 198.458 383.112 198.458L415.112 198.458L415.112 230.458C415.112 232.667 416.903 234.458 419.112 234.458C421.322 234.458 423.112 232.667 423.112 230.458L423.112 194.458ZM388.679 224.892L391.507 227.72L421.941 197.286L419.112 194.458L416.284 191.629L385.85 222.063L388.679 224.892Z" fill="#611CE0"/>
</g>
</svg>
