<svg
                                width="113"
                                height="112"
                                viewBox="0 0 113 112"
                                fill="none"
                                xmlns="http://www.w3.org/2000/svg"
                            >
                                <g clip-path="url(#clip0_546_293)">
                                    <circle
                                        opacity="0.8"
                                        cx="56.5089"
                                        cy="55.9805"
                                        r="34.3467"
                                        transform="rotate(90 56.5089 55.9805)"
                                        fill="#A7ACB9"
                                    />
                                    <circle
                                        cx="56.5"
                                        cy="56.0004"
                                        r="26.7826"
                                        transform="rotate(90 56.5 56.0004)"
                                        fill="#A7ACB9"
                                    />
                                    <path
                                        d="M59.6685 19.7827C59.7515 18.834 60.5887 18.1283 61.5326 18.2541C68.3393 19.1616 74.7749 21.8933 80.156 26.1593C80.9022 26.7509 80.9761 27.8434 80.3514 28.5621L80.1155 28.8334C79.4908 29.5521 78.4042 29.6244 77.655 29.0366C72.8849 25.2939 67.2061 22.8834 61.2002 22.0519C60.2569 21.9213 59.5541 21.0895 59.6371 20.1408L59.6685 19.7827Z"
                                        fill="#A7ACB9"
                                    />
                                    <path
                                        d="M53.3315 19.7827C53.2485 18.834 52.4113 18.1283 51.4674 18.2541C44.6607 19.1616 38.2251 21.8933 32.844 26.1593C32.0978 26.7509 32.0239 27.8434 32.6486 28.5621L32.8845 28.8334C33.5092 29.5521 34.5958 29.6244 35.345 29.0366C40.1151 25.2939 45.7939 22.8834 51.7998 22.0519C52.7431 21.9213 53.4459 21.0895 53.3629 20.1408L53.3315 19.7827Z"
                                        fill="#A7ACB9"
                                    />
                                    <path
                                        d="M59.6686 92.2173C59.7516 93.166 60.5888 93.8717 61.5327 93.7459C68.3394 92.8384 74.7751 90.1067 80.1561 85.8407C80.9024 85.2491 80.9762 84.1566 80.3515 83.4379L80.1157 83.1666C79.4909 82.4479 78.4043 82.3756 77.6551 82.9634C72.885 86.7061 67.2062 89.1166 61.2003 89.9481C60.257 90.0787 59.5543 90.9105 59.6373 91.8592L59.6686 92.2173Z"
                                        fill="#A7ACB9"
                                    />
                                    <path
                                        d="M53.3315 92.2173C53.2485 93.166 52.4113 93.8717 51.4674 93.7459C44.6607 92.8384 38.2251 90.1067 32.844 85.8407C32.0978 85.2491 32.0239 84.1566 32.6486 83.4379L32.8845 83.1666C33.5092 82.4479 34.5958 82.3756 35.345 82.9634C40.1151 86.7061 45.7939 89.1166 51.7998 89.9481C52.7431 90.0787 53.4459 90.9105 53.3629 91.8592L53.3315 92.2173Z"
                                        fill="#A7ACB9"
                                    />
                                    <path
                                        d="M84.35 32.6311C85.0795 32.0189 86.1705 32.1119 86.749 32.8683C90.9203 38.323 93.5394 44.8054 94.3279 51.6269C94.4373 52.5728 93.717 53.3976 92.767 53.464L92.4084 53.4891C91.4585 53.5555 90.639 52.8384 90.5249 51.8929C89.7984 45.8735 87.4873 40.1535 83.8285 35.3187C83.2538 34.5594 83.3451 33.4742 84.0746 32.8621L84.35 32.6311Z"
                                        fill="#A7ACB9"
                                    />
                                    <path
                                        d="M28.65 32.6311C27.9205 32.0189 26.8295 32.1119 26.251 32.8683C22.0797 38.323 19.4606 44.8054 18.6721 51.6269C18.5627 52.5728 19.283 53.3976 20.233 53.464L20.5916 53.4891C21.5415 53.5555 22.361 52.8384 22.4751 51.8929C23.2016 45.8735 25.5127 40.1535 29.1715 35.3187C29.7462 34.5594 29.6549 33.4742 28.9254 32.8621L28.65 32.6311Z"
                                        fill="#A7ACB9"
                                    />
                                    <path
                                        d="M84.3501 79.3689C85.0796 79.9811 86.1706 79.8881 86.7491 79.1317C90.9205 73.677 93.5395 67.1946 94.328 60.3731C94.4374 59.4272 93.7171 58.6024 92.7672 58.536L92.4086 58.5109C91.4586 58.4445 90.6391 59.1616 90.525 60.1071C89.7985 66.1265 87.4874 71.8465 83.8286 76.6813C83.2539 77.4406 83.3452 78.5258 84.0747 79.1379L84.3501 79.3689Z"
                                        fill="#A7ACB9"
                                    />
                                    <path
                                        d="M28.65 79.3689C27.9205 79.9811 26.8295 79.8881 26.251 79.1317C22.0797 73.677 19.4606 67.1946 18.6721 60.3731C18.5627 59.4272 19.283 58.6024 20.233 58.536L20.5916 58.5109C21.5415 58.4445 22.361 59.1616 22.4751 60.1071C23.2016 66.1265 25.5127 71.8465 29.1715 76.6813C29.7462 77.4406 29.6549 78.5258 28.9254 79.1379L28.65 79.3689Z"
                                        fill="#A7ACB9"
                                    />
                                    <path
                                        d="M55.0893 95.1436C55.0893 94.3704 55.7161 93.7436 56.4893 93.7436C57.2625 93.7436 57.8893 94.3704 57.8893 95.1436L56.4893 95.1436L55.0893 95.1436ZM57.4792 111.198C56.9325 111.744 56.046 111.744 55.4993 111.198L46.5898 102.288C46.043 101.741 46.043 100.855 46.5898 100.308C47.1365 99.7613 48.0229 99.7613 48.5697 100.308L56.4893 108.228L64.4089 100.308C64.9556 99.7613 65.842 99.7613 66.3888 100.308C66.9355 100.855 66.9355 101.741 66.3888 102.288L57.4792 111.198ZM56.4893 95.1436L57.8893 95.1436L57.8893 110.208L56.4893 110.208L55.0893 110.208L55.0893 95.1436L56.4893 95.1436Z"
                                        fill="#A7ACB9"
                                    />
                                    <path
                                        d="M55.0893 16.7432C55.0893 17.5164 55.7161 18.1432 56.4893 18.1432C57.2625 18.1432 57.8893 17.5164 57.8893 16.7432L56.4893 16.7432L55.0893 16.7432ZM57.4792 0.689213C56.9325 0.142479 56.046 0.142479 55.4993 0.689213L46.5898 9.59876C46.043 10.1455 46.043 11.0319 46.5898 11.5787C47.1365 12.1254 48.0229 12.1254 48.5697 11.5787L56.4893 3.65906L64.4089 11.5787C64.9556 12.1254 65.842 12.1254 66.3888 11.5787C66.9355 11.0319 66.9355 10.1455 66.3888 9.59876L57.4792 0.689213ZM56.4893 16.7432L57.8893 16.7432L57.8893 1.67916L56.4893 1.67916L55.0893 1.67916L55.0893 16.7432L56.4893 16.7432Z"
                                        fill="#A7ACB9"
                                    />
                                    <path
                                        d="M17.2438 57.3893C18.017 57.3893 18.6438 56.7625 18.6438 55.9893C18.6438 55.2161 18.017 54.5893 17.2438 54.5893L17.2438 55.9893L17.2438 57.3893ZM1.18988 54.9993C0.64315 55.546 0.64315 56.4325 1.18988 56.9792L10.0994 65.8888C10.6462 66.4355 11.5326 66.4355 12.0793 65.8888C12.6261 65.342 12.6261 64.4556 12.0793 63.9089L4.15973 55.9893L12.0793 48.0697C12.6261 47.5229 12.6261 46.6365 12.0793 46.0898C11.5326 45.543 10.6462 45.543 10.0994 46.0898L1.18988 54.9993ZM17.2438 55.9893L17.2438 54.5893L2.17983 54.5893L2.17983 55.9893L2.17983 57.3893L17.2438 57.3893L17.2438 55.9893Z"
                                        fill="#A7ACB9"
                                    />
                                    <path
                                        d="M95.756 57.3893C94.9828 57.3893 94.356 56.7625 94.356 55.9893C94.356 55.2161 94.9828 54.5893 95.756 54.5893L95.756 55.9893L95.756 57.3893ZM111.81 54.9993C112.357 55.546 112.357 56.4325 111.81 56.9792L102.9 65.8888C102.354 66.4355 101.467 66.4355 100.921 65.8888C100.374 65.342 100.374 64.4556 100.921 63.9089L108.84 55.9893L100.921 48.0697C100.374 47.5229 100.374 46.6365 100.921 46.0898C101.467 45.543 102.354 45.543 102.9 46.0898L111.81 54.9993ZM95.756 55.9893L95.756 54.5893L110.82 54.5893L110.82 55.9893L110.82 57.3893L95.756 57.3893L95.756 55.9893Z"
                                        fill="#A7ACB9"
                                    />
                                    <path
                                        d="M28.5309 85.2019C29.0776 84.6551 29.0776 83.7687 28.5309 83.222C27.9842 82.6752 27.0977 82.6752 26.551 83.222L27.541 84.2119L28.5309 85.2019ZM15.4891 94.8638C15.4891 95.637 16.1159 96.2638 16.8891 96.2638L29.4891 96.2638C30.2623 96.2638 30.8891 95.637 30.8891 94.8638C30.8891 94.0906 30.2623 93.4638 29.4891 93.4638L18.2891 93.4638L18.2891 82.2638C18.2891 81.4906 17.6623 80.8638 16.8891 80.8638C16.1159 80.8638 15.4891 81.4906 15.4891 82.2638L15.4891 94.8638ZM27.541 84.2119L26.551 83.222L15.8991 93.8738L16.8891 94.8638L17.879 95.8537L28.5309 85.2019L27.541 84.2119Z"
                                        fill="#A7ACB9"
                                    />
                                    <path
                                        d="M28.5309 26.7981C29.0776 27.3449 29.0776 28.2313 28.5309 28.778C27.9842 29.3248 27.0977 29.3248 26.551 28.778L27.541 27.7881L28.5309 26.7981ZM15.4891 17.1362C15.4891 16.363 16.1159 15.7362 16.8891 15.7362L29.4891 15.7362C30.2623 15.7362 30.8891 16.363 30.8891 17.1362C30.8891 17.9094 30.2623 18.5362 29.4891 18.5362L18.2891 18.5362L18.2891 29.7362C18.2891 30.5094 17.6623 31.1362 16.8891 31.1362C16.1159 31.1362 15.4891 30.5094 15.4891 29.7362L15.4891 17.1362ZM27.541 27.7881L26.551 28.778L15.8991 18.1262L16.8891 17.1362L17.879 16.1463L28.5309 26.7981L27.541 27.7881Z"
                                        fill="#A7ACB9"
                                    />
                                    <path
                                        d="M84.4476 85.2019C83.9009 84.6551 83.9009 83.7687 84.4476 83.222C84.9943 82.6752 85.8808 82.6752 86.4275 83.222L85.4376 84.2119L84.4476 85.2019ZM97.4894 94.8638C97.4894 95.637 96.8626 96.2638 96.0894 96.2638L83.4894 96.2638C82.7162 96.2638 82.0894 95.637 82.0894 94.8638C82.0894 94.0906 82.7162 93.4638 83.4894 93.4638L94.6894 93.4638L94.6894 82.2638C94.6894 81.4906 95.3162 80.8638 96.0894 80.8638C96.8626 80.8638 97.4894 81.4906 97.4894 82.2638L97.4894 94.8638ZM85.4376 84.2119L86.4275 83.222L97.0794 93.8738L96.0894 94.8638L95.0995 95.8537L84.4476 85.2019L85.4376 84.2119Z"
                                        fill="#A7ACB9"
                                    />
                                    <path
                                        d="M84.4476 26.7981C83.9009 27.3449 83.9009 28.2313 84.4476 28.778C84.9943 29.3248 85.8808 29.3248 86.4275 28.778L85.4376 27.7881L84.4476 26.7981ZM97.4894 17.1362C97.4894 16.363 96.8626 15.7362 96.0894 15.7362L83.4894 15.7362C82.7162 15.7362 82.0894 16.363 82.0894 17.1362C82.0894 17.9094 82.7162 18.5362 83.4894 18.5362L94.6894 18.5362L94.6894 29.7362C94.6894 30.5094 95.3162 31.1362 96.0894 31.1362C96.8626 31.1362 97.4894 30.5094 97.4894 29.7362L97.4894 17.1362ZM85.4376 27.7881L86.4275 28.778L97.0794 18.1262L96.0894 17.1362L95.0995 16.1463L84.4476 26.7981L85.4376 27.7881Z"
                                        fill="#A7ACB9"
                                    />
                                </g>
                                <defs>
                                    <clipPath id="clip0_546_293">
                                        <rect
                                            width="112"
                                            height="112"
                                            fill="white"
                                            transform="matrix(1 0 0 -1 0.5 112)"
                                        />
                                    </clipPath>
                                </defs>
                            </svg>
