<svg width="226" height="81" viewBox="0 0 226 81" fill="none" xmlns="http://www.w3.org/2000/svg">
<g clip-path="url(#clip0_206_2962)">
<circle opacity="0.8" cx="40.6503" cy="40.4865" r="24.5333" transform="rotate(90 40.6503 40.4865)" fill="#611CE0"/>
<circle cx="40.643" cy="40.5001" r="19.1304" transform="rotate(90 40.643 40.5001)" fill="#611CE0"/>
<path d="M42.9067 14.6306C42.9659 13.953 43.5639 13.4489 44.2382 13.5388C49.1001 14.187 53.697 16.1382 57.5406 19.1853C58.0736 19.6079 58.1264 20.3883 57.6801 20.9016L57.5117 21.0954C57.0654 21.6088 56.2893 21.6604 55.7542 21.2405C52.3469 18.5672 48.2906 16.8454 44.0007 16.2515C43.327 16.1582 42.825 15.564 42.8843 14.8864L42.9067 14.6306Z" fill="#611CE0"/>
<path d="M38.3805 14.6306C38.3212 13.953 37.7232 13.4489 37.0489 13.5388C32.187 14.187 27.5901 16.1382 23.7465 19.1853C23.2135 19.6079 23.1607 20.3883 23.607 20.9016L23.7754 21.0954C24.2217 21.6088 24.9978 21.6604 25.5329 21.2405C28.9402 18.5672 32.9965 16.8454 37.2864 16.2515C37.9601 16.1582 38.4621 15.564 38.4028 14.8864L38.3805 14.6306Z" fill="#611CE0"/>
<path d="M42.9067 66.3694C42.9659 67.047 43.5639 67.5511 44.2382 67.4612C49.1001 66.813 53.697 64.8618 57.5406 61.8147C58.0736 61.3921 58.1264 60.6117 57.6801 60.0984L57.5117 59.9046C57.0654 59.3912 56.2893 59.3396 55.7542 59.7595C52.3469 62.4328 48.2906 64.1546 44.0007 64.7485C43.327 64.8418 42.825 65.436 42.8843 66.1136L42.9067 66.3694Z" fill="#611CE0"/>
<path d="M38.3805 66.3694C38.3212 67.047 37.7232 67.5511 37.0489 67.4612C32.187 66.813 27.5901 64.8618 23.7465 61.8147C23.2135 61.3921 23.1607 60.6117 23.607 60.0984L23.7754 59.9046C24.2217 59.3912 24.9978 59.3396 25.5329 59.7595C28.9402 62.4328 32.9965 64.1546 37.2864 64.7485C37.9601 64.8418 38.4621 65.436 38.4028 66.1136L38.3805 66.3694Z" fill="#611CE0"/>
<path d="M60.5363 23.808C61.0574 23.3708 61.8367 23.4372 62.2499 23.9775C65.2294 27.8737 67.1002 32.504 67.6634 37.3765C67.7415 38.0522 67.227 38.6413 66.5485 38.6887L66.2923 38.7066C65.6138 38.7541 65.0285 38.2418 64.9469 37.5665C64.428 33.2669 62.7773 29.1812 60.1638 25.7278C59.7533 25.1854 59.8185 24.4103 60.3396 23.9731L60.5363 23.808Z" fill="#611CE0"/>
<path d="M20.7508 23.808C20.2298 23.3708 19.4504 23.4372 19.0372 23.9775C16.0577 27.8737 14.1869 32.504 13.6237 37.3765C13.5456 38.0522 14.0601 38.6413 14.7386 38.6887L14.9948 38.7066C15.6733 38.7541 16.2587 38.2418 16.3402 37.5665C16.8591 33.2669 18.5098 29.1812 21.1233 25.7278C21.5338 25.1854 21.4686 24.4103 20.9475 23.9731L20.7508 23.808Z" fill="#611CE0"/>
<path d="M60.5363 57.192C61.0574 57.6292 61.8367 57.5628 62.2499 57.0225C65.2294 53.1263 67.1002 48.496 67.6634 43.6235C67.7415 42.9478 67.227 42.3587 66.5485 42.3113L66.2923 42.2934C65.6138 42.2459 65.0285 42.7582 64.9469 43.4335C64.428 47.7331 62.7773 51.8188 60.1638 55.2722C59.7533 55.8146 59.8185 56.5897 60.3396 57.0269L60.5363 57.192Z" fill="#611CE0"/>
<path d="M20.7508 57.192C20.2298 57.6292 19.4504 57.5628 19.0372 57.0225C16.0577 53.1263 14.1869 48.496 13.6237 43.6235C13.5456 42.9478 14.0601 42.3587 14.7386 42.3113L14.9948 42.2934C15.6733 42.2459 16.2587 42.7582 16.3402 43.4335C16.8591 47.7331 18.5098 51.8188 21.1233 55.2722C21.5338 55.8146 21.4686 56.5897 20.9475 57.0269L20.7508 57.192Z" fill="#611CE0"/>
<path d="M39.6357 68.46C39.6357 67.9077 40.0835 67.46 40.6357 67.46C41.188 67.46 41.6357 67.9077 41.6357 68.46L40.6357 68.46L39.6357 68.46ZM41.3428 79.9271C40.9523 80.3176 40.3192 80.3176 39.9286 79.9271L33.5647 73.5631C33.1742 73.1726 33.1742 72.5394 33.5647 72.1489C33.9552 71.7584 34.5884 71.7584 34.9789 72.1489L40.6357 77.8057L46.2926 72.1489C46.6831 71.7584 47.3163 71.7584 47.7068 72.1489C48.0973 72.5394 48.0973 73.1726 47.7068 73.5631L41.3428 79.9271ZM40.6357 68.46L41.6357 68.46L41.6357 79.22L40.6357 79.22L39.6357 79.22L39.6357 68.46L40.6357 68.46Z" fill="#611CE0"/>
<path d="M39.6357 12.4595C39.6357 13.0118 40.0835 13.4595 40.6357 13.4595C41.188 13.4595 41.6357 13.0118 41.6357 12.4595L40.6357 12.4595L39.6357 12.4595ZM41.3428 0.992366C40.9523 0.601841 40.3192 0.601841 39.9286 0.992366L33.5647 7.35633C33.1742 7.74685 33.1742 8.38002 33.5647 8.77054C33.9552 9.16106 34.5884 9.16106 34.9789 8.77054L40.6357 3.11369L46.2926 8.77054C46.6831 9.16106 47.3163 9.16106 47.7068 8.77054C48.0973 8.38002 48.0973 7.74685 47.7068 7.35633L41.3428 0.992366ZM40.6357 12.4595L41.6357 12.4595L41.6357 1.69947L40.6357 1.69947L39.6357 1.69947L39.6357 12.4595L40.6357 12.4595Z" fill="#611CE0"/>
<path d="M12.6035 41.4922C13.1558 41.4922 13.6035 41.0445 13.6035 40.4922C13.6035 39.9399 13.1558 39.4922 12.6035 39.4922L12.6035 40.4922L12.6035 41.4922ZM1.13641 39.7851C0.745884 40.1756 0.745884 40.8088 1.13641 41.1993L7.50037 47.5633C7.89089 47.9538 8.52406 47.9538 8.91458 47.5633C9.30511 47.1727 9.30511 46.5396 8.91458 46.149L3.25773 40.4922L8.91458 34.8353C9.30511 34.4448 9.30511 33.8116 8.91458 33.4211C8.52406 33.0306 7.89089 33.0306 7.50037 33.4211L1.13641 39.7851ZM12.6035 40.4922L12.6035 39.4922L1.84352 39.4922L1.84352 40.4922L1.84352 41.4922L12.6035 41.4922L12.6035 40.4922Z" fill="#611CE0"/>
<path d="M68.6836 41.4922C68.1313 41.4922 67.6836 41.0445 67.6836 40.4922C67.6836 39.9399 68.1313 39.4922 68.6836 39.4922L68.6836 40.4922L68.6836 41.4922ZM80.1507 39.7851C80.5412 40.1756 80.5412 40.8088 80.1507 41.1993L73.7867 47.5633C73.3962 47.9538 72.7631 47.9538 72.3725 47.5633C71.982 47.1727 71.982 46.5396 72.3725 46.149L78.0294 40.4922L72.3725 34.8353C71.982 34.4448 71.982 33.8116 72.3725 33.4211C72.7631 33.0306 73.3962 33.0306 73.7867 33.4211L80.1507 39.7851ZM68.6836 40.4922L68.6836 39.4922L79.4436 39.4922L79.4436 40.4922L79.4436 41.4922L68.6836 41.4922L68.6836 40.4922Z" fill="#611CE0"/>
<path d="M20.6651 61.3585C21.0556 60.9679 21.0556 60.3348 20.6651 59.9443C20.2746 59.5537 19.6414 59.5537 19.2509 59.9443L19.958 60.6514L20.6651 61.3585ZM11.3495 68.2598C11.3495 68.8121 11.7972 69.2598 12.3495 69.2598L21.3495 69.2598C21.9018 69.2598 22.3495 68.8121 22.3495 68.2598C22.3495 67.7075 21.9018 67.2598 21.3495 67.2598L13.3495 67.2598L13.3495 59.2598C13.3495 58.7076 12.9018 58.2598 12.3495 58.2598C11.7972 58.2598 11.3495 58.7076 11.3495 59.2598L11.3495 68.2598ZM19.958 60.6514L19.2509 59.9443L11.6424 67.5527L12.3495 68.2598L13.0566 68.9669L20.6651 61.3585L19.958 60.6514Z" fill="#611CE0"/>
<path d="M20.6651 19.641C21.0556 20.0316 21.0556 20.6647 20.6651 21.0553C20.2746 21.4458 19.6414 21.4458 19.2509 21.0553L19.958 20.3481L20.6651 19.641ZM11.3495 12.7397C11.3495 12.1874 11.7972 11.7397 12.3495 11.7397L21.3495 11.7397C21.9018 11.7397 22.3495 12.1874 22.3495 12.7397C22.3495 13.292 21.9018 13.7397 21.3495 13.7397L13.3495 13.7397L13.3495 21.7397C13.3495 22.292 12.9018 22.7397 12.3495 22.7397C11.7972 22.7397 11.3495 22.292 11.3495 21.7397L11.3495 12.7397ZM19.958 20.3481L19.2509 21.0553L11.6424 13.4468L12.3495 12.7397L13.0566 12.0326L20.6651 19.641L19.958 20.3481Z" fill="#611CE0"/>
<path d="M60.6064 61.3585C60.2158 60.9679 60.2158 60.3348 60.6064 59.9443C60.9969 59.5537 61.6301 59.5537 62.0206 59.9443L61.3135 60.6514L60.6064 61.3585ZM69.922 68.2598C69.922 68.8121 69.4742 69.2598 68.922 69.2598L59.9219 69.2598C59.3697 69.2598 58.9219 68.8121 58.9219 68.2598C58.9219 67.7075 59.3697 67.2598 59.9219 67.2598L67.922 67.2598L67.922 59.2598C67.922 58.7076 68.3697 58.2598 68.922 58.2598C69.4742 58.2598 69.922 58.7076 69.922 59.2598L69.922 68.2598ZM61.3135 60.6514L62.0206 59.9443L69.6291 67.5527L68.922 68.2598L68.2148 68.9669L60.6064 61.3585L61.3135 60.6514Z" fill="#611CE0"/>
<path d="M60.6064 19.641C60.2158 20.0316 60.2158 20.6647 60.6064 21.0553C60.9969 21.4458 61.6301 21.4458 62.0206 21.0553L61.3135 20.3481L60.6064 19.641ZM69.922 12.7397C69.922 12.1874 69.4742 11.7397 68.922 11.7397L59.9219 11.7397C59.3697 11.7397 58.9219 12.1874 58.9219 12.7397C58.9219 13.292 59.3697 13.7397 59.9219 13.7397L67.922 13.7397L67.922 21.7397C67.922 22.292 68.3697 22.7397 68.922 22.7397C69.4742 22.7397 69.922 22.292 69.922 21.7397L69.922 12.7397ZM61.3135 20.3481L62.0206 21.0553L69.6291 13.4468L68.922 12.7397L68.2148 12.0326L60.6064 19.641L61.3135 20.3481Z" fill="#611CE0"/>
</g>
<path d="M103.19 56.5009C101.242 56.5009 99.4058 56.153 97.6805 55.4574C95.9832 54.7339 94.5084 53.7183 93.2562 52.4104C92.0318 51.1026 91.1136 49.5583 90.5014 47.7774L95.8023 45.3983C96.5814 47.0957 97.6527 48.4313 99.0162 49.4052C100.408 50.3791 101.938 50.8661 103.608 50.8661C104.498 50.8661 105.263 50.727 105.903 50.4487C106.543 50.1704 107.044 49.7948 107.406 49.3217C107.768 48.8209 107.948 48.2365 107.948 47.5687C107.948 46.8452 107.726 46.233 107.281 45.7322C106.835 45.2035 106.14 44.7861 105.194 44.48L99.0997 42.4765C96.6232 41.6696 94.7588 40.5287 93.5066 39.0539C92.2545 37.5513 91.6284 35.7565 91.6284 33.6696C91.6284 31.833 92.0736 30.2191 92.964 28.8278C93.8823 27.4365 95.1484 26.3513 96.7623 25.5722C98.404 24.793 100.282 24.4035 102.397 24.4035C104.261 24.4035 105.987 24.7235 107.573 25.3635C109.159 26.0035 110.522 26.9078 111.663 28.0765C112.832 29.2452 113.708 30.6504 114.293 32.2922L109.034 34.6713C108.449 33.2243 107.573 32.0974 106.404 31.2904C105.235 30.4557 103.9 30.0383 102.397 30.0383C101.534 30.0383 100.769 30.1774 100.101 30.4556C99.4336 30.7339 98.9188 31.1374 98.5571 31.6661C98.1953 32.167 98.0145 32.7513 98.0145 33.4191C98.0145 34.1426 98.251 34.7826 98.724 35.3391C99.1971 35.8678 99.9066 36.2852 100.853 36.5913L106.821 38.5113C109.326 39.3183 111.19 40.4452 112.414 41.8922C113.667 43.3391 114.293 45.1061 114.293 47.193C114.293 49.0017 113.82 50.6157 112.874 52.0348C111.928 53.4261 110.62 54.5252 108.95 55.3322C107.308 56.1113 105.388 56.5009 103.19 56.5009ZM127.668 56.5009C125.415 56.5009 123.355 55.9861 121.491 54.9565C119.655 53.927 118.18 52.5217 117.067 50.7409C115.982 48.9322 115.439 46.887 115.439 44.6052C115.439 42.2957 115.982 40.2504 117.067 38.4696C118.18 36.6887 119.655 35.2835 121.491 34.2539C123.355 33.2243 125.415 32.7096 127.668 32.7096C129.922 32.7096 131.968 33.2243 133.804 34.2539C135.641 35.2835 137.102 36.6887 138.187 38.4696C139.3 40.2504 139.856 42.2957 139.856 44.6052C139.856 46.887 139.3 48.9322 138.187 50.7409C137.102 52.5217 135.641 53.927 133.804 54.9565C131.968 55.9861 129.922 56.5009 127.668 56.5009ZM127.668 50.8661C128.809 50.8661 129.797 50.6017 130.632 50.073C131.495 49.5443 132.162 48.807 132.635 47.8609C133.136 46.9148 133.387 45.8296 133.387 44.6052C133.387 43.3809 133.136 42.3096 132.635 41.3913C132.162 40.4452 131.495 39.7078 130.632 39.1791C129.797 38.6226 128.809 38.3443 127.668 38.3443C126.528 38.3443 125.526 38.6226 124.663 39.1791C123.801 39.7078 123.119 40.4452 122.618 41.3913C122.145 42.3096 121.908 43.3809 121.908 44.6052C121.908 45.8296 122.145 46.9148 122.618 47.8609C123.119 48.807 123.801 49.5443 124.663 50.073C125.526 50.6017 126.528 50.8661 127.668 50.8661ZM149.639 56.5009C147.802 56.5009 146.23 56.1113 144.922 55.3322C143.642 54.5252 142.668 53.4122 142 51.993C141.333 50.5739 140.999 48.9183 140.999 47.0261V33.2104H147.259V46.5252C147.259 47.3878 147.426 48.153 147.76 48.8209C148.122 49.4609 148.623 49.9617 149.263 50.3235C149.903 50.6852 150.626 50.8661 151.433 50.8661C152.268 50.8661 152.992 50.6852 153.604 50.3235C154.244 49.9617 154.731 49.4609 155.065 48.8209C155.426 48.153 155.607 47.3878 155.607 46.5252V33.2104H161.868V56H156.025V51.4922L156.359 52.4939C155.83 53.8574 154.967 54.873 153.771 55.5409C152.602 56.1809 151.225 56.5009 149.639 56.5009ZM164.357 56V33.2104H170.201V38.6783L169.783 37.8852C170.284 35.9652 171.105 34.6713 172.246 34.0035C173.415 33.3078 174.792 32.96 176.378 32.96H177.714V38.3861H175.752C174.222 38.3861 172.983 38.8591 172.037 39.8052C171.091 40.7235 170.618 42.0313 170.618 43.7287V56H164.357ZM189.557 56.5009C187.275 56.5009 185.216 55.9861 183.379 54.9565C181.571 53.8991 180.124 52.4661 179.039 50.6574C177.981 48.8487 177.453 46.8174 177.453 44.5635C177.453 42.3096 177.981 40.2922 179.039 38.5113C180.096 36.7026 181.543 35.2835 183.379 34.2539C185.216 33.2243 187.275 32.7096 189.557 32.7096C191.254 32.7096 192.826 33.0017 194.273 33.5861C195.72 34.1704 196.959 34.9913 197.988 36.0487C199.018 37.0783 199.755 38.3026 200.2 39.7217L194.774 42.0591C194.385 40.9183 193.717 40.0139 192.771 39.3461C191.853 38.6783 190.781 38.3443 189.557 38.3443C188.472 38.3443 187.498 38.6087 186.635 39.1374C185.8 39.6661 185.133 40.4035 184.632 41.3496C184.159 42.2957 183.922 43.3809 183.922 44.6052C183.922 45.8296 184.159 46.9148 184.632 47.8609C185.133 48.807 185.8 49.5443 186.635 50.073C187.498 50.6017 188.472 50.8661 189.557 50.8661C190.809 50.8661 191.894 50.5322 192.813 49.8643C193.731 49.1965 194.385 48.2922 194.774 47.1513L200.2 49.5304C199.783 50.8661 199.059 52.0626 198.03 53.12C197 54.1774 195.762 55.0122 194.315 55.6243C192.868 56.2087 191.282 56.5009 189.557 56.5009ZM212.778 56.5009C210.357 56.5009 208.256 55.9722 206.475 54.9148C204.694 53.8296 203.317 52.3826 202.343 50.5739C201.369 48.7652 200.882 46.7617 200.882 44.5635C200.882 42.2817 201.383 40.2504 202.384 38.4696C203.414 36.6887 204.791 35.2835 206.517 34.2539C208.242 33.2243 210.19 32.7096 212.36 32.7096C214.169 32.7096 215.769 33.0017 217.16 33.5861C218.551 34.1426 219.72 34.9357 220.666 35.9652C221.64 36.9948 222.378 38.1913 222.878 39.5548C223.379 40.8904 223.63 42.3513 223.63 43.9374C223.63 44.3826 223.602 44.8278 223.546 45.273C223.518 45.6904 223.449 46.0522 223.338 46.3583H206.266V41.767H219.79L216.826 43.9374C217.104 42.7409 217.091 41.6835 216.784 40.7652C216.478 39.8191 215.936 39.0817 215.157 38.553C214.405 37.9965 213.473 37.7183 212.36 37.7183C211.275 37.7183 210.343 37.9826 209.564 38.5113C208.784 39.04 208.2 39.8191 207.811 40.8487C207.421 41.8783 207.268 43.1304 207.351 44.6052C207.24 45.8852 207.393 47.0122 207.811 47.9861C208.228 48.96 208.868 49.7252 209.731 50.2817C210.593 50.8104 211.637 51.0748 212.861 51.0748C213.974 51.0748 214.92 50.8522 215.699 50.407C216.506 49.9617 217.132 49.3496 217.578 48.5704L222.586 50.9496C222.141 52.0626 221.431 53.0365 220.458 53.8713C219.511 54.7061 218.384 55.36 217.077 55.833C215.769 56.2783 214.336 56.5009 212.778 56.5009Z" fill="#611CE0"/>
<defs>
<clipPath id="clip0_206_2962">
<rect width="80" height="80" fill="white" transform="matrix(1 0 0 -1 0.643555 80.5)"/>
</clipPath>
</defs>
</svg>
