<svg xmlns="http://www.w3.org/2000/svg" width="799.031" height="618.112" viewBox="0 0 799.031 618.112" xmlns:xlink="http://www.w3.org/1999/xlink" role="img" artist="Katerina Limpitsouni" source="https://undraw.co/"><g transform="translate(-560 -231)"><path d="M15.18,488.763c0,.872.478,1.573,1.073,1.573h535.1c.6,0,1.073-.7,1.073-1.573s-.478-1.573-1.073-1.573H16.253C15.658,487.191,15.18,487.891,15.18,488.763Z" transform="translate(674.711 358.776)" fill="#ccc"/><rect width="19.105" height="3.371" transform="translate(865.162 842.354)" fill="#b6b3c5"/><rect width="19.105" height="3.371" transform="translate(1034.295 842.917)" fill="#b6b3c5"/><path d="M352.955,370.945a27.529,27.529,0,0,1-54.321,0H229.146V521.536h193.3V370.945Z" transform="translate(633.721 321.378)" fill="#d6d6e3"/><rect width="193.296" height="5.242" transform="translate(863.43 830.983)" fill="#090814"/><path d="M788.255,487.17H10.776A10.788,10.788,0,0,1,0,476.394V32.688A10.788,10.788,0,0,1,10.776,21.911H788.255a10.789,10.789,0,0,1,10.776,10.776V476.394a10.789,10.789,0,0,1-10.776,10.776Z" transform="translate(560 209.089)" fill="#090814"/><rect width="760.822" height="429.297" transform="translate(578.104 247.968)" fill="#fff"/><g transform="translate(800.161 416.339)"><g transform="translate(0 12.703)"><path d="M464.568,286.829,359.922,313.776a13.837,13.837,0,0,1-16.832-9.938l-31.646-122.9a13.837,13.837,0,0,1,9.938-16.832l97.356-25.07,24.917,11.155L474.506,270A13.837,13.837,0,0,1,464.568,286.829Z" transform="translate(-311.008 -139.038)" fill="#090814"/><path d="M327.891,173.789a9.854,9.854,0,0,0-7.077,11.986l31.648,122.9a9.854,9.854,0,0,0,11.986,7.077L469.094,288.8a9.854,9.854,0,0,0,7.077-11.986L445.8,158.87l-21.9-9.8Z" transform="translate(-316.526 -144.866)" fill="#f2f2f2"/><path d="M592.54,151.286l-16.2,4.171a4.6,4.6,0,0,1-5.606-3.31l-3.08-11.962a.288.288,0,0,1,.4-.335l24.531,10.894a.288.288,0,0,1-.045.542Z" transform="translate(-460.158 -139.496)" fill="#090814"/><path d="M536.635,411.478l-47.644,12.27a2.3,2.3,0,1,1-1.148-4.458l47.644-12.27a2.3,2.3,0,0,1,1.148,4.458Z" transform="translate(-412.773 -294.737)" fill="#ccc"/><path d="M550.454,423.786l-56.838,14.637a2.3,2.3,0,1,1-1.148-4.458l56.838-14.637a2.3,2.3,0,1,1,1.148,4.458Z" transform="translate(-415.461 -301.89)" fill="#ccc"/><ellipse cx="8.135" cy="8.135" rx="8.135" ry="8.135" transform="translate(48.637 127.516)" fill="#6c63ff"/><path d="M476.1,276.011,412.822,292.3a7.128,7.128,0,0,1-8.67-5.121l-13.26-51.513A7.128,7.128,0,0,1,396.013,227l63.276-16.288a7.128,7.128,0,0,1,8.67,5.121l13.26,51.513A7.128,7.128,0,0,1,476.1,276.011Z" transform="translate(-357.303 -180.56)" fill="#fff"/><path d="M476.1,276.011,412.822,292.3a7.128,7.128,0,0,1-8.67-5.121l-13.26-51.513A7.128,7.128,0,0,1,396.013,227l63.276-16.288a7.128,7.128,0,0,1,8.67,5.121l13.26,51.513A7.128,7.128,0,0,1,476.1,276.011Zm-79.877-48.2a6.289,6.289,0,0,0-4.516,7.651l13.26,51.513a6.29,6.29,0,0,0,7.651,4.516L475.89,275.2a6.29,6.29,0,0,0,4.516-7.651l-13.259-51.513a6.29,6.29,0,0,0-7.651-4.516Z" transform="translate(-357.303 -180.56)" fill="#e6e6e6"/><path d="M500.535,249.227l-31.934,8.22a1.144,1.144,0,0,1-1.386-.719,1.1,1.1,0,0,1,.776-1.4l32.507-8.368c1.313.665.967,2.026.036,2.266Z" transform="translate(-401.761 -201.759)" fill="#f2f2f2"/><path d="M503.975,262.6l-31.934,8.22a1.144,1.144,0,0,1-1.386-.72,1.1,1.1,0,0,1,.776-1.4l32.507-8.368c1.313.666.968,2.026.036,2.266Z" transform="translate(-403.76 -209.529)" fill="#f2f2f2"/><path d="M439.734,277.888l-9.746,2.508a1.239,1.239,0,0,1-1.509-.891l-2.961-11.5a1.239,1.239,0,0,1,.891-1.509l9.746-2.509a1.241,1.241,0,0,1,1.509.891l2.961,11.5a1.239,1.239,0,0,1-.891,1.509Z" transform="translate(-377.534 -211.632)" fill="#6c63ff"/><path d="M487.489,290.041l-48.738,12.546a1.144,1.144,0,0,1-1.386-.719,1.1,1.1,0,0,1,.776-1.4l49.311-12.693c1.313.665.968,2.026.036,2.266Z" transform="translate(-384.412 -225.478)" fill="#f2f2f2"/><path d="M490.933,303.419l-48.739,12.546a1.144,1.144,0,0,1-1.386-.719,1.1,1.1,0,0,1,.776-1.4L490.9,301.153c1.313.666.968,2.026.036,2.266Z" transform="translate(-386.414 -233.253)" fill="#f2f2f2"/><path d="M494.374,316.788l-48.738,12.546a1.144,1.144,0,0,1-1.386-.719,1.1,1.1,0,0,1,.776-1.4l49.311-12.693C495.651,315.187,495.3,316.548,494.374,316.788Z" transform="translate(-388.414 -241.023)" fill="#f2f2f2"/><path d="M497.817,330.165l-48.738,12.546a1.144,1.144,0,0,1-1.386-.719,1.1,1.1,0,0,1,.776-1.4L497.781,327.9C499.094,328.564,498.748,329.925,497.817,330.165Z" transform="translate(-390.414 -248.797)" fill="#f2f2f2"/><path d="M501.259,343.535l-48.738,12.546a1.144,1.144,0,0,1-1.386-.719,1.1,1.1,0,0,1,.776-1.4l49.311-12.693C502.535,341.934,502.19,343.3,501.259,343.535Z" transform="translate(-392.415 -256.567)" fill="#f2f2f2"/><path d="M443.44,460.18a.843.843,0,0,1-.534-.037l-.01,0-2.216-.94a.85.85,0,0,1,.665-1.564l1.436.611,1.882-4.427a.849.849,0,0,1,1.114-.449h0l-.011.029.012-.029a.85.85,0,0,1,.449,1.114l-2.214,5.2a.85.85,0,0,1-.572.489Z" transform="translate(-386.068 -321.677)" fill="#fff"/></g><g transform="translate(116.303 24.86) rotate(-8)"><g transform="translate(50.318 0) rotate(19)"><path d="M121.882,154.552H13.822A13.837,13.837,0,0,1,0,140.729V13.822A13.837,13.837,0,0,1,13.822,0H114.354L135.7,17.017V140.729a13.837,13.837,0,0,1-13.822,13.823Z" transform="translate(0 0)" fill="#090814"/><path d="M9.843,0A9.854,9.854,0,0,0,0,9.843V136.75a9.854,9.854,0,0,0,9.843,9.843H117.9a9.854,9.854,0,0,0,9.843-9.843V14.955L108.983,0Z" transform="translate(3.979 3.979)" fill="#f2f2f2"/><path d="M51.5,4.6H2.3A2.3,2.3,0,1,1,2.3,0H51.5a2.3,2.3,0,1,1,0,4.6Z" transform="translate(49.364 36.277)" fill="#6c63ff"/><path d="M60.994,4.6H2.3A2.3,2.3,0,1,1,2.3,0H60.994a2.3,2.3,0,0,1,0,4.6Z" transform="translate(49.364 44.045)" fill="#6c63ff"/><path d="M51.5,0H2.3a2.3,2.3,0,0,0,0,4.6H51.5a2.3,2.3,0,1,0,0-4.6Z" transform="translate(49.366 71.088)" fill="#ccc"/><path d="M60.994,0H2.3a2.3,2.3,0,1,0,0,4.6H60.993a2.3,2.3,0,1,0,0-4.6Z" transform="translate(49.366 78.858)" fill="#ccc"/><path d="M51.5,4.6H2.3A2.3,2.3,0,1,1,2.3,0H51.5a2.3,2.3,0,1,1,0,4.6Z" transform="translate(49.364 105.903)" fill="#ccc"/><path d="M60.994,4.6H2.3A2.3,2.3,0,1,1,2.3,0H60.994a2.3,2.3,0,0,1,0,4.6Z" transform="translate(49.364 113.671)" fill="#ccc"/><ellipse cx="8.135" cy="8.135" rx="8.135" ry="8.135" transform="translate(23.043 34.328)" fill="#6c63ff"/><path d="M2.762,6.187a.844.844,0,0,1-.508-.169l-.009-.007L.333,4.549A.85.85,0,1,1,1.367,3.2l1.239.95L5.531.333A.849.849,0,0,1,6.722.176h0L6.7.2,6.723.175A.85.85,0,0,1,6.88,1.366L3.437,5.855a.85.85,0,0,1-.676.331Z" transform="translate(27.611 39.379)" fill="#fff"/><path d="M16.269,8.137a8.135,8.135,0,0,1-8.134,8.138,1.748,1.748,0,0,1-.209-.008,8.134,8.134,0,1,1,8.343-8.13Z" transform="translate(23.881 69.138)" fill="#6c63ff"/><ellipse cx="8.135" cy="8.135" rx="8.135" ry="8.135" transform="translate(23.043 103.953)" fill="#6c63ff"/><path d="M21.327,17.243H4.6a4.6,4.6,0,0,1-4.6-4.6V.288A.288.288,0,0,1,.466.062L21.506,16.728a.288.288,0,0,1-.179.513Z" transform="translate(113.961 0.322)" fill="#090814"/></g></g></g><path d="M689.742,284.351H298.624a20.1,20.1,0,0,1-20.073-20.073V246.03a20.1,20.1,0,0,1,20.073-20.073H689.742a20.1,20.1,0,0,1,20.073,20.073v18.248A20.1,20.1,0,0,1,689.742,284.351ZM298.624,227.174a18.878,18.878,0,0,0-18.856,18.856v18.248a18.878,18.878,0,0,0,18.856,18.856H689.742A18.878,18.878,0,0,0,708.6,264.278V246.03a18.878,18.878,0,0,0-18.856-18.856Z" transform="translate(465.817 70.043)" fill="#3f3d56"/><rect width="295" height="23.114" rx="11.557" transform="translate(774.689 313.64)" fill="#6c63ff"/><g transform="translate(-3 -3.177)"><path d="M862.383,286.273a2.373,2.373,0,0,1-3.3.583l-12.946-9.008a2.373,2.373,0,0,1,2.722-3.888l12.946,9.008A2.373,2.373,0,0,1,862.383,286.273Z" transform="translate(285.789 59.967)" fill="#6c63ff"/><path d="M843.65,272.589a16.846,16.846,0,1,1-4.137-23.462,16.846,16.846,0,0,1,4.137,23.462ZM819.5,255.68a12.634,12.634,0,1,0,17.6-3.1A12.634,12.634,0,0,0,819.5,255.68Z" transform="translate(289.825 63.417)" fill="#6c63ff"/></g></g></svg>